{"glyphs":{"0":{"ha":878,"x_min":88,"x_max":791,"o":"m 435 -25 q 184 121 280 -25 q 88 503 88 267 q 185 884 88 740 q 439 1029 281 1029 q 694 884 597 1029 q 791 505 791 740 q 694 119 791 263 q 435 -25 597 -25 m 437 75 q 649 507 649 75 q 439 928 649 928 q 231 503 231 928 q 437 75 231 75 z "},"1":{"ha":878,"x_min":209,"x_max":745,"o":"m 209 0 l 209 100 l 410 100 l 410 892 l 209 842 l 209 945 l 544 1029 l 544 100 l 745 100 l 745 0 l 209 0 z "},"2":{"ha":878,"x_min":115,"x_max":718,"o":"m 115 0 l 115 117 q 351 414 174 254 l 428 483 q 576 748 576 616 q 525 880 576 832 q 387 928 475 928 q 140 848 282 928 l 140 966 q 406 1029 274 1029 q 632 953 547 1029 q 718 751 718 877 q 674 591 718 661 q 514 422 631 522 l 463 378 q 277 117 302 241 l 713 117 l 713 0 l 115 0 z "},"3":{"ha":878,"x_min":141,"x_max":726,"o":"m 141 7 l 141 132 q 368 75 285 75 q 523 131 463 75 q 583 276 583 187 q 287 488 583 488 l 234 488 l 234 578 l 281 578 q 559 774 559 578 q 376 928 559 928 q 155 872 275 928 l 155 989 q 385 1029 273 1029 q 693 796 693 1029 q 484 544 693 619 q 726 278 726 488 q 633 56 726 136 q 376 -25 539 -25 q 141 7 283 -25 z "},"4":{"ha":878,"x_min":71,"x_max":783,"o":"m 523 0 l 523 284 l 71 284 l 71 385 l 523 1004 l 648 1004 l 648 393 l 783 393 l 783 284 l 648 284 l 648 0 l 523 0 m 202 393 l 532 393 l 532 840 l 202 393 z "},"5":{"ha":878,"x_min":169,"x_max":713,"o":"m 169 -4 l 169 115 q 359 75 269 75 q 514 134 458 75 q 571 294 571 192 q 260 520 571 520 q 186 515 224 520 l 186 1004 l 694 1004 l 694 887 l 303 887 l 303 623 q 605 534 496 623 q 713 288 713 445 q 615 58 713 141 q 341 -25 516 -25 q 169 -4 265 -25 z "},"6":{"ha":878,"x_min":93,"x_max":779,"o":"m 239 520 q 479 644 334 644 q 695 557 611 644 q 779 334 779 470 q 685 76 779 177 q 446 -25 591 -25 q 186 109 280 -25 q 93 479 93 242 q 200 885 93 741 q 503 1029 308 1029 q 727 991 593 1029 l 727 875 q 495 929 585 929 q 239 520 239 929 m 644 304 q 593 483 644 418 q 451 548 542 548 q 305 491 366 548 q 244 354 244 434 q 302 152 244 228 q 456 75 360 75 q 593 137 542 75 q 644 304 644 199 z "},"7":{"ha":878,"x_min":151,"x_max":795,"o":"m 209 0 q 265 203 229 117 q 393 437 301 288 l 667 878 l 151 878 l 151 1004 l 795 1004 l 795 878 q 363 0 409 309 l 209 0 z "},"8":{"ha":878,"x_min":120,"x_max":791,"o":"m 319 547 q 172 773 172 649 q 256 958 172 887 q 473 1029 339 1029 q 674 969 597 1029 q 751 812 751 909 q 564 547 751 667 q 791 260 791 435 q 696 54 791 134 q 450 -25 601 -25 q 211 50 302 -25 q 120 247 120 125 q 319 547 120 427 m 490 589 q 630 794 630 681 q 583 891 630 854 q 460 928 536 928 q 340 892 386 928 q 294 798 294 856 q 335 697 294 742 q 490 589 377 653 m 392 492 q 282 384 311 430 q 254 268 254 337 q 309 129 254 182 q 456 75 365 75 q 598 121 543 75 q 654 239 654 166 q 620 337 654 297 q 487 436 585 378 l 392 492 z "},"9":{"ha":878,"x_min":106,"x_max":788,"o":"m 158 6 l 158 119 q 375 75 286 75 q 570 181 500 75 q 640 477 640 288 q 409 351 538 351 q 194 445 282 351 q 106 672 106 538 q 200 927 106 826 q 436 1029 294 1029 q 694 898 600 1029 q 788 538 788 766 q 673 127 788 279 q 362 -25 558 -25 q 158 6 283 -25 m 239 699 q 291 515 239 582 q 433 448 343 448 q 578 505 518 448 q 638 644 638 563 q 580 851 638 772 q 428 929 522 929 q 290 867 340 929 q 239 699 239 805 z "}," ":{"ha":439,"x_min":0,"x_max":0,"o":""},"!":{"ha":439,"x_min":153,"x_max":286,"o":"m 153 0 l 153 134 l 286 134 l 286 0 l 153 0 m 170 268 l 153 803 l 153 1004 l 286 1004 l 286 803 l 270 268 l 170 268 z "},"\"":{"ha":519,"x_min":75,"x_max":444,"o":"m 92 736 l 75 1071 l 209 1071 l 193 736 l 92 736 m 326 736 l 309 1071 l 444 1071 l 427 736 l 326 736 z "},"#":{"ha":878,"x_min":10,"x_max":868,"o":"m 138 0 l 213 301 l 10 301 l 27 385 l 234 385 l 293 619 l 73 619 l 90 703 l 313 703 l 389 1004 l 475 1004 l 400 703 l 578 703 l 654 1004 l 741 1004 l 665 703 l 868 703 l 852 619 l 644 619 l 585 385 l 805 385 l 788 301 l 565 301 l 490 0 l 403 0 l 478 301 l 300 301 l 224 0 l 138 0 m 321 385 l 499 385 l 558 619 l 379 619 l 321 385 z "},"$":{"ha":878,"x_min":146,"x_max":715,"o":"m 414 -83 l 414 0 q 146 56 295 0 l 146 172 q 414 100 300 100 l 414 460 q 226 609 277 545 q 176 763 176 673 q 241 929 176 863 q 414 1004 307 996 l 414 1088 l 481 1088 l 481 1004 q 699 958 580 1004 l 699 849 q 481 912 568 905 l 481 555 q 536 522 517 532 q 677 408 640 458 q 715 281 715 357 q 652 99 715 174 q 481 0 589 23 l 481 -83 l 414 -83 m 481 109 q 598 261 598 151 q 576 340 598 309 q 481 421 553 371 l 481 109 m 414 599 l 414 908 q 293 766 293 870 q 318 679 293 714 q 414 599 343 644 z "},"%":{"ha":928,"x_min":8,"x_max":920,"o":"m 16 -25 l 807 1029 l 911 1029 l 121 -25 l 16 -25 m 218 502 q 65 570 123 502 q 8 753 8 639 q 66 936 8 869 q 222 1004 123 1004 q 377 936 319 1004 q 435 754 435 869 q 377 569 435 637 q 218 502 319 502 m 220 569 q 334 754 334 569 q 304 887 334 838 q 222 937 273 937 q 139 887 170 937 q 109 753 109 838 q 139 619 109 669 q 220 569 170 569 m 704 0 q 551 68 608 0 q 494 251 494 136 q 551 434 494 366 q 707 502 609 502 q 862 434 804 502 q 920 252 920 367 q 863 67 920 134 q 704 0 805 0 m 705 67 q 820 252 820 67 q 789 386 820 336 q 707 435 758 435 q 625 386 655 435 q 594 251 594 336 q 624 117 594 168 q 705 67 654 67 z "},"&":{"ha":968,"x_min":50,"x_max":909,"o":"m 720 0 l 670 60 q 410 -25 559 -25 q 152 66 253 -25 q 50 298 50 157 q 295 613 50 530 q 227 817 227 736 q 298 967 227 906 q 470 1029 369 1029 q 631 971 568 1029 q 694 826 694 914 q 474 564 694 675 q 709 230 575 385 q 771 484 771 319 l 770 534 l 903 534 q 770 150 903 311 q 909 0 831 73 l 720 0 m 612 137 q 340 534 469 312 q 184 331 184 471 q 256 150 184 224 q 432 75 328 75 q 612 137 526 75 m 425 649 q 569 824 569 715 q 465 928 569 928 q 361 823 361 928 q 425 649 361 754 z "},"'":{"ha":318,"x_min":75,"x_max":243,"o":"m 109 703 l 75 1071 l 243 1071 l 209 703 l 109 703 z "},"(":{"ha":452,"x_min":83,"x_max":401,"o":"m 401 -109 l 401 -201 q 169 70 255 -101 q 83 435 83 241 q 169 800 83 629 q 401 1071 255 971 l 401 979 q 259 745 302 870 q 217 435 217 621 q 259 125 217 250 q 401 -109 302 0 z "},")":{"ha":452,"x_min":50,"x_max":368,"o":"m 50 -109 l 50 -201 q 282 70 197 -101 q 368 435 368 241 q 282 800 368 629 q 50 1071 197 971 l 50 979 q 192 745 150 870 q 235 435 235 621 q 192 125 235 250 q 50 -109 150 0 z "},"*":{"ha":669,"x_min":75,"x_max":595,"o":"m 564 874 l 595 779 l 389 734 q 391 744 391 741 q 372 789 391 772 l 564 874 m 527 568 l 446 509 l 339 690 q 387 725 374 694 l 527 568 m 224 509 l 143 568 l 283 725 q 330 690 296 694 l 224 509 m 75 779 l 106 874 l 298 789 q 279 744 279 772 q 280 734 279 741 l 75 779 m 285 1004 l 385 1004 l 364 795 q 335 802 352 802 q 306 795 318 802 l 285 1004 z "},"+":{"ha":1104,"x_min":151,"x_max":954,"o":"m 502 0 l 502 351 l 151 351 l 151 452 l 502 452 l 502 803 l 602 803 l 602 452 l 954 452 l 954 351 l 602 351 l 602 0 l 502 0 z "},",":{"ha":439,"x_min":136,"x_max":303,"o":"m 136 -218 l 136 -168 q 201 -14 201 -149 l 201 0 l 136 0 l 136 168 l 303 168 l 303 22 q 136 -218 303 -201 z "},"-":{"ha":804,"x_min":100,"x_max":703,"o":"m 100 351 l 100 452 l 703 452 l 703 351 l 100 351 z "},".":{"ha":439,"x_min":136,"x_max":303,"o":"m 136 0 l 136 168 l 303 168 l 303 0 l 136 0 z "},"/":{"ha":728,"x_min":131,"x_max":597,"o":"m 131 -201 l 492 1004 l 597 1004 l 236 -201 l 131 -201 z "},":":{"ha":439,"x_min":153,"x_max":286,"o":"m 153 0 l 153 134 l 286 134 l 286 0 l 153 0 m 153 602 l 153 736 l 286 736 l 286 602 l 153 602 z "},";":{"ha":439,"x_min":153,"x_max":286,"o":"m 153 -218 l 153 -168 q 201 -16 201 -142 l 201 0 l 153 0 l 153 134 l 286 134 l 286 21 q 153 -218 286 -184 m 153 602 l 153 736 l 286 736 l 286 602 l 153 602 z "},"<":{"ha":1104,"x_min":151,"x_max":954,"o":"m 954 0 l 151 401 l 954 803 l 954 691 l 375 401 l 954 113 l 954 0 z "},"=":{"ha":1104,"x_min":151,"x_max":954,"o":"m 151 226 l 151 326 l 954 326 l 954 226 l 151 226 m 151 477 l 151 577 l 954 577 l 954 477 l 151 477 z "},">":{"ha":1104,"x_min":151,"x_max":954,"o":"m 151 0 l 954 401 l 151 803 l 151 691 l 729 401 l 151 113 l 151 0 z "},"?":{"ha":586,"x_min":25,"x_max":561,"o":"m 170 0 l 170 134 l 303 134 l 303 0 l 170 0 m 170 268 l 170 304 q 269 548 170 434 l 312 597 q 418 798 418 720 q 372 893 418 858 q 245 928 325 928 q 25 878 142 928 l 25 991 q 260 1029 151 1029 q 479 967 398 1029 q 561 800 561 905 q 537 697 561 740 q 448 591 514 654 l 406 551 q 323 451 342 492 q 303 342 303 411 l 303 268 l 170 268 z "},"@":{"ha":1192,"x_min":63,"x_max":1142,"o":"m 741 30 q 502 -25 619 -25 q 187 93 311 -25 q 63 391 63 210 q 229 811 63 621 q 443 970 317 912 q 697 1029 568 1029 q 1014 907 886 1029 q 1142 604 1142 785 q 1040 318 1142 435 q 791 201 937 201 q 678 279 678 201 q 692 350 678 307 l 720 435 l 711 435 q 449 201 589 201 q 318 351 318 201 q 367 556 318 448 q 488 727 416 664 q 674 799 570 799 q 728 797 695 799 q 781 795 761 795 l 873 795 l 788 363 q 784 321 784 342 q 836 276 784 276 q 996 372 926 276 q 1067 592 1067 469 q 959 851 1067 748 q 687 954 851 954 q 305 785 472 954 q 138 398 138 616 q 243 148 138 245 q 513 50 348 50 q 717 99 619 50 l 741 30 m 728 565 l 754 697 q 646 720 692 720 q 486 623 550 720 q 422 380 422 526 q 478 284 422 284 q 588 360 520 284 q 728 565 656 437 z "},"A":{"ha":958,"x_min":12,"x_max":943,"o":"m 638 384 l 467 817 l 296 384 l 638 384 m 789 0 l 680 278 l 254 278 l 144 0 l 12 0 l 410 1004 l 551 1004 l 943 0 l 789 0 z "},"B":{"ha":799,"x_min":130,"x_max":741,"o":"m 130 0 l 130 1004 l 390 1004 q 621 947 541 1004 q 701 783 701 890 q 495 523 701 600 q 741 251 741 448 q 660 64 741 129 q 425 0 578 0 l 130 0 m 271 106 l 300 106 q 503 126 456 106 q 591 264 591 163 q 511 413 591 354 q 311 473 431 473 l 271 473 l 271 106 m 271 563 l 316 563 q 493 612 430 563 q 555 749 555 661 q 326 897 555 897 l 271 897 l 271 563 z "},"C":{"ha":961,"x_min":71,"x_max":884,"o":"m 559 -25 q 198 112 326 -25 q 71 501 71 250 q 200 890 71 752 q 566 1029 330 1029 q 882 985 701 1029 l 882 851 q 564 922 676 922 q 311 812 401 922 q 222 500 222 701 q 317 197 222 308 q 578 86 413 86 q 884 174 721 86 l 884 52 q 559 -25 735 -25 z "},"D":{"ha":1040,"x_min":130,"x_max":970,"o":"m 130 0 l 130 1004 l 463 1004 q 704 970 612 1004 q 863 858 796 937 q 970 526 970 732 q 838 138 970 275 q 465 0 705 0 l 130 0 m 272 106 l 454 106 q 731 212 650 106 q 819 512 819 323 q 732 790 819 689 q 608 874 680 852 q 389 897 535 897 l 272 897 l 272 106 z "},"E":{"ha":753,"x_min":130,"x_max":720,"o":"m 130 0 l 130 1004 l 690 1004 l 690 897 l 272 897 l 272 575 l 623 575 l 623 470 l 272 470 l 272 106 l 720 106 l 720 0 l 130 0 z "},"F":{"ha":745,"x_min":130,"x_max":690,"o":"m 130 0 l 130 1004 l 690 1004 l 690 897 l 272 897 l 272 561 l 623 561 l 623 456 l 272 456 l 272 0 l 130 0 z "},"G":{"ha":1004,"x_min":71,"x_max":884,"o":"m 884 27 q 566 -25 701 -25 q 198 111 326 -25 q 71 502 71 248 q 200 890 71 751 q 564 1029 330 1029 q 882 983 717 1029 l 882 852 q 564 922 675 922 q 312 812 401 922 q 222 500 222 701 q 318 192 222 302 q 588 81 414 81 q 742 106 659 81 l 742 433 l 884 433 l 884 27 z "},"H":{"ha":1021,"x_min":130,"x_max":892,"o":"m 130 0 l 130 1004 l 272 1004 l 272 581 l 749 581 l 749 1004 l 892 1004 l 892 0 l 749 0 l 749 474 l 272 474 l 272 0 l 130 0 z "},"I":{"ha":400,"x_min":129,"x_max":271,"o":"m 129 0 l 129 1004 l 271 1004 l 271 0 l 129 0 z "},"J":{"ha":432,"x_min":-125,"x_max":307,"o":"m -125 -186 l -125 -60 q 19 -87 -43 -87 q 133 -40 100 -87 q 165 122 165 6 l 165 1004 l 307 1004 l 307 127 q -3 -201 307 -201 q -125 -186 -50 -201 z "},"K":{"ha":907,"x_min":130,"x_max":882,"o":"m 130 0 l 130 1004 l 263 1004 l 263 510 l 669 1004 l 812 1004 l 419 525 l 882 0 l 702 0 l 263 509 l 263 0 l 130 0 z "},"L":{"ha":741,"x_min":130,"x_max":724,"o":"m 130 0 l 130 1004 l 272 1004 l 272 106 l 724 106 l 724 0 l 130 0 z "},"M":{"ha":1196,"x_min":130,"x_max":1067,"o":"m 130 0 l 130 1004 l 327 1004 l 605 227 l 891 1004 l 1067 1004 l 1067 0 l 935 0 l 935 817 l 658 67 l 520 67 l 252 819 l 252 0 l 130 0 z "},"N":{"ha":1026,"x_min":130,"x_max":897,"o":"m 130 0 l 130 1004 l 269 1004 l 774 229 l 774 1004 l 897 1004 l 897 0 l 758 0 l 252 775 l 252 0 l 130 0 z "},"O":{"ha":1079,"x_min":71,"x_max":1009,"o":"m 534 -25 q 198 120 325 -25 q 71 503 71 264 q 198 885 71 742 q 540 1029 326 1029 q 881 886 753 1029 q 1009 504 1009 743 q 881 118 1009 260 q 534 -25 753 -25 m 536 81 q 774 192 690 81 q 858 505 858 303 q 773 812 858 701 q 540 922 689 922 q 306 811 390 922 q 222 503 222 701 q 305 194 222 307 q 536 81 389 81 z "},"P":{"ha":768,"x_min":130,"x_max":743,"o":"m 130 0 l 130 1004 l 403 1004 q 664 942 585 1004 q 743 741 743 881 q 635 490 743 581 q 334 399 526 399 l 271 399 l 271 0 l 130 0 m 271 507 l 328 507 q 524 565 455 507 q 593 730 593 623 q 539 859 593 820 q 358 897 485 897 l 271 897 l 271 507 z "},"Q":{"ha":1079,"x_min":71,"x_max":1111,"o":"m 1021 -201 q 624 -18 784 -124 q 526 -25 560 -25 q 197 121 323 -25 q 71 502 71 268 q 198 885 71 742 q 540 1029 326 1029 q 882 885 754 1029 q 1009 500 1009 741 q 752 21 1009 154 q 1111 -87 925 -55 l 1021 -201 m 536 81 q 774 192 690 81 q 858 505 858 302 q 774 811 858 701 q 540 922 690 922 q 306 811 390 922 q 222 503 222 701 q 305 194 222 307 q 536 81 389 81 z "},"R":{"ha":878,"x_min":130,"x_max":864,"o":"m 130 0 l 130 1004 l 433 1004 q 655 940 578 1004 q 732 755 732 876 q 529 470 732 554 l 864 0 l 689 0 l 404 425 l 271 425 l 271 0 l 130 0 m 271 531 l 317 531 q 585 742 585 531 q 360 897 585 897 l 271 897 l 271 531 z "},"S":{"ha":748,"x_min":68,"x_max":679,"o":"m 326 -25 q 68 19 225 -25 l 68 160 q 347 81 237 81 q 482 125 431 81 q 533 241 533 170 q 499 342 533 300 q 376 434 466 383 l 307 474 q 126 612 178 547 q 73 763 73 677 q 157 954 73 879 q 372 1029 241 1029 q 616 990 488 1029 l 616 860 q 380 922 458 922 q 258 883 306 922 q 210 784 210 844 q 245 695 210 734 q 374 603 280 656 l 446 562 q 627 422 576 488 q 679 264 679 357 q 582 54 679 134 q 326 -25 486 -25 z "},"T":{"ha":878,"x_min":12,"x_max":867,"o":"m 368 0 l 368 897 l 12 897 l 12 1004 l 867 1004 l 867 897 l 511 897 l 511 0 l 368 0 z "},"U":{"ha":962,"x_min":121,"x_max":842,"o":"m 121 1004 l 264 1004 l 264 370 q 320 150 264 219 q 498 81 376 81 q 667 146 617 81 q 717 366 717 211 l 717 1004 l 842 1004 l 842 368 q 757 68 842 162 q 488 -25 673 -25 q 211 72 300 -25 q 121 372 121 169 l 121 1004 z "},"V":{"ha":908,"x_min":24,"x_max":902,"o":"m 404 0 l 24 1004 l 167 1004 l 477 182 l 777 1004 l 902 1004 l 538 0 l 404 0 z "},"W":{"ha":1188,"x_min":1,"x_max":1186,"o":"m 260 0 l 1 1004 l 138 1004 l 344 211 l 533 1004 l 670 1004 l 849 222 l 1070 1004 l 1186 1004 l 905 0 l 763 0 l 586 774 l 401 0 l 260 0 z "},"X":{"ha":869,"x_min":11,"x_max":833,"o":"m 11 0 l 344 504 l 27 1004 l 195 1004 l 437 625 l 690 1004 l 825 1004 l 504 519 l 833 0 l 665 0 l 410 398 l 146 0 l 11 0 z "},"Y":{"ha":865,"x_min":12,"x_max":848,"o":"m 347 0 l 347 419 l 12 1004 l 174 1004 l 435 551 l 715 1004 l 848 1004 l 489 422 l 489 0 l 347 0 z "},"Z":{"ha":840,"x_min":64,"x_max":774,"o":"m 64 0 l 64 114 l 604 897 l 98 897 l 98 1004 l 774 1004 l 774 897 l 235 114 l 774 114 l 774 0 l 64 0 z "},"[":{"ha":452,"x_min":134,"x_max":401,"o":"m 134 -201 l 134 1071 l 401 1071 l 401 970 l 251 970 l 251 -100 l 401 -100 l 401 -201 l 134 -201 z "},"\\":{"ha":728,"x_min":131,"x_max":597,"o":"m 597 -201 l 236 1004 l 131 1004 l 492 -201 l 597 -201 z "},"]":{"ha":452,"x_min":50,"x_max":318,"o":"m 318 -201 l 318 1071 l 50 1071 l 50 970 l 201 970 l 201 -100 l 50 -100 l 50 -201 l 318 -201 z "},"^":{"ha":878,"x_min":71,"x_max":808,"o":"m 439 779 l 184 268 l 71 268 l 439 1004 l 808 268 l 695 268 l 439 779 z "},"_":{"ha":694,"x_min":58,"x_max":635,"o":"m 58 -100 l 58 0 l 635 0 l 635 -100 l 58 -100 z "},"`":{"ha":853,"x_min":268,"x_max":586,"o":"m 586 870 l 486 870 l 268 1088 l 422 1088 l 586 870 z "},"a":{"ha":767,"x_min":70,"x_max":733,"o":"m 513 94 q 282 -17 393 -17 q 130 40 191 -17 q 70 185 70 98 q 171 371 70 306 q 462 435 273 435 l 494 435 l 494 524 q 362 652 494 652 q 134 587 256 652 l 134 698 q 387 753 269 753 q 569 697 510 753 q 627 524 627 642 l 627 191 q 698 76 627 76 q 724 79 707 76 l 733 5 q 633 -17 688 -17 q 513 94 539 -17 m 494 166 l 494 357 l 449 358 q 271 316 339 358 q 203 207 203 275 q 237 125 203 159 q 320 92 271 92 q 494 166 404 92 z "},"b":{"ha":874,"x_min":134,"x_max":799,"o":"m 134 -8 l 134 1071 l 267 1071 l 267 598 q 513 753 349 753 q 723 656 646 753 q 799 391 799 559 q 712 95 799 208 q 485 -17 626 -17 q 267 83 354 -17 l 251 -8 l 134 -8 m 267 176 q 464 83 370 83 q 656 377 656 83 q 486 636 656 636 q 267 515 374 636 l 267 176 z "},"c":{"ha":711,"x_min":75,"x_max":645,"o":"m 421 -17 q 174 94 272 -17 q 75 372 75 204 q 173 652 75 552 q 444 753 270 753 q 637 729 530 753 l 637 617 q 452 650 524 650 q 288 573 350 650 q 226 368 226 496 q 290 168 226 244 q 456 91 353 91 q 645 138 548 91 l 645 22 q 421 -17 515 -17 z "},"d":{"ha":874,"x_min":75,"x_max":741,"o":"m 606 0 l 606 138 q 361 -17 525 -17 q 152 80 228 -17 q 75 345 75 177 q 162 641 75 529 q 389 753 248 753 q 606 652 520 753 l 606 1071 l 741 1071 l 741 0 l 606 0 m 606 561 q 410 652 503 652 q 218 359 218 652 q 389 100 218 100 q 606 222 500 100 l 606 561 z "},"e":{"ha":774,"x_min":75,"x_max":677,"o":"m 673 24 q 444 -17 539 -17 q 178 91 281 -17 q 75 372 75 199 q 166 646 75 539 q 397 753 256 753 q 604 659 531 753 q 677 389 677 564 l 676 347 l 212 347 q 469 85 241 85 q 673 130 552 85 l 673 24 m 218 448 l 543 448 q 389 653 543 653 q 218 448 235 653 z "},"f":{"ha":511,"x_min":54,"x_max":551,"o":"m 293 636 l 293 0 l 159 0 l 159 636 l 54 636 l 54 736 l 159 736 l 159 825 q 399 1088 159 1088 q 551 1065 466 1088 l 551 960 q 407 987 461 987 q 317 956 341 987 q 293 839 293 924 l 293 736 l 477 736 l 477 636 l 293 636 z "},"g":{"ha":866,"x_min":75,"x_max":741,"o":"m 136 -245 l 152 -129 q 380 -184 268 -184 q 606 56 606 -184 l 606 172 q 363 17 532 17 q 153 113 231 17 q 75 373 75 210 q 164 647 75 541 q 394 753 253 753 q 606 652 517 753 l 606 736 l 741 736 l 741 201 q 723 -55 741 28 q 655 -191 705 -138 q 383 -284 568 -284 q 136 -245 254 -284 m 606 255 l 606 561 q 414 652 518 652 q 270 578 322 652 q 218 376 218 505 q 388 134 218 134 q 606 255 504 134 z "},"h":{"ha":862,"x_min":134,"x_max":736,"o":"m 134 0 l 134 1071 l 267 1071 l 267 598 q 526 753 373 753 q 679 692 622 753 q 736 529 736 631 l 736 0 l 602 0 l 602 486 q 578 603 602 568 q 498 637 554 637 q 267 477 376 637 l 267 0 l 134 0 z "},"i":{"ha":401,"x_min":134,"x_max":267,"o":"m 134 0 l 134 736 l 267 736 l 267 0 l 134 0 m 134 870 l 134 1004 l 267 1004 l 267 870 l 134 870 z "},"j":{"ha":422,"x_min":-104,"x_max":289,"o":"m -104 -250 l -104 -144 q 38 -184 -11 -184 q 132 -147 109 -184 q 155 0 155 -111 l 155 736 l 289 736 l 289 0 q 49 -284 289 -284 q -104 -250 -22 -284 m 155 870 l 155 1004 l 289 1004 l 289 870 l 155 870 z "},"k":{"ha":812,"x_min":134,"x_max":785,"o":"m 134 0 l 134 1071 l 267 1071 l 267 379 l 579 736 l 723 736 l 425 393 l 785 0 l 614 0 l 267 378 l 267 0 l 134 0 z "},"l":{"ha":401,"x_min":134,"x_max":267,"o":"m 134 0 l 134 1071 l 267 1071 l 267 0 l 134 0 z "},"m":{"ha":1297,"x_min":134,"x_max":1171,"o":"m 134 0 l 134 736 l 267 736 l 267 598 q 518 753 365 753 q 720 598 666 753 q 966 753 814 753 q 1118 696 1064 753 q 1171 536 1171 639 l 1171 0 l 1037 0 l 1037 515 q 937 641 1037 641 q 720 494 833 641 l 720 0 l 585 0 l 585 515 q 484 642 585 642 q 267 494 382 642 l 267 0 l 134 0 z "},"n":{"ha":862,"x_min":134,"x_max":736,"o":"m 134 0 l 134 736 l 267 736 l 267 598 q 526 753 373 753 q 679 692 622 753 q 736 529 736 631 l 736 0 l 602 0 l 602 486 q 578 603 602 568 q 498 637 554 637 q 267 477 376 637 l 267 0 l 134 0 z "},"o":{"ha":853,"x_min":75,"x_max":778,"o":"m 422 -17 q 170 88 264 -17 q 75 368 75 193 q 170 649 75 546 q 427 753 264 753 q 683 649 589 753 q 778 370 778 546 q 683 86 778 189 q 422 -17 588 -17 m 424 83 q 636 370 636 83 q 427 652 636 652 q 218 368 218 652 q 424 83 218 83 z "},"p":{"ha":874,"x_min":134,"x_max":799,"o":"m 134 -268 l 134 736 l 267 736 l 267 598 q 513 753 349 753 q 723 656 646 753 q 799 391 799 559 q 712 95 799 208 q 485 -17 626 -17 q 267 83 354 -17 l 267 -268 l 134 -268 m 267 176 q 464 83 370 83 q 656 377 656 83 q 486 636 656 636 q 267 515 374 636 l 267 176 z "},"q":{"ha":874,"x_min":75,"x_max":741,"o":"m 606 -268 l 606 138 q 361 -17 525 -17 q 152 80 228 -17 q 75 345 75 177 q 162 641 75 529 q 389 753 248 753 q 606 652 520 753 l 606 736 l 741 736 l 741 -268 l 606 -268 m 606 561 q 410 652 503 652 q 218 359 218 652 q 389 100 218 100 q 606 222 500 100 l 606 561 z "},"r":{"ha":568,"x_min":134,"x_max":541,"o":"m 134 0 l 134 736 l 267 736 l 267 598 q 498 753 347 753 q 541 749 518 753 l 541 625 q 479 636 506 636 q 267 486 353 636 l 267 0 l 134 0 z "},"s":{"ha":708,"x_min":106,"x_max":602,"o":"m 329 -17 q 106 26 237 -17 l 106 149 q 334 83 237 83 q 430 115 392 83 q 468 193 468 146 q 361 306 468 261 l 283 339 q 111 546 111 411 q 179 697 111 642 q 366 753 247 753 q 518 736 427 753 l 546 730 l 546 619 q 368 652 434 652 q 239 559 239 652 q 337 457 239 498 l 401 430 q 556 333 511 384 q 602 205 602 281 q 525 45 602 108 q 329 -17 448 -17 z "},"t":{"ha":519,"x_min":47,"x_max":465,"o":"m 355 -17 q 196 41 253 -17 q 139 203 139 100 l 139 636 l 47 636 l 47 736 l 139 736 l 139 870 l 273 883 l 273 736 l 465 736 l 465 636 l 273 636 l 273 228 q 397 83 273 83 q 462 92 424 83 l 462 0 q 355 -17 400 -17 z "},"u":{"ha":862,"x_min":125,"x_max":728,"o":"m 594 0 l 594 138 q 336 -17 488 -17 q 182 44 239 -17 q 125 208 125 104 l 125 736 l 259 736 l 259 251 q 283 133 259 168 q 363 98 307 98 q 594 259 486 98 l 594 736 l 728 736 l 728 0 l 594 0 z "},"v":{"ha":719,"x_min":12,"x_max":711,"o":"m 286 0 l 12 736 l 146 736 l 360 163 l 586 736 l 711 736 l 420 0 l 286 0 z "},"w":{"ha":1070,"x_min":8,"x_max":1061,"o":"m 219 0 l 8 736 l 139 736 l 300 166 l 475 736 l 608 736 l 761 166 l 946 736 l 1061 736 l 821 0 l 686 0 l 530 570 l 354 0 l 219 0 z "},"x":{"ha":852,"x_min":60,"x_max":789,"o":"m 60 0 l 340 380 l 68 736 l 227 736 l 441 453 l 636 736 l 766 736 l 511 363 l 789 0 l 630 0 l 408 292 l 194 0 l 60 0 z "},"y":{"ha":726,"x_min":11,"x_max":718,"o":"m 176 -268 l 296 0 l 11 736 l 155 736 l 366 182 l 591 736 l 718 736 l 315 -268 l 176 -268 z "},"z":{"ha":796,"x_min":83,"x_max":713,"o":"m 83 0 l 83 100 l 539 636 l 104 636 l 104 736 l 704 736 l 704 636 l 248 100 l 713 100 l 713 0 l 83 0 z "},"{":{"ha":452,"x_min":17,"x_max":360,"o":"m 17 486 l 50 486 q 153 595 153 486 q 143 690 153 641 l 130 749 q 117 863 117 807 q 182 1008 117 953 q 360 1071 247 1064 l 360 970 l 341 970 q 264 946 295 970 q 234 886 234 922 q 243 822 234 870 l 254 753 q 262 646 262 708 q 162 435 262 519 q 262 223 262 351 q 254 117 262 162 l 243 48 q 234 -17 234 0 q 265 -76 234 -52 q 341 -100 296 -100 l 360 -100 l 360 -201 q 182 -138 246 -194 q 117 8 117 -82 q 130 121 117 64 l 143 180 q 153 277 153 229 q 50 385 153 385 l 17 385 l 17 486 z "},"|":{"ha":519,"x_min":209,"x_max":309,"o":"m 209 -201 l 209 1071 l 309 1071 l 309 -201 l 209 -201 z "},"}":{"ha":452,"x_min":92,"x_max":435,"o":"m 435 486 l 402 486 q 299 595 299 486 q 309 690 299 641 l 322 749 q 335 863 335 807 q 270 1008 335 953 q 92 1071 205 1064 l 92 970 l 111 970 q 188 946 157 970 q 218 886 218 922 q 210 822 218 870 l 198 753 q 191 646 191 708 q 290 435 191 519 q 191 223 191 351 q 198 117 191 162 l 210 48 q 218 -17 218 0 q 188 -76 218 -52 q 111 -100 157 -100 l 92 -100 l 92 -201 q 271 -138 206 -194 q 335 8 335 -82 q 322 121 335 64 l 309 180 q 299 277 299 229 q 402 385 299 385 l 435 385 l 435 486 z "},"~":{"ha":878,"x_min":71,"x_max":808,"o":"m 71 301 q 123 462 71 399 q 258 524 176 524 q 404 476 313 524 l 477 438 l 564 391 q 625 376 594 376 q 707 502 707 376 l 808 502 q 625 276 793 276 q 461 330 567 276 l 385 370 l 304 412 q 256 424 280 424 q 172 301 172 424 l 71 301 z "},"Ä":{"ha":958,"x_min":12,"x_max":943,"o":"m 638 384 l 467 817 l 296 384 l 638 384 m 789 0 l 680 278 l 254 278 l 144 0 l 12 0 l 410 1004 l 551 1004 l 943 0 l 789 0 m 285 1088 l 285 1205 l 402 1205 l 402 1088 l 285 1088 m 553 1088 l 553 1205 l 670 1205 l 670 1088 l 553 1088 z "},"Å":{"ha":958,"x_min":12,"x_max":943,"o":"m 638 384 l 467 817 l 296 384 l 638 384 m 789 0 l 680 278 l 254 278 l 144 0 l 12 0 l 410 1004 l 551 1004 l 943 0 l 789 0 m 478 1004 q 371 1049 415 1004 q 326 1158 326 1095 q 371 1267 326 1222 q 480 1312 416 1312 q 589 1267 544 1312 q 634 1158 634 1223 q 589 1049 634 1093 q 478 1004 544 1004 m 479 1063 q 548 1090 519 1063 q 576 1159 576 1118 q 548 1226 576 1198 q 480 1254 519 1254 q 412 1226 440 1254 q 385 1158 385 1198 q 412 1091 385 1119 q 479 1063 440 1063 z "},"Ç":{"ha":961,"x_min":71,"x_max":884,"o":"m 559 -25 q 198 112 326 -25 q 71 501 71 250 q 200 890 71 752 q 566 1029 330 1029 q 882 985 701 1029 l 882 851 q 564 922 676 922 q 311 812 401 922 q 222 500 222 701 q 317 197 222 308 q 578 86 413 86 q 884 174 721 86 l 884 52 q 559 -25 735 -25 m 522 0 l 588 0 l 547 -74 q 640 -106 600 -74 q 679 -182 679 -138 q 639 -261 679 -229 q 543 -293 600 -293 q 444 -279 494 -293 l 444 -224 q 515 -234 475 -234 q 567 -221 549 -234 q 585 -184 585 -209 q 553 -135 585 -151 q 458 -119 521 -119 l 522 0 z "},"É":{"ha":753,"x_min":130,"x_max":720,"o":"m 130 0 l 130 1004 l 690 1004 l 690 897 l 272 897 l 272 575 l 623 575 l 623 470 l 272 470 l 272 106 l 720 106 l 720 0 l 130 0 m 309 1088 l 473 1305 l 627 1305 l 410 1088 l 309 1088 z "},"Ñ":{"ha":1026,"x_min":130,"x_max":897,"o":"m 130 0 l 130 1004 l 269 1004 l 774 229 l 774 1004 l 897 1004 l 897 0 l 758 0 l 252 775 l 252 0 l 130 0 m 304 1088 q 339 1207 307 1167 q 429 1246 370 1246 q 521 1221 479 1246 l 562 1196 q 620 1172 600 1172 q 656 1191 643 1172 q 672 1246 669 1209 l 755 1246 q 720 1127 751 1167 q 630 1088 689 1088 q 538 1114 581 1088 l 498 1139 q 439 1162 460 1162 q 403 1144 416 1162 q 387 1088 390 1125 l 304 1088 z "},"Ö":{"ha":1079,"x_min":71,"x_max":1009,"o":"m 534 -25 q 198 120 325 -25 q 71 503 71 264 q 198 885 71 742 q 540 1029 326 1029 q 881 886 753 1029 q 1009 504 1009 743 q 881 118 1009 260 q 534 -25 753 -25 m 536 81 q 774 192 690 81 q 858 505 858 303 q 773 812 858 701 q 540 922 689 922 q 306 811 390 922 q 222 503 222 701 q 305 194 222 307 q 536 81 389 81 m 347 1088 l 347 1205 l 465 1205 l 465 1088 l 347 1088 m 615 1088 l 615 1205 l 732 1205 l 732 1088 l 615 1088 z "},"Ü":{"ha":962,"x_min":121,"x_max":842,"o":"m 121 1004 l 264 1004 l 264 370 q 320 150 264 219 q 498 81 376 81 q 667 146 617 81 q 717 366 717 211 l 717 1004 l 842 1004 l 842 368 q 757 68 842 162 q 488 -25 673 -25 q 211 72 300 -25 q 121 372 121 169 l 121 1004 m 289 1088 l 289 1205 l 406 1205 l 406 1088 l 289 1088 m 557 1088 l 557 1205 l 674 1205 l 674 1088 l 557 1088 z "},"á":{"ha":767,"x_min":70,"x_max":733,"o":"m 513 94 q 282 -17 393 -17 q 130 40 191 -17 q 70 185 70 98 q 171 371 70 306 q 462 435 273 435 l 494 435 l 494 524 q 362 652 494 652 q 134 587 256 652 l 134 698 q 387 753 269 753 q 569 697 510 753 q 627 524 627 642 l 627 191 q 698 76 627 76 q 724 79 707 76 l 733 5 q 633 -17 688 -17 q 513 94 539 -17 m 494 166 l 494 357 l 449 358 q 271 316 339 358 q 203 207 203 275 q 237 125 203 159 q 320 92 271 92 q 494 166 404 92 m 289 870 l 452 1088 l 607 1088 l 389 870 l 289 870 z "},"à":{"ha":767,"x_min":70,"x_max":733,"o":"m 513 94 q 282 -17 393 -17 q 130 40 191 -17 q 70 185 70 98 q 171 371 70 306 q 462 435 273 435 l 494 435 l 494 524 q 362 652 494 652 q 134 587 256 652 l 134 698 q 387 753 269 753 q 569 697 510 753 q 627 524 627 642 l 627 191 q 698 76 627 76 q 724 79 707 76 l 733 5 q 633 -17 688 -17 q 513 94 539 -17 m 494 166 l 494 357 l 449 358 q 271 316 339 358 q 203 207 203 275 q 237 125 203 159 q 320 92 271 92 q 494 166 404 92 m 490 870 l 390 870 l 172 1088 l 327 1088 l 490 870 z "},"â":{"ha":767,"x_min":70,"x_max":733,"o":"m 513 94 q 282 -17 393 -17 q 130 40 191 -17 q 70 185 70 98 q 171 371 70 306 q 462 435 273 435 l 494 435 l 494 524 q 362 652 494 652 q 134 587 256 652 l 134 698 q 387 753 269 753 q 569 697 510 753 q 627 524 627 642 l 627 191 q 698 76 627 76 q 724 79 707 76 l 733 5 q 633 -17 688 -17 q 513 94 539 -17 m 494 166 l 494 357 l 449 358 q 271 316 339 358 q 203 207 203 275 q 237 125 203 159 q 320 92 271 92 q 494 166 404 92 m 149 870 l 313 1088 l 460 1088 l 624 870 l 524 870 l 387 1007 l 386 1007 l 250 870 l 149 870 z "},"ä":{"ha":767,"x_min":70,"x_max":733,"o":"m 513 94 q 282 -17 393 -17 q 130 40 191 -17 q 70 185 70 98 q 171 371 70 306 q 462 435 273 435 l 494 435 l 494 524 q 362 652 494 652 q 134 587 256 652 l 134 698 q 387 753 269 753 q 569 697 510 753 q 627 524 627 642 l 627 191 q 698 76 627 76 q 724 79 707 76 l 733 5 q 633 -17 688 -17 q 513 94 539 -17 m 494 166 l 494 357 l 449 358 q 271 316 339 358 q 203 207 203 275 q 237 125 203 159 q 320 92 271 92 q 494 166 404 92 m 193 870 l 193 987 l 310 987 l 310 870 l 193 870 m 460 870 l 460 987 l 578 987 l 578 870 l 460 870 z "},"ã":{"ha":767,"x_min":70,"x_max":733,"o":"m 513 94 q 282 -17 393 -17 q 130 40 191 -17 q 70 185 70 98 q 171 371 70 306 q 462 435 273 435 l 494 435 l 494 524 q 362 652 494 652 q 134 587 256 652 l 134 698 q 387 753 269 753 q 569 697 510 753 q 627 524 627 642 l 627 191 q 698 76 627 76 q 724 79 707 76 l 733 5 q 633 -17 688 -17 q 513 94 539 -17 m 494 166 l 494 357 l 449 358 q 271 316 339 358 q 203 207 203 275 q 237 125 203 159 q 320 92 271 92 q 494 166 404 92 m 159 870 q 194 989 162 949 q 284 1029 225 1029 q 376 1003 334 1029 l 416 978 q 475 954 454 954 q 511 973 498 954 q 527 1029 524 991 l 610 1029 q 575 910 606 949 q 485 870 544 870 q 393 897 435 870 l 353 922 q 294 945 315 945 q 258 926 271 945 q 242 870 245 907 l 159 870 z "},"å":{"ha":767,"x_min":70,"x_max":733,"o":"m 513 94 q 282 -17 393 -17 q 130 40 191 -17 q 70 185 70 98 q 171 371 70 306 q 462 435 273 435 l 494 435 l 494 524 q 362 652 494 652 q 134 587 256 652 l 134 698 q 387 753 269 753 q 569 697 510 753 q 627 524 627 642 l 627 191 q 698 76 627 76 q 724 79 707 76 l 733 5 q 633 -17 688 -17 q 513 94 539 -17 m 494 166 l 494 357 l 449 358 q 271 316 339 358 q 203 207 203 275 q 237 125 203 159 q 320 92 271 92 q 494 166 404 92 m 383 870 q 276 915 320 870 q 231 1024 231 960 q 276 1133 231 1088 q 385 1178 321 1178 q 494 1133 449 1178 q 539 1024 539 1088 q 494 915 539 959 q 383 870 449 870 m 384 928 q 453 956 425 928 q 481 1025 481 984 q 453 1092 481 1064 q 385 1120 425 1120 q 317 1092 345 1120 q 290 1024 290 1064 q 317 957 290 985 q 384 928 345 928 z "},"ç":{"ha":711,"x_min":75,"x_max":645,"o":"m 421 -17 q 174 94 272 -17 q 75 372 75 204 q 173 652 75 552 q 444 753 270 753 q 637 729 530 753 l 637 617 q 452 650 524 650 q 288 573 350 650 q 226 368 226 496 q 290 168 226 244 q 456 91 353 91 q 645 138 548 91 l 645 22 q 421 -17 515 -17 m 402 0 l 468 0 l 427 -74 q 519 -106 480 -74 q 559 -182 559 -138 q 519 -261 559 -229 q 422 -293 479 -293 q 323 -279 374 -293 l 323 -224 q 395 -234 355 -234 q 447 -221 429 -234 q 465 -184 465 -209 q 433 -135 465 -151 q 338 -119 401 -119 l 402 0 z "},"é":{"ha":774,"x_min":75,"x_max":677,"o":"m 673 24 q 444 -17 539 -17 q 178 91 281 -17 q 75 372 75 199 q 166 646 75 539 q 397 753 256 753 q 604 659 531 753 q 677 389 677 564 l 676 347 l 212 347 q 469 85 241 85 q 673 130 552 85 l 673 24 m 218 448 l 543 448 q 389 653 543 653 q 218 448 235 653 m 286 870 l 449 1088 l 604 1088 l 386 870 l 286 870 z "},"è":{"ha":774,"x_min":75,"x_max":677,"o":"m 673 24 q 444 -17 539 -17 q 178 91 281 -17 q 75 372 75 199 q 166 646 75 539 q 397 753 256 753 q 604 659 531 753 q 677 389 677 564 l 676 347 l 212 347 q 469 85 241 85 q 673 130 552 85 l 673 24 m 218 448 l 543 448 q 389 653 543 653 q 218 448 235 653 m 486 870 l 386 870 l 168 1088 l 323 1088 l 486 870 z "},"ê":{"ha":774,"x_min":75,"x_max":677,"o":"m 673 24 q 444 -17 539 -17 q 178 91 281 -17 q 75 372 75 199 q 166 646 75 539 q 397 753 256 753 q 604 659 531 753 q 677 389 677 564 l 676 347 l 212 347 q 469 85 241 85 q 673 130 552 85 l 673 24 m 218 448 l 543 448 q 389 653 543 653 q 218 448 235 653 m 159 870 l 323 1088 l 471 1088 l 634 870 l 534 870 l 397 1007 l 396 1007 l 260 870 l 159 870 z "},"ë":{"ha":774,"x_min":75,"x_max":677,"o":"m 673 24 q 444 -17 539 -17 q 178 91 281 -17 q 75 372 75 199 q 166 646 75 539 q 397 753 256 753 q 604 659 531 753 q 677 389 677 564 l 676 347 l 212 347 q 469 85 241 85 q 673 130 552 85 l 673 24 m 218 448 l 543 448 q 389 653 543 653 q 218 448 235 653 m 209 870 l 209 987 l 326 987 l 326 870 l 209 870 m 477 870 l 477 987 l 594 987 l 594 870 l 477 870 z "},"í":{"ha":401,"x_min":100,"x_max":418,"o":"m 134 0 l 134 736 l 267 736 l 267 0 l 134 0 m 100 870 l 264 1088 l 418 1088 l 201 870 l 100 870 z "},"ì":{"ha":401,"x_min":-17,"x_max":301,"o":"m 134 0 l 134 736 l 267 736 l 267 0 l 134 0 m 301 870 l 201 870 l -17 1088 l 138 1088 l 301 870 z "},"î":{"ha":401,"x_min":-37,"x_max":438,"o":"m 134 0 l 134 736 l 267 736 l 267 0 l 134 0 m -37 870 l 127 1088 l 275 1088 l 438 870 l 338 870 l 201 1007 l 200 1007 l 64 870 l -37 870 z "},"ï":{"ha":401,"x_min":8,"x_max":393,"o":"m 134 0 l 134 736 l 267 736 l 267 0 l 134 0 m 8 870 l 8 987 l 125 987 l 125 870 l 8 870 m 276 870 l 276 987 l 393 987 l 393 870 l 276 870 z "},"ñ":{"ha":862,"x_min":134,"x_max":736,"o":"m 134 0 l 134 736 l 267 736 l 267 598 q 526 753 373 753 q 679 692 622 753 q 736 529 736 631 l 736 0 l 602 0 l 602 486 q 578 603 602 568 q 498 637 554 637 q 267 477 376 637 l 267 0 l 134 0 m 226 870 q 261 989 229 949 q 351 1029 292 1029 q 443 1003 401 1029 l 484 978 q 542 954 522 954 q 578 973 565 954 q 594 1029 591 991 l 677 1029 q 642 910 673 949 q 552 870 611 870 q 460 897 503 870 l 420 922 q 361 945 382 945 q 325 926 338 945 q 309 870 312 907 l 226 870 z "},"ó":{"ha":853,"x_min":75,"x_max":778,"o":"m 422 -17 q 170 88 264 -17 q 75 368 75 193 q 170 649 75 546 q 427 753 264 753 q 683 649 589 753 q 778 370 778 546 q 683 86 778 189 q 422 -17 588 -17 m 424 83 q 636 370 636 83 q 427 652 636 652 q 218 368 218 652 q 424 83 218 83 m 326 870 l 490 1088 l 644 1088 l 427 870 l 326 870 z "},"ò":{"ha":853,"x_min":75,"x_max":778,"o":"m 422 -17 q 170 88 264 -17 q 75 368 75 193 q 170 649 75 546 q 427 753 264 753 q 683 649 589 753 q 778 370 778 546 q 683 86 778 189 q 422 -17 588 -17 m 424 83 q 636 370 636 83 q 427 652 636 652 q 218 368 218 652 q 424 83 218 83 m 527 870 l 427 870 l 209 1088 l 363 1088 l 527 870 z "},"ô":{"ha":853,"x_min":75,"x_max":778,"o":"m 422 -17 q 170 88 264 -17 q 75 368 75 193 q 170 649 75 546 q 427 753 264 753 q 683 649 589 753 q 778 370 778 546 q 683 86 778 189 q 422 -17 588 -17 m 424 83 q 636 370 636 83 q 427 652 636 652 q 218 368 218 652 q 424 83 218 83 m 189 870 l 353 1088 l 500 1088 l 664 870 l 564 870 l 427 1007 l 426 1007 l 290 870 l 189 870 z "},"ö":{"ha":853,"x_min":75,"x_max":778,"o":"m 422 -17 q 170 88 264 -17 q 75 368 75 193 q 170 649 75 546 q 427 753 264 753 q 683 649 589 753 q 778 370 778 546 q 683 86 778 189 q 422 -17 588 -17 m 424 83 q 636 370 636 83 q 427 652 636 652 q 218 368 218 652 q 424 83 218 83 m 234 870 l 234 987 l 351 987 l 351 870 l 234 870 m 502 870 l 502 987 l 619 987 l 619 870 l 502 870 z "},"õ":{"ha":853,"x_min":75,"x_max":778,"o":"m 422 -17 q 170 88 264 -17 q 75 368 75 193 q 170 649 75 546 q 427 753 264 753 q 683 649 589 753 q 778 370 778 546 q 683 86 778 189 q 422 -17 588 -17 m 424 83 q 636 370 636 83 q 427 652 636 652 q 218 368 218 652 q 424 83 218 83 m 201 870 q 236 989 204 949 q 326 1029 267 1029 q 418 1003 376 1029 l 458 978 q 517 954 496 954 q 553 973 540 954 q 569 1029 566 991 l 652 1029 q 617 910 648 949 q 527 870 586 870 q 435 897 477 870 l 395 922 q 336 945 357 945 q 300 926 313 945 q 284 870 287 907 l 201 870 z "},"ú":{"ha":862,"x_min":125,"x_max":728,"o":"m 594 0 l 594 138 q 336 -17 488 -17 q 182 44 239 -17 q 125 208 125 104 l 125 736 l 259 736 l 259 251 q 283 133 259 168 q 363 98 307 98 q 594 259 486 98 l 594 736 l 728 736 l 728 0 l 594 0 m 326 870 l 490 1088 l 644 1088 l 427 870 l 326 870 z "},"ù":{"ha":862,"x_min":125,"x_max":728,"o":"m 594 0 l 594 138 q 336 -17 488 -17 q 182 44 239 -17 q 125 208 125 104 l 125 736 l 259 736 l 259 251 q 283 133 259 168 q 363 98 307 98 q 594 259 486 98 l 594 736 l 728 736 l 728 0 l 594 0 m 527 870 l 427 870 l 209 1088 l 363 1088 l 527 870 z "},"û":{"ha":862,"x_min":125,"x_max":728,"o":"m 594 0 l 594 138 q 336 -17 488 -17 q 182 44 239 -17 q 125 208 125 104 l 125 736 l 259 736 l 259 251 q 283 133 259 168 q 363 98 307 98 q 594 259 486 98 l 594 736 l 728 736 l 728 0 l 594 0 m 189 870 l 353 1088 l 500 1088 l 664 870 l 564 870 l 427 1007 l 426 1007 l 290 870 l 189 870 z "},"ü":{"ha":862,"x_min":125,"x_max":728,"o":"m 594 0 l 594 138 q 336 -17 488 -17 q 182 44 239 -17 q 125 208 125 104 l 125 736 l 259 736 l 259 251 q 283 133 259 168 q 363 98 307 98 q 594 259 486 98 l 594 736 l 728 736 l 728 0 l 594 0 m 234 870 l 234 987 l 351 987 l 351 870 l 234 870 m 502 870 l 502 987 l 619 987 l 619 870 l 502 870 z "},"†":{"ha":878,"x_min":155,"x_max":724,"o":"m 372 -201 l 389 569 l 155 552 l 155 652 l 389 636 l 372 1004 l 506 1004 l 489 636 l 724 652 l 724 552 l 489 569 l 506 -201 l 372 -201 z "},"°":{"ha":602,"x_min":100,"x_max":502,"o":"m 299 686 q 159 746 218 686 q 100 887 100 805 q 159 1029 100 970 q 301 1088 218 1088 q 443 1029 384 1088 q 502 887 502 970 q 443 745 502 803 q 299 686 384 686 m 300 770 q 384 804 349 770 q 418 887 418 838 q 384 969 418 935 q 301 1004 349 1004 q 218 969 253 1004 q 184 887 184 935 q 218 804 184 839 q 300 770 252 770 z "},"¢":{"ha":878,"x_min":139,"x_max":709,"o":"m 450 0 l 450 117 q 225 237 312 131 q 139 500 139 344 q 220 760 139 661 q 450 878 302 859 l 450 1004 l 517 1004 l 517 878 q 709 847 607 874 l 709 734 q 517 782 589 775 l 517 212 q 709 258 609 212 l 709 157 q 517 117 608 117 l 517 0 l 450 0 m 450 220 l 450 776 q 327 698 368 768 q 286 496 286 628 q 327 315 286 385 q 450 220 368 246 z "},"£":{"ha":878,"x_min":168,"x_max":741,"o":"m 168 0 l 168 117 q 274 193 239 140 q 310 332 310 247 l 310 486 l 189 486 l 189 586 l 310 586 l 310 732 q 379 952 310 876 q 576 1029 448 1029 q 730 1008 647 1029 l 730 895 q 568 928 646 928 q 475 889 506 928 q 444 772 444 850 l 444 586 l 590 586 l 590 486 l 444 486 l 444 399 q 419 233 444 292 q 326 117 395 174 l 741 117 l 741 0 l 168 0 z "},"§":{"ha":878,"x_min":150,"x_max":747,"o":"m 150 -176 l 150 -54 q 427 -125 314 -125 q 571 -92 516 -125 q 625 -3 625 -58 q 596 68 625 42 q 469 137 567 95 l 349 188 q 202 287 251 230 q 153 416 153 344 q 252 618 153 518 q 157 782 157 682 q 244 961 157 893 q 475 1029 332 1029 q 709 997 577 1029 l 709 888 q 475 928 572 928 q 332 894 387 928 q 278 803 278 859 q 308 736 278 766 q 397 682 337 706 l 489 645 q 683 535 629 589 q 737 397 737 481 q 636 188 737 300 q 747 6 747 123 q 657 -163 747 -100 q 413 -227 566 -227 q 150 -176 309 -227 m 570 231 q 620 363 620 298 q 588 443 620 412 q 471 511 555 475 l 320 574 q 270 448 270 513 q 309 364 270 403 q 425 292 347 325 l 570 231 z "},"•":{"ha":845,"x_min":121,"x_max":724,"o":"m 418 151 q 209 240 297 151 q 121 452 121 329 q 210 665 121 576 q 422 753 298 753 q 636 664 548 753 q 724 450 724 576 q 634 238 724 325 q 418 151 545 151 z "},"¶":{"ha":878,"x_min":146,"x_max":699,"o":"m 431 -201 l 431 502 q 222 586 297 511 q 146 783 146 660 q 212 953 146 903 q 431 1004 277 1004 l 699 1004 l 699 -201 l 615 -201 l 615 920 l 515 920 l 515 -201 l 431 -201 z "},"ß":{"ha":831,"x_min":134,"x_max":789,"o":"m 134 0 l 134 781 q 191 1018 134 949 q 385 1088 248 1088 q 562 1039 495 1088 q 629 909 629 989 q 541 709 629 826 q 488 612 488 640 q 563 508 488 572 l 672 416 q 789 203 789 317 q 726 42 789 101 q 552 -17 662 -17 q 362 22 458 -17 l 362 137 q 554 83 486 83 q 633 113 604 83 q 663 191 663 142 q 585 315 663 249 l 456 427 q 371 575 371 500 q 439 736 371 632 q 495 884 495 823 q 466 962 495 936 q 380 987 437 987 q 295 950 323 987 q 267 837 267 912 l 267 0 l 134 0 z "},"®":{"ha":878,"x_min":138,"x_max":741,"o":"m 436 427 q 226 515 314 427 q 138 728 138 604 q 227 941 138 853 q 439 1029 315 1029 q 652 941 564 1029 q 741 728 741 853 q 652 514 741 602 q 436 427 564 427 m 437 494 q 605 563 535 494 q 674 728 674 631 q 605 893 674 824 q 439 962 535 962 q 275 893 344 962 q 205 728 205 824 q 274 563 205 633 q 437 494 343 494 m 318 544 l 318 903 l 422 903 q 561 810 561 903 q 487 705 561 744 l 571 544 l 494 544 l 418 690 l 385 690 l 385 544 l 318 544 m 385 741 l 414 741 q 486 803 486 741 q 417 854 486 854 l 385 854 l 385 741 z "},"©":{"ha":1188,"x_min":67,"x_max":1121,"o":"m 588 -25 q 221 131 374 -25 q 67 502 67 286 q 222 874 67 720 q 594 1029 376 1029 q 966 874 812 1029 q 1121 503 1121 720 q 966 129 1121 282 q 588 -25 811 -25 m 588 50 q 939 212 809 50 q 1046 503 1046 345 q 913 821 1046 689 q 594 954 781 954 q 275 821 408 954 q 142 502 142 688 q 274 184 142 317 q 588 50 406 50 m 787 234 q 614 201 691 201 q 404 284 486 201 q 322 498 322 368 q 402 717 322 635 q 614 799 481 799 q 769 781 678 799 l 787 778 l 787 694 q 621 732 694 732 q 477 669 532 732 q 422 500 422 605 q 479 336 422 397 q 633 276 536 276 q 787 318 710 276 l 787 234 z "},"™":{"ha":1121,"x_min":33,"x_max":1086,"o":"m 213 502 l 213 935 l 33 935 l 33 1004 l 498 1004 l 498 935 l 317 935 l 317 502 l 213 502 m 581 502 l 581 1004 l 720 1004 l 840 651 l 841 651 l 965 1004 l 1086 1004 l 1086 502 l 990 502 l 990 881 l 989 881 l 867 536 l 783 536 l 665 886 l 663 886 l 663 502 l 581 502 z "},"´":{"ha":853,"x_min":268,"x_max":586,"o":"m 268 870 l 431 1088 l 586 1088 l 368 870 l 268 870 z "},"¨":{"ha":853,"x_min":234,"x_max":619,"o":"m 234 870 l 234 987 l 351 987 l 351 870 l 234 870 m 502 870 l 502 987 l 619 987 l 619 870 l 502 870 z "},"≠":{"ha":1105,"x_min":151,"x_max":954,"o":"m 451 226 l 151 226 l 151 326 l 484 326 l 534 477 l 151 477 l 151 577 l 568 577 l 632 770 l 729 770 l 665 577 l 954 577 l 954 477 l 631 477 l 581 326 l 954 326 l 954 226 l 548 226 l 484 33 l 387 33 l 451 226 z "},"Æ":{"ha":1259,"x_min":12,"x_max":1226,"o":"m 12 0 l 596 1004 l 1195 1004 l 1195 897 l 776 897 l 776 575 l 1127 575 l 1127 470 l 776 470 l 776 106 l 1226 106 l 1226 0 l 633 0 l 633 281 l 306 281 l 142 0 l 12 0 m 366 386 l 633 386 l 633 841 l 366 386 z "},"Ø":{"ha":1079,"x_min":71,"x_max":1009,"o":"m 744 846 q 539 922 663 922 q 306 811 390 922 q 222 503 222 701 q 278 237 222 345 l 744 846 m 336 159 q 541 81 416 81 q 774 193 690 81 q 858 501 858 304 q 802 768 858 661 l 336 159 m 78 -25 l 193 125 q 71 503 71 272 q 198 885 71 742 q 539 1029 326 1029 q 819 943 700 1029 l 885 1029 l 1002 1029 l 887 880 q 1009 500 1009 733 q 881 119 1009 262 q 542 -25 753 -25 q 260 60 376 -25 l 195 -25 l 78 -25 z "},"∞":{"ha":1305,"x_min":151,"x_max":1155,"o":"m 670 488 q 783 647 722 594 q 916 700 844 700 q 1085 616 1016 700 q 1155 412 1155 532 q 1080 188 1155 282 q 901 93 1004 93 q 772 148 838 93 q 635 312 705 202 q 522 153 583 206 q 390 100 460 100 q 220 184 290 100 q 151 388 151 268 q 226 613 151 518 q 405 707 301 707 q 533 652 467 707 q 670 488 600 597 m 592 371 l 576 393 q 460 534 498 499 q 385 569 422 569 q 292 513 330 569 q 254 376 254 456 q 296 248 254 299 q 401 197 338 197 q 496 240 448 197 q 592 371 544 283 m 713 429 l 730 408 q 842 275 794 319 q 921 231 890 231 q 1014 288 976 231 q 1052 425 1052 344 q 1010 552 1052 501 q 905 604 968 604 q 809 560 857 604 q 713 429 761 516 z "},"±":{"ha":1104,"x_min":151,"x_max":954,"o":"m 151 0 l 151 100 l 954 100 l 954 0 l 151 0 m 502 201 l 502 452 l 151 452 l 151 552 l 502 552 l 502 803 l 602 803 l 602 552 l 954 552 l 954 452 l 602 452 l 602 201 l 502 201 z "},"≤":{"ha":1105,"x_min":151,"x_max":954,"o":"m 151 0 l 151 100 l 954 100 l 954 0 l 151 0 m 954 161 l 151 482 l 954 803 l 954 695 l 422 483 l 422 481 l 954 269 l 954 161 z "},"≥":{"ha":1105,"x_min":151,"x_max":954,"o":"m 954 0 l 954 100 l 151 100 l 151 0 l 954 0 m 151 161 l 954 482 l 151 803 l 151 695 l 682 483 l 682 481 l 151 269 l 151 161 z "},"¥":{"ha":878,"x_min":54,"x_max":841,"o":"m 368 0 l 368 234 l 168 234 l 168 318 l 368 318 l 368 418 l 168 418 l 168 502 l 368 502 l 54 1004 l 212 1004 l 456 614 l 720 1004 l 841 1004 l 502 502 l 703 502 l 703 418 l 502 418 l 502 318 l 703 318 l 703 234 l 502 234 l 502 0 l 368 0 z "},"µ":{"ha":870,"x_min":134,"x_max":736,"o":"m 134 -268 l 134 736 l 267 736 l 267 251 q 298 144 267 180 q 391 109 329 109 q 602 259 503 109 l 602 736 l 736 736 l 736 0 l 602 0 l 602 138 q 388 -17 507 -17 q 267 17 319 -17 l 267 -268 l 134 -268 z "},"∂":{"ha":878,"x_min":138,"x_max":745,"o":"m 168 880 q 448 1088 267 1088 q 667 964 589 1088 q 745 617 745 840 q 630 164 745 345 q 342 -17 515 -17 q 194 47 250 -17 q 138 218 138 112 q 255 544 138 395 q 512 692 372 692 q 642 645 569 692 l 642 665 q 575 885 642 798 q 408 973 508 973 q 168 880 275 973 m 642 525 q 503 595 575 595 q 339 493 414 595 q 264 269 264 391 q 297 136 264 186 q 386 86 331 86 q 552 212 479 86 q 642 525 625 337 z "},"∑":{"ha":1104,"x_min":151,"x_max":954,"o":"m 151 0 l 151 127 l 540 517 l 159 897 l 159 1004 l 954 1004 l 954 897 l 355 897 l 713 539 l 301 127 l 954 127 l 954 0 l 151 0 z "},"∏":{"ha":1105,"x_min":104,"x_max":1000,"o":"m 205 0 l 205 897 l 104 897 l 104 1004 l 1000 1004 l 1000 897 l 900 897 l 900 0 l 758 0 l 758 897 l 347 897 l 347 0 l 205 0 z "},"π":{"ha":1084,"x_min":50,"x_max":1034,"o":"m 255 0 l 255 627 l 227 627 q 50 580 138 627 l 50 703 q 242 736 130 736 l 1034 736 l 1034 627 l 866 627 l 866 200 q 918 0 866 86 l 777 0 q 732 205 732 98 l 732 627 l 389 627 l 389 0 l 255 0 z "},"∫":{"ha":803,"x_min":151,"x_max":652,"o":"m 248 -143 q 275 -152 261 -152 q 333 -113 313 -152 q 352 5 352 -73 l 349 106 l 343 334 l 343 561 q 392 971 343 846 q 552 1096 441 1096 q 624 1070 595 1096 q 652 1004 652 1044 q 634 955 652 976 q 591 933 615 933 q 532 991 532 933 q 554 1038 532 1018 q 527 1046 538 1046 q 469 1012 488 1046 q 450 910 450 978 l 453 791 l 458 648 l 460 561 l 460 334 q 410 -73 460 55 q 251 -201 360 -201 q 151 -109 151 -201 q 214 -38 151 -38 q 269 -98 269 -38 q 248 -143 269 -121 z "},"ª":{"ha":652,"x_min":117,"x_max":577,"o":"m 410 629 q 261 561 337 561 q 158 600 198 561 q 117 698 117 638 q 183 821 117 777 q 368 865 250 865 l 404 865 l 404 917 q 381 977 404 957 q 315 997 359 997 q 161 954 241 997 l 161 1036 q 335 1071 250 1071 q 468 1033 424 1071 q 513 919 513 995 l 513 701 q 523 651 513 667 q 555 634 534 634 q 572 635 561 634 l 577 574 q 506 561 540 561 q 446 578 469 561 q 414 629 422 595 l 410 629 m 404 689 l 404 801 l 375 802 q 263 779 300 802 q 226 712 226 757 q 244 659 226 677 q 298 642 262 642 q 404 689 349 642 z "},"º":{"ha":652,"x_min":83,"x_max":568,"o":"m 323 561 q 148 630 213 561 q 83 816 83 699 q 149 1002 83 934 q 326 1071 214 1071 q 503 1002 437 1071 q 568 817 568 934 q 503 629 568 697 q 323 561 437 561 m 325 635 q 420 681 388 635 q 452 817 452 726 q 420 951 452 907 q 326 996 389 996 q 232 951 263 996 q 201 816 201 906 q 232 681 201 726 q 325 635 262 635 z "},"Ω":{"ha":1105,"x_min":50,"x_max":1054,"o":"m 50 0 l 50 104 l 326 104 q 83 564 83 288 q 215 898 83 768 q 552 1029 347 1029 q 889 899 758 1029 q 1021 564 1021 768 q 778 104 1021 287 l 1054 104 l 1054 0 l 640 0 l 640 104 q 870 555 870 260 q 786 826 870 728 q 552 924 701 924 q 319 826 404 924 q 234 554 234 728 q 465 104 234 260 l 465 0 l 50 0 z "},"æ":{"ha":1182,"x_min":70,"x_max":1084,"o":"m 549 131 q 282 -17 420 -17 q 130 40 191 -17 q 70 185 70 98 q 171 371 70 306 q 462 435 273 435 l 494 435 l 494 524 q 461 620 494 588 q 362 652 428 652 q 134 587 256 652 l 134 698 q 387 753 269 753 q 595 671 519 753 q 800 753 678 753 q 1013 651 942 753 q 1084 347 1084 550 l 628 347 q 699 149 637 215 q 876 83 761 83 q 1084 132 970 83 l 1084 25 q 840 -17 953 -17 q 670 20 743 -17 q 549 131 597 57 m 494 166 l 494 357 l 449 358 q 271 316 339 358 q 203 207 203 275 q 237 125 203 159 q 320 92 271 92 q 494 166 404 92 m 632 439 l 941 439 q 905 600 941 546 q 796 653 869 653 q 681 600 722 653 q 632 439 640 546 z "},"ø":{"ha":853,"x_min":75,"x_max":778,"o":"m 75 -17 l 163 96 l 161 98 q 75 366 75 197 q 170 649 75 545 q 427 753 264 753 q 633 695 547 753 l 679 753 l 778 753 l 690 641 l 692 638 q 778 369 778 530 q 684 87 778 191 q 427 -17 589 -17 q 221 41 309 -17 l 176 -17 l 75 -17 m 607 534 l 293 133 q 425 83 345 83 q 636 365 636 83 q 607 534 636 457 m 247 202 l 561 602 q 428 652 506 652 q 218 371 218 652 q 247 202 218 273 z "},"¿":{"ha":586,"x_min":26,"x_max":562,"o":"m 417 736 l 417 602 l 283 602 l 283 736 l 417 736 m 417 468 l 417 431 q 317 188 417 302 l 275 138 q 168 -62 168 16 q 215 -157 168 -122 q 341 -193 262 -193 q 562 -142 445 -193 l 562 -256 q 327 -294 436 -294 q 107 -232 189 -294 q 26 -64 26 -170 q 49 39 26 -4 q 139 145 73 82 l 181 184 q 264 284 244 244 q 283 393 283 325 l 283 468 l 417 468 z "},"¡":{"ha":439,"x_min":153,"x_max":286,"o":"m 286 736 l 286 602 l 153 602 l 153 736 l 286 736 m 270 469 l 286 -67 l 286 -268 l 153 -268 l 153 -67 l 170 469 l 270 469 z "},"¬":{"ha":1104,"x_min":151,"x_max":954,"o":"m 151 502 l 151 602 l 954 602 l 954 201 l 853 201 l 853 502 l 151 502 z "},"√":{"ha":1105,"x_min":100,"x_max":1123,"o":"m 134 311 l 100 378 l 310 483 l 551 0 l 552 0 l 1051 1246 l 1123 1246 l 571 -134 l 507 -134 l 254 372 l 134 311 z "},"ƒ":{"ha":878,"x_min":161,"x_max":823,"o":"m 161 -201 l 297 486 l 163 486 l 163 586 l 317 586 l 332 658 q 452 936 368 843 q 668 1029 536 1029 q 823 1009 742 1029 l 802 903 q 667 929 731 929 q 547 877 594 929 q 480 719 500 824 l 454 586 l 654 586 l 654 486 l 434 486 l 297 -201 l 161 -201 z "},"≈":{"ha":1105,"x_min":151,"x_max":954,"o":"m 151 452 q 197 615 151 560 q 336 669 243 669 q 498 631 405 669 l 551 610 l 614 585 l 677 561 q 788 531 751 531 q 862 560 838 531 q 887 646 887 589 l 887 652 l 954 652 q 907 489 954 543 q 768 435 861 435 q 606 473 699 435 l 553 494 l 491 519 q 427 544 445 536 q 316 573 353 573 q 242 544 267 573 q 218 458 218 515 l 218 452 l 151 452 m 151 151 q 197 314 151 259 q 336 368 243 368 q 498 330 405 368 l 551 309 l 614 284 l 677 260 q 788 230 751 230 q 862 259 838 230 q 887 345 887 288 l 887 351 l 954 351 q 907 188 954 242 q 768 134 861 134 q 606 172 699 134 l 553 193 l 491 218 q 427 243 445 235 q 316 272 353 272 q 242 243 267 272 q 218 157 218 214 l 218 151 l 151 151 z "},"∆":{"ha":1173,"x_min":134,"x_max":1040,"o":"m 134 0 l 134 125 l 517 1004 l 658 1004 l 1040 125 l 1040 0 l 134 0 m 256 125 l 886 125 l 572 847 l 256 125 z "},"«":{"ha":728,"x_min":75,"x_max":677,"o":"m 677 619 l 477 368 l 677 117 l 611 67 l 343 368 l 611 669 l 677 619 m 410 619 l 209 368 l 410 117 l 343 67 l 75 368 l 343 669 l 410 619 z "},"»":{"ha":728,"x_min":50,"x_max":652,"o":"m 50 619 l 251 368 l 50 117 l 117 67 l 385 368 l 117 669 l 50 619 m 318 619 l 519 368 l 318 117 l 385 67 l 652 368 l 385 669 l 318 619 z "},"…":{"ha":1389,"x_min":165,"x_max":1225,"o":"m 165 0 l 165 134 l 298 134 l 298 0 l 165 0 m 628 0 l 628 134 l 762 134 l 762 0 l 628 0 m 1090 0 l 1090 134 l 1225 134 l 1225 0 l 1090 0 z "}," ":{"ha":439,"x_min":0,"x_max":0,"o":""},"À":{"ha":958,"x_min":12,"x_max":943,"o":"m 638 384 l 467 817 l 296 384 l 638 384 m 789 0 l 680 278 l 254 278 l 144 0 l 12 0 l 410 1004 l 551 1004 l 943 0 l 789 0 m 581 1088 l 480 1088 l 262 1305 l 417 1305 l 581 1088 z "},"Ã":{"ha":958,"x_min":12,"x_max":943,"o":"m 638 384 l 467 817 l 296 384 l 638 384 m 789 0 l 680 278 l 254 278 l 144 0 l 12 0 l 410 1004 l 551 1004 l 943 0 l 789 0 m 251 1088 q 286 1207 254 1167 q 376 1246 317 1246 q 468 1221 426 1246 l 509 1196 q 567 1172 547 1172 q 603 1191 590 1172 q 619 1246 616 1209 l 703 1246 q 667 1127 699 1167 q 577 1088 636 1088 q 486 1114 528 1088 l 445 1139 q 387 1162 407 1162 q 350 1144 363 1162 q 334 1088 337 1125 l 251 1088 z "},"Õ":{"ha":1079,"x_min":71,"x_max":1009,"o":"m 534 -25 q 198 120 325 -25 q 71 503 71 264 q 198 885 71 742 q 540 1029 326 1029 q 881 886 753 1029 q 1009 504 1009 743 q 881 118 1009 260 q 534 -25 753 -25 m 536 81 q 774 192 690 81 q 858 505 858 303 q 773 812 858 701 q 540 922 689 922 q 306 811 390 922 q 222 503 222 701 q 305 194 222 307 q 536 81 389 81 m 314 1088 q 349 1207 317 1167 q 439 1246 380 1246 q 531 1221 489 1246 l 572 1196 q 630 1172 610 1172 q 666 1191 653 1172 q 682 1246 680 1209 l 766 1246 q 730 1127 762 1167 q 640 1088 699 1088 q 549 1114 591 1088 l 508 1139 q 450 1162 470 1162 q 413 1144 427 1162 q 397 1088 400 1125 l 314 1088 z "},"Œ":{"ha":1389,"x_min":71,"x_max":1356,"o":"m 766 39 q 530 -25 660 -25 q 197 120 324 -25 q 71 502 71 266 q 198 885 71 741 q 538 1029 326 1029 q 766 965 661 1029 l 766 1004 l 1326 1004 l 1326 897 l 908 897 l 908 575 l 1259 575 l 1259 470 l 908 474 l 908 106 l 1356 106 l 1356 0 l 766 0 l 766 39 m 766 386 l 766 618 q 711 849 766 777 q 538 922 656 922 q 306 811 389 922 q 222 502 222 699 q 306 193 222 304 q 540 81 390 81 q 709 157 652 81 q 766 386 766 233 z "},"œ":{"ha":1289,"x_min":75,"x_max":1191,"o":"m 664 118 q 420 -17 576 -17 q 169 88 263 -17 q 75 368 75 193 q 169 648 75 544 q 422 753 263 753 q 661 617 570 753 q 908 753 743 753 q 1120 651 1049 753 q 1191 347 1191 550 l 734 347 q 806 149 744 215 q 982 83 868 83 q 1191 132 1077 83 l 1191 25 q 954 -17 1060 -17 q 664 118 763 -17 m 420 83 q 553 154 509 83 q 598 366 598 224 q 554 581 598 509 q 423 652 511 652 q 272 577 326 652 q 218 368 218 503 q 272 159 218 235 q 420 83 326 83 m 739 439 l 1048 439 q 1012 600 1048 546 q 903 653 976 653 q 788 600 829 653 q 739 439 747 546 z "},"–":{"ha":694,"x_min":71,"x_max":623,"o":"m 71 368 l 71 460 l 623 460 l 623 368 l 71 368 z "},"—":{"ha":1389,"x_min":67,"x_max":1322,"o":"m 67 368 l 67 460 l 1322 460 l 1322 368 l 67 368 z "},"“":{"ha":552,"x_min":75,"x_max":477,"o":"m 460 1071 l 460 1021 q 424 974 436 1008 q 412 886 412 941 l 412 870 l 477 870 l 477 720 l 326 720 l 326 832 q 359 994 326 935 q 460 1071 393 1054 m 209 1071 l 209 1021 q 173 974 185 1008 q 161 886 161 941 l 161 870 l 226 870 l 226 720 l 75 720 l 75 832 q 109 994 75 935 q 209 1071 142 1054 z "},"”":{"ha":552,"x_min":75,"x_max":477,"o":"m 92 720 l 92 770 q 128 816 116 782 q 140 905 140 850 l 140 920 l 75 920 l 75 1071 l 226 1071 l 226 958 q 192 795 226 855 q 92 720 159 736 m 343 720 l 343 770 q 379 816 367 782 q 391 905 391 850 l 391 920 l 326 920 l 326 1071 l 477 1071 l 477 958 q 443 795 477 855 q 343 720 410 736 z "},"‘":{"ha":439,"x_min":136,"x_max":303,"o":"m 303 1071 l 303 1021 q 254 973 271 1011 q 238 867 238 935 l 238 853 l 303 853 l 303 686 l 136 686 l 136 831 q 177 1002 136 942 q 303 1071 219 1062 z "},"’":{"ha":439,"x_min":136,"x_max":303,"o":"m 136 686 l 136 736 q 184 784 168 745 q 201 890 201 822 l 201 903 l 136 903 l 136 1071 l 303 1071 l 303 926 q 261 754 303 814 q 136 686 219 694 z "},"÷":{"ha":1104,"x_min":151,"x_max":954,"o":"m 151 351 l 151 452 l 954 452 l 954 351 l 151 351 m 469 636 l 469 803 l 636 803 l 636 636 l 469 636 m 469 0 l 469 168 l 636 168 l 636 0 l 469 0 z "},"◊":{"ha":1154,"x_min":151,"x_max":1004,"o":"m 577 -25 l 151 502 l 577 1029 l 1004 502 l 577 -25 m 577 81 l 918 502 l 577 923 l 237 502 l 577 81 z "},"ÿ":{"ha":726,"x_min":11,"x_max":718,"o":"m 176 -268 l 296 0 l 11 736 l 155 736 l 366 182 l 591 736 l 718 736 l 315 -268 l 176 -268 m 180 870 l 180 987 l 298 987 l 298 870 l 180 870 m 448 870 l 448 987 l 566 987 l 566 870 l 448 870 z "},"Ÿ":{"ha":865,"x_min":12,"x_max":848,"o":"m 347 0 l 347 419 l 12 1004 l 174 1004 l 435 551 l 715 1004 l 848 1004 l 489 422 l 489 0 l 347 0 m 237 1088 l 237 1205 l 355 1205 l 355 1088 l 237 1088 m 505 1088 l 505 1205 l 623 1205 l 623 1088 l 505 1088 z "},"∕":{"ha":831,"x_min":151,"x_max":680,"o":"m 151 -201 l 574 1071 l 680 1071 l 256 -201 l 151 -201 z "},"¤":{"ha":879,"x_min":66,"x_max":812,"o":"m 258 262 l 125 130 l 66 189 l 199 321 q 138 502 138 401 q 199 683 138 602 l 66 816 l 125 875 l 258 743 q 439 803 342 803 q 620 743 535 803 l 752 875 l 812 816 l 680 683 q 740 502 740 602 q 680 321 740 401 l 812 189 l 752 130 l 620 262 q 439 201 535 201 q 258 262 342 201 m 436 301 q 581 359 523 301 q 640 503 640 416 q 582 645 640 587 q 439 703 524 703 q 296 645 354 703 q 238 502 238 587 q 296 360 238 418 q 436 301 353 301 z "},"‹":{"ha":460,"x_min":75,"x_max":410,"o":"m 410 619 l 209 368 l 410 117 l 343 67 l 75 368 l 343 669 l 410 619 z "},"›":{"ha":460,"x_min":50,"x_max":385,"o":"m 50 619 l 251 368 l 50 117 l 117 67 l 385 368 l 117 669 l 50 619 z "},"":{"ha":895,"x_min":54,"x_max":761,"o":"m 159 0 l 159 636 l 54 636 l 54 736 l 159 736 l 159 825 q 399 1088 159 1088 q 551 1065 466 1088 l 551 960 q 407 987 461 987 q 317 956 341 987 q 293 839 293 924 l 293 736 l 761 736 l 761 0 l 627 0 l 627 636 l 293 636 l 293 0 l 159 0 m 627 870 l 627 1004 l 761 1004 l 761 870 l 627 870 m 477 736 z "},"":{"ha":899,"x_min":54,"x_max":766,"o":"m 163 0 l 163 636 l 54 636 l 54 736 l 163 736 l 163 812 q 441 1088 163 1088 q 620 1071 505 1088 l 766 1071 l 766 0 l 631 0 l 631 957 q 435 987 503 987 q 329 954 361 987 q 297 843 297 921 l 297 736 l 481 736 l 481 636 l 297 636 l 297 0 l 163 0 z "},"‡":{"ha":878,"x_min":155,"x_max":724,"o":"m 372 -201 l 389 168 l 155 151 l 155 251 l 389 234 l 389 569 l 155 552 l 155 652 l 389 636 l 372 1004 l 506 1004 l 489 636 l 724 652 l 724 552 l 489 569 l 489 234 l 724 251 l 724 151 l 489 168 l 506 -201 l 372 -201 z "},"∙":{"ha":870,"x_min":151,"x_max":720,"o":"m 151 405 q 235 603 151 520 q 435 686 319 686 q 636 603 553 686 q 720 401 720 519 q 636 201 720 284 q 436 117 553 117 q 233 201 316 117 q 151 405 151 284 z "},"‚":{"ha":439,"x_min":136,"x_max":303,"o":"m 136 -201 l 136 -151 q 184 -107 168 -141 q 201 -14 201 -73 l 201 0 l 136 0 l 136 168 l 303 168 l 303 22 q 261 -136 303 -80 q 136 -201 219 -192 z "},"„":{"ha":552,"x_min":75,"x_max":477,"o":"m 92 -201 l 92 -151 q 128 -104 116 -138 q 140 -16 140 -71 l 140 0 l 75 0 l 75 151 l 226 151 l 226 38 q 192 -124 226 -64 q 92 -201 159 -184 m 343 -201 l 343 -151 q 379 -104 367 -138 q 391 -16 391 -71 l 391 0 l 326 0 l 326 151 l 477 151 l 477 38 q 443 -124 477 -64 q 343 -201 410 -184 z "},"‰":{"ha":1406,"x_min":8,"x_max":1397,"o":"m 16 -25 l 807 1029 l 911 1029 l 121 -25 l 16 -25 m 218 502 q 65 570 123 502 q 8 753 8 639 q 66 936 8 869 q 222 1004 123 1004 q 377 936 319 1004 q 435 754 435 869 q 377 569 435 637 q 218 502 319 502 m 220 569 q 306 615 277 569 q 334 754 334 661 q 304 887 334 838 q 222 937 273 937 q 139 887 170 937 q 109 753 109 838 q 139 619 109 669 q 220 569 170 569 m 704 0 q 551 68 608 0 q 494 251 494 136 q 551 434 494 366 q 707 502 609 502 q 862 434 804 502 q 920 252 920 367 q 863 67 920 134 q 704 0 805 0 m 705 67 q 791 113 762 67 q 820 252 820 159 q 789 386 820 336 q 707 435 758 435 q 625 386 655 435 q 594 251 594 336 q 624 117 594 168 q 705 67 654 67 m 1181 0 q 1028 68 1085 0 q 970 251 970 136 q 1028 434 970 366 q 1183 502 1086 502 q 1339 434 1282 502 q 1397 252 1397 367 q 1339 67 1397 134 q 1181 0 1282 0 m 1182 67 q 1268 113 1239 67 q 1297 252 1297 159 q 1266 386 1297 336 q 1183 435 1235 435 q 1101 386 1132 435 q 1071 251 1071 336 q 1101 117 1071 168 q 1182 67 1132 67 z "},"Â":{"ha":958,"x_min":12,"x_max":943,"o":"m 638 384 l 467 817 l 296 384 l 638 384 m 789 0 l 680 278 l 254 278 l 144 0 l 12 0 l 410 1004 l 551 1004 l 943 0 l 789 0 m 243 1088 l 406 1305 l 554 1305 l 718 1088 l 617 1088 l 481 1225 l 479 1225 l 343 1088 l 243 1088 z "},"Ê":{"ha":753,"x_min":130,"x_max":720,"o":"m 130 0 l 130 1004 l 690 1004 l 690 897 l 272 897 l 272 575 l 623 575 l 623 470 l 272 470 l 272 106 l 720 106 l 720 0 l 130 0 m 180 1088 l 343 1305 l 491 1305 l 654 1088 l 554 1088 l 418 1225 l 416 1225 l 280 1088 l 180 1088 z "},"Á":{"ha":958,"x_min":12,"x_max":943,"o":"m 638 384 l 467 817 l 296 384 l 638 384 m 789 0 l 680 278 l 254 278 l 144 0 l 12 0 l 410 1004 l 551 1004 l 943 0 l 789 0 m 380 1088 l 543 1305 l 698 1305 l 480 1088 l 380 1088 z "},"Ë":{"ha":753,"x_min":130,"x_max":720,"o":"m 130 0 l 130 1004 l 690 1004 l 690 897 l 272 897 l 272 575 l 623 575 l 623 470 l 272 470 l 272 106 l 720 106 l 720 0 l 130 0 m 232 1088 l 232 1205 l 349 1205 l 349 1088 l 232 1088 m 500 1088 l 500 1205 l 617 1205 l 617 1088 l 500 1088 z "},"È":{"ha":753,"x_min":130,"x_max":720,"o":"m 130 0 l 130 1004 l 690 1004 l 690 897 l 272 897 l 272 575 l 623 575 l 623 470 l 272 470 l 272 106 l 720 106 l 720 0 l 130 0 m 519 1088 l 418 1088 l 201 1305 l 355 1305 l 519 1088 z "},"Í":{"ha":400,"x_min":100,"x_max":418,"o":"m 129 0 l 129 1004 l 271 1004 l 271 0 l 129 0 m 100 1088 l 263 1305 l 418 1305 l 200 1088 l 100 1088 z "},"Î":{"ha":400,"x_min":-37,"x_max":437,"o":"m 129 0 l 129 1004 l 271 1004 l 271 0 l 129 0 m -37 1088 l 126 1305 l 274 1305 l 437 1088 l 337 1088 l 201 1225 l 199 1225 l 63 1088 l -37 1088 z "},"Ï":{"ha":400,"x_min":7,"x_max":393,"o":"m 129 0 l 129 1004 l 271 1004 l 271 0 l 129 0 m 7 1088 l 7 1205 l 125 1205 l 125 1088 l 7 1088 m 275 1088 l 275 1205 l 393 1205 l 393 1088 l 275 1088 z "},"Ì":{"ha":400,"x_min":-18,"x_max":300,"o":"m 129 0 l 129 1004 l 271 1004 l 271 0 l 129 0 m 300 1088 l 200 1088 l -18 1305 l 137 1305 l 300 1088 z "},"Ó":{"ha":1079,"x_min":71,"x_max":1009,"o":"m 534 -25 q 198 120 325 -25 q 71 503 71 264 q 198 885 71 742 q 540 1029 326 1029 q 881 886 753 1029 q 1009 504 1009 743 q 881 118 1009 260 q 534 -25 753 -25 m 536 81 q 774 192 690 81 q 858 505 858 303 q 773 812 858 701 q 540 922 689 922 q 306 811 390 922 q 222 503 222 701 q 305 194 222 307 q 536 81 389 81 m 439 1088 l 603 1305 l 758 1305 l 540 1088 l 439 1088 z "},"Ô":{"ha":1079,"x_min":71,"x_max":1009,"o":"m 534 -25 q 198 120 325 -25 q 71 503 71 264 q 198 885 71 742 q 540 1029 326 1029 q 881 886 753 1029 q 1009 504 1009 743 q 881 118 1009 260 q 534 -25 753 -25 m 536 81 q 774 192 690 81 q 858 505 858 303 q 773 812 858 701 q 540 922 689 922 q 306 811 390 922 q 222 503 222 701 q 305 194 222 307 q 536 81 389 81 m 302 1088 l 466 1305 l 614 1305 l 777 1088 l 677 1088 l 541 1225 l 539 1225 l 403 1088 l 302 1088 z "},"":{"ha":1389,"x_min":0,"x_max":0,"o":""},"Ò":{"ha":1079,"x_min":71,"x_max":1009,"o":"m 534 -25 q 198 120 325 -25 q 71 503 71 264 q 198 885 71 742 q 540 1029 326 1029 q 881 886 753 1029 q 1009 504 1009 743 q 881 118 1009 260 q 534 -25 753 -25 m 536 81 q 774 192 690 81 q 858 505 858 303 q 773 812 858 701 q 540 922 689 922 q 306 811 390 922 q 222 503 222 701 q 305 194 222 307 q 536 81 389 81 m 640 1088 l 540 1088 l 322 1305 l 477 1305 l 640 1088 z "},"Ú":{"ha":962,"x_min":121,"x_max":842,"o":"m 121 1004 l 264 1004 l 264 370 q 320 150 264 219 q 498 81 376 81 q 667 146 617 81 q 717 366 717 211 l 717 1004 l 842 1004 l 842 368 q 757 68 842 162 q 488 -25 673 -25 q 211 72 300 -25 q 121 372 121 169 l 121 1004 m 390 1088 l 553 1305 l 708 1305 l 490 1088 l 390 1088 z "},"Û":{"ha":962,"x_min":121,"x_max":842,"o":"m 121 1004 l 264 1004 l 264 370 q 320 150 264 219 q 498 81 376 81 q 667 146 617 81 q 717 366 717 211 l 717 1004 l 842 1004 l 842 368 q 757 68 842 162 q 488 -25 673 -25 q 211 72 300 -25 q 121 372 121 169 l 121 1004 m 253 1088 l 416 1305 l 564 1305 l 728 1088 l 627 1088 l 491 1225 l 490 1225 l 353 1088 l 253 1088 z "},"Ù":{"ha":962,"x_min":121,"x_max":842,"o":"m 121 1004 l 264 1004 l 264 370 q 320 150 264 219 q 498 81 376 81 q 667 146 617 81 q 717 366 717 211 l 717 1004 l 842 1004 l 842 368 q 757 68 842 162 q 488 -25 673 -25 q 211 72 300 -25 q 121 372 121 169 l 121 1004 m 591 1088 l 490 1088 l 273 1305 l 427 1305 l 591 1088 z "},"ı":{"ha":401,"x_min":134,"x_max":267,"o":"m 134 0 l 134 736 l 267 736 l 267 0 l 134 0 z "},"ˆ":{"ha":853,"x_min":189,"x_max":664,"o":"m 189 870 l 353 1088 l 500 1088 l 664 870 l 564 870 l 427 1007 l 426 1007 l 290 870 l 189 870 z "},"˜":{"ha":853,"x_min":201,"x_max":652,"o":"m 201 870 q 236 989 204 949 q 326 1029 267 1029 q 418 1003 376 1029 l 458 978 q 517 954 496 954 q 553 973 540 954 q 569 1029 566 991 l 652 1029 q 617 910 648 949 q 527 870 586 870 q 435 897 477 870 l 395 922 q 336 945 357 945 q 300 926 313 945 q 284 870 287 907 l 201 870 z "},"ˉ":{"ha":853,"x_min":209,"x_max":644,"o":"m 209 870 l 209 970 l 644 970 l 644 870 l 209 870 z "},"˘":{"ha":853,"x_min":201,"x_max":652,"o":"m 201 1088 l 284 1088 q 331 1000 295 1029 q 427 970 366 970 q 523 1000 487 970 q 569 1088 558 1029 l 652 1088 q 581 929 642 989 q 427 870 519 870 q 273 929 334 870 q 201 1088 212 989 z "},"˙":{"ha":853,"x_min":359,"x_max":493,"o":"m 359 870 l 359 1004 l 493 1004 l 493 870 l 359 870 z "},"˚":{"ha":853,"x_min":273,"x_max":581,"o":"m 425 870 q 317 915 361 870 q 273 1024 273 960 q 317 1133 273 1088 q 427 1178 362 1178 q 535 1133 490 1178 q 581 1024 581 1088 q 535 915 581 959 q 425 870 490 870 m 425 928 q 494 956 466 928 q 522 1025 522 984 q 494 1092 522 1064 q 427 1120 466 1120 q 359 1092 387 1120 q 331 1024 331 1064 q 359 957 331 985 q 425 928 387 928 z "},"¸":{"ha":853,"x_min":346,"x_max":581,"o":"m 425 0 l 490 0 l 450 -74 q 542 -106 503 -74 q 581 -182 581 -138 q 542 -261 581 -229 q 445 -293 502 -293 q 346 -279 396 -293 l 346 -224 q 417 -234 377 -234 q 469 -221 452 -234 q 487 -184 487 -209 q 455 -135 487 -151 q 360 -119 423 -119 l 425 0 z "},"˝":{"ha":853,"x_min":161,"x_max":692,"o":"m 161 870 l 324 1088 l 454 1088 l 236 870 l 161 870 m 399 870 l 562 1088 l 692 1088 l 475 870 l 399 870 z "},"˛":{"ha":853,"x_min":339,"x_max":571,"o":"m 446 0 l 519 0 q 453 -56 475 -26 q 431 -122 431 -87 q 451 -170 431 -154 q 509 -186 470 -186 q 571 -176 547 -186 l 571 -231 q 477 -251 530 -251 q 374 -224 408 -251 q 339 -143 339 -197 q 366 -65 339 -100 q 446 0 393 -29 z "},"ˇ":{"ha":853,"x_min":189,"x_max":664,"o":"m 664 1088 l 500 870 l 353 870 l 189 1088 l 290 1088 l 426 951 l 427 951 l 564 1088 l 664 1088 z "},"Ł":{"ha":762,"x_min":17,"x_max":745,"o":"m 151 0 l 151 469 l 17 397 l 17 511 l 151 585 l 151 1004 l 293 1004 l 293 662 l 460 753 l 460 638 l 293 547 l 293 106 l 745 106 l 745 0 l 151 0 z "},"ł":{"ha":456,"x_min":17,"x_max":452,"o":"m 168 0 l 168 489 l 17 409 l 17 522 l 168 603 l 168 1071 l 301 1071 l 301 677 l 452 753 l 452 642 l 301 563 l 301 0 l 168 0 z "},"Š":{"ha":748,"x_min":68,"x_max":679,"o":"m 326 -25 q 68 19 225 -25 l 68 160 q 347 81 237 81 q 482 125 431 81 q 533 241 533 170 q 499 342 533 300 q 376 434 466 383 l 307 474 q 126 612 178 547 q 73 763 73 677 q 157 954 73 879 q 372 1029 241 1029 q 616 990 488 1029 l 616 860 q 380 922 458 922 q 258 883 306 922 q 210 784 210 844 q 245 695 210 734 q 374 603 280 656 l 446 562 q 627 422 576 488 q 679 264 679 357 q 582 54 679 134 q 326 -25 486 -25 m 627 1305 l 463 1088 l 315 1088 l 152 1305 l 252 1305 l 389 1168 l 390 1168 l 526 1305 l 627 1305 z "},"š":{"ha":708,"x_min":106,"x_max":602,"o":"m 329 -17 q 106 26 237 -17 l 106 149 q 334 83 237 83 q 430 115 392 83 q 468 193 468 146 q 361 306 468 261 l 283 339 q 111 546 111 411 q 179 697 111 642 q 366 753 247 753 q 518 736 427 753 l 546 730 l 546 619 q 368 652 434 652 q 239 559 239 652 q 337 457 239 498 l 401 430 q 556 333 511 384 q 602 205 602 281 q 525 45 602 108 q 329 -17 448 -17 m 590 1088 l 427 870 l 279 870 l 115 1088 l 216 1088 l 352 951 l 353 951 l 490 1088 l 590 1088 z "},"Ž":{"ha":840,"x_min":64,"x_max":774,"o":"m 64 0 l 64 114 l 604 897 l 98 897 l 98 1004 l 774 1004 l 774 897 l 235 114 l 774 114 l 774 0 l 64 0 m 681 1305 l 517 1088 l 370 1088 l 206 1305 l 307 1305 l 443 1168 l 444 1168 l 581 1305 l 681 1305 z "},"ž":{"ha":796,"x_min":83,"x_max":713,"o":"m 83 0 l 83 100 l 539 636 l 104 636 l 104 736 l 704 736 l 704 636 l 248 100 l 713 100 l 713 0 l 83 0 m 634 1088 l 471 870 l 323 870 l 159 1088 l 260 1088 l 396 951 l 397 951 l 534 1088 l 634 1088 z "},"¦":{"ha":519,"x_min":209,"x_max":309,"o":"m 209 -201 l 209 301 l 309 301 l 309 -201 l 209 -201 m 209 569 l 209 1071 l 309 1071 l 309 569 l 209 569 z "},"Ð":{"ha":1040,"x_min":-21,"x_max":970,"o":"m 130 0 l 130 460 l -21 460 l -21 567 l 130 567 l 130 1004 l 463 1004 q 705 970 613 1004 q 863 858 796 937 q 970 526 970 732 q 838 138 970 275 q 465 0 705 0 l 130 0 m 272 106 l 454 106 q 731 212 650 106 q 819 512 819 323 q 732 790 819 689 q 608 874 680 852 q 389 897 535 897 l 272 897 l 272 567 l 498 567 l 498 460 l 272 460 l 272 106 z "},"ð":{"ha":837,"x_min":74,"x_max":761,"o":"m 75 1071 q 344 1019 224 1071 l 458 1134 l 517 1075 l 420 978 q 676 719 591 865 q 761 391 761 572 q 667 95 761 207 q 417 -17 572 -17 q 169 88 263 -17 q 74 365 74 193 q 168 634 74 530 q 410 738 261 738 q 503 724 452 738 q 336 893 449 822 l 222 779 l 163 838 l 260 936 q 75 970 181 970 l 75 1071 m 418 83 q 571 160 515 83 q 626 372 626 237 q 575 572 626 505 q 423 640 524 640 q 271 566 326 640 q 216 364 216 493 q 271 160 216 236 q 418 83 326 83 z "},"Ý":{"ha":865,"x_min":12,"x_max":848,"o":"m 347 0 l 347 419 l 12 1004 l 174 1004 l 435 551 l 715 1004 l 848 1004 l 489 422 l 489 0 l 347 0 m 334 1088 l 498 1305 l 652 1305 l 435 1088 l 334 1088 z "},"ý":{"ha":726,"x_min":11,"x_max":718,"o":"m 176 -268 l 296 0 l 11 736 l 155 736 l 366 182 l 591 736 l 718 736 l 315 -268 l 176 -268 m 266 870 l 429 1088 l 584 1088 l 366 870 l 266 870 z "},"Þ":{"ha":768,"x_min":130,"x_max":743,"o":"m 130 0 l 130 1004 l 271 1004 l 271 805 l 403 805 q 664 743 585 805 q 743 542 743 682 q 635 291 743 381 q 334 200 526 200 l 271 200 l 271 0 l 130 0 m 271 304 l 345 304 q 528 363 463 304 q 593 530 593 422 q 539 659 593 621 q 358 698 485 698 l 271 698 l 271 304 z "},"þ":{"ha":874,"x_min":134,"x_max":799,"o":"m 134 -268 l 134 1071 l 267 1071 l 267 598 q 513 753 349 753 q 723 656 646 753 q 799 391 799 559 q 712 95 799 208 q 485 -17 626 -17 q 267 83 354 -17 l 267 -268 l 134 -268 m 267 176 q 464 83 370 83 q 608 157 560 83 q 656 377 656 230 q 614 571 656 507 q 486 636 571 636 q 267 515 374 636 l 267 176 z "},"−":{"ha":1105,"x_min":151,"x_max":954,"o":"m 151 351 l 151 452 l 954 452 l 954 351 l 151 351 z "},"×":{"ha":1104,"x_min":151,"x_max":954,"o":"m 151 71 l 481 401 l 151 732 l 222 803 l 552 473 l 883 803 l 954 732 l 623 401 l 954 71 l 883 0 l 552 330 l 222 0 l 151 71 z "},"¹":{"ha":586,"x_min":134,"x_max":502,"o":"m 134 401 l 134 477 l 267 477 l 267 916 l 134 883 l 134 960 l 368 1019 l 368 477 l 502 477 l 502 401 l 134 401 z "},"²":{"ha":586,"x_min":101,"x_max":484,"o":"m 101 401 l 101 484 q 224 633 146 562 l 272 675 q 378 849 378 768 q 350 925 378 899 q 267 950 322 950 q 116 903 202 950 l 116 983 q 287 1019 202 1019 q 430 973 376 1019 q 484 852 484 927 q 359 656 484 758 l 323 626 q 218 484 233 552 l 481 484 l 481 401 l 101 401 z "},"³":{"ha":586,"x_min":107,"x_max":479,"o":"m 115 918 l 115 994 q 269 1019 190 1019 q 412 984 364 1019 q 460 878 460 948 q 427 786 460 824 q 330 726 395 749 q 442 669 405 709 q 479 565 479 629 q 421 434 479 482 q 260 387 362 387 q 107 406 188 387 l 107 489 q 249 454 195 454 q 339 485 304 454 q 374 565 374 515 q 330 657 374 627 q 197 688 286 688 l 163 688 l 163 751 l 193 751 q 317 780 275 751 q 358 864 358 808 q 332 929 358 907 q 252 951 305 951 q 115 918 189 951 z "},"½":{"ha":1113,"x_min":50,"x_max":1046,"o":"m 663 0 l 663 83 q 787 231 708 161 l 834 273 q 913 363 886 320 q 939 448 939 407 q 912 523 939 498 q 829 549 884 549 q 678 502 764 549 l 678 581 q 849 617 764 617 q 991 571 937 617 q 1046 451 1046 526 q 1015 354 1046 404 q 922 254 983 304 l 886 224 q 780 83 795 151 l 1044 83 l 1044 0 l 663 0 m 67 -25 l 805 1029 l 897 1029 l 159 -25 l 67 -25 m 184 401 l 184 916 l 50 883 l 50 960 l 285 1019 l 285 401 l 184 401 z "},"¼":{"ha":1113,"x_min":50,"x_max":1046,"o":"m 184 401 l 184 916 l 50 883 l 50 960 l 285 1019 l 285 401 l 184 401 m 870 0 l 870 164 l 594 164 l 594 241 l 868 602 l 962 602 l 962 243 l 1046 243 l 1046 164 l 962 164 l 962 0 l 870 0 m 682 243 l 870 243 l 870 490 l 682 243 m 101 -25 l 839 1029 l 930 1029 l 193 -25 l 101 -25 z "},"¾":{"ha":1113,"x_min":67,"x_max":1046,"o":"m 75 918 l 75 994 q 229 1019 150 1019 q 372 984 324 1019 q 420 878 420 948 q 387 786 420 824 q 290 726 355 749 q 402 669 365 709 q 439 565 439 629 q 381 434 439 482 q 220 387 322 387 q 67 406 148 387 l 67 489 q 209 454 155 454 q 299 485 264 454 q 334 565 334 515 q 290 657 334 627 q 157 688 245 688 l 123 688 l 123 751 l 153 751 q 277 780 235 751 q 318 864 318 808 q 292 929 318 907 q 212 951 265 951 q 75 918 149 951 m 870 0 l 870 164 l 594 164 l 594 241 l 868 602 l 962 602 l 962 243 l 1046 243 l 1046 164 l 962 164 l 962 0 l 870 0 m 682 243 l 870 243 l 870 490 l 682 243 m 168 -25 l 906 1029 l 998 1029 l 260 -25 l 168 -25 z "},"₣":{"ha":878,"x_min":117,"x_max":795,"o":"m 117 0 l 117 1004 l 670 1004 l 670 897 l 251 897 l 251 586 l 569 586 l 569 466 q 795 599 664 599 l 795 470 q 769 471 779 471 q 569 347 658 471 l 569 0 l 435 0 l 435 481 l 251 481 l 251 0 l 117 0 z "},"Ğ":{"ha":1004,"x_min":71,"x_max":884,"o":"m 884 27 q 566 -25 701 -25 q 198 111 326 -25 q 71 502 71 248 q 200 890 71 751 q 564 1029 330 1029 q 882 983 717 1029 l 882 852 q 564 922 675 922 q 312 812 401 922 q 222 500 222 701 q 318 192 222 302 q 588 81 414 81 q 742 106 659 81 l 742 433 l 884 433 l 884 27 m 318 1305 l 401 1305 q 448 1217 412 1246 q 544 1188 484 1188 q 640 1217 604 1188 q 686 1305 675 1246 l 770 1305 q 698 1147 760 1206 q 544 1088 636 1088 q 390 1147 452 1088 q 318 1305 329 1206 z "},"ğ":{"ha":866,"x_min":75,"x_max":741,"o":"m 136 -245 l 152 -129 q 380 -184 268 -184 q 606 56 606 -184 l 606 172 q 363 17 532 17 q 153 113 231 17 q 75 373 75 210 q 164 647 75 541 q 394 753 253 753 q 606 652 517 753 l 606 736 l 741 736 l 741 201 q 723 -55 741 28 q 655 -191 705 -138 q 383 -284 568 -284 q 136 -245 254 -284 m 606 255 l 606 561 q 414 652 518 652 q 270 578 322 652 q 218 376 218 505 q 388 134 218 134 q 606 255 504 134 m 182 1088 l 265 1088 q 312 1000 276 1029 q 408 970 347 970 q 504 1000 468 970 q 550 1088 539 1029 l 633 1088 q 562 929 623 989 q 408 870 500 870 q 254 929 315 870 q 182 1088 193 989 z "},"İ":{"ha":400,"x_min":129,"x_max":271,"o":"m 129 0 l 129 1004 l 271 1004 l 271 0 l 129 0 m 133 1088 l 133 1221 l 267 1221 l 267 1088 l 133 1088 z "},"Ş":{"ha":748,"x_min":68,"x_max":679,"o":"m 326 -25 q 68 19 225 -25 l 68 160 q 347 81 237 81 q 482 125 431 81 q 533 241 533 170 q 499 342 533 300 q 376 434 466 383 l 307 474 q 126 612 178 547 q 73 763 73 677 q 157 954 73 879 q 372 1029 241 1029 q 616 990 488 1029 l 616 860 q 380 922 458 922 q 258 883 306 922 q 210 784 210 844 q 245 695 210 734 q 374 603 280 656 l 446 562 q 627 422 576 488 q 679 264 679 357 q 582 54 679 134 q 326 -25 486 -25 m 338 0 l 404 0 l 363 -74 q 456 -106 416 -74 q 495 -182 495 -138 q 455 -261 495 -229 q 359 -293 416 -293 q 260 -279 310 -293 l 260 -224 q 331 -234 291 -234 q 383 -221 366 -234 q 401 -184 401 -209 q 369 -135 401 -151 q 274 -119 337 -119 l 338 0 z "},"ş":{"ha":708,"x_min":106,"x_max":602,"o":"m 329 -17 q 106 26 237 -17 l 106 149 q 334 83 237 83 q 430 115 392 83 q 468 193 468 146 q 361 306 468 261 l 283 339 q 111 546 111 411 q 179 697 111 642 q 366 753 247 753 q 518 736 427 753 l 546 730 l 546 619 q 368 652 434 652 q 239 559 239 652 q 337 457 239 498 l 401 430 q 556 333 511 384 q 602 205 602 281 q 525 45 602 108 q 329 -17 448 -17 m 331 0 l 397 0 l 356 -74 q 448 -106 409 -74 q 488 -182 488 -138 q 448 -261 488 -229 q 351 -293 408 -293 q 252 -279 302 -293 l 252 -224 q 323 -234 283 -234 q 376 -221 358 -234 q 393 -184 393 -209 q 361 -135 393 -151 q 267 -119 330 -119 l 331 0 z "},"Ć":{"ha":961,"x_min":71,"x_max":884,"o":"m 559 -25 q 198 112 326 -25 q 71 501 71 250 q 200 890 71 752 q 566 1029 330 1029 q 882 985 701 1029 l 882 851 q 564 922 676 922 q 311 812 401 922 q 222 500 222 701 q 317 197 222 308 q 578 86 413 86 q 884 174 721 86 l 884 52 q 559 -25 735 -25 m 444 1088 l 607 1305 l 762 1305 l 544 1088 l 444 1088 z "},"ć":{"ha":711,"x_min":75,"x_max":645,"o":"m 421 -17 q 174 94 272 -17 q 75 372 75 204 q 173 652 75 552 q 444 753 270 753 q 637 729 530 753 l 637 617 q 452 650 524 650 q 288 573 350 650 q 226 368 226 496 q 290 168 226 244 q 456 91 353 91 q 645 138 548 91 l 645 22 q 421 -17 515 -17 m 302 870 l 465 1088 l 620 1088 l 402 870 l 302 870 z "},"Č":{"ha":961,"x_min":71,"x_max":884,"o":"m 559 -25 q 198 112 326 -25 q 71 501 71 250 q 200 890 71 752 q 566 1029 330 1029 q 882 985 701 1029 l 882 851 q 564 922 676 922 q 311 812 401 922 q 222 500 222 701 q 317 197 222 308 q 578 86 413 86 q 884 174 721 86 l 884 52 q 559 -25 735 -25 m 797 1305 l 633 1088 l 486 1088 l 322 1305 l 422 1305 l 559 1168 l 560 1168 l 696 1305 l 797 1305 z "},"č":{"ha":711,"x_min":75,"x_max":655,"o":"m 421 -17 q 174 94 272 -17 q 75 372 75 204 q 173 652 75 552 q 444 753 270 753 q 637 729 530 753 l 637 617 q 452 650 524 650 q 288 573 350 650 q 226 368 226 496 q 290 168 226 244 q 456 91 353 91 q 645 138 548 91 l 645 22 q 421 -17 515 -17 m 655 1088 l 492 870 l 344 870 l 180 1088 l 281 1088 l 417 951 l 418 951 l 555 1088 l 655 1088 z "},"đ":{"ha":874,"x_min":75,"x_max":858,"o":"m 606 0 l 606 138 q 361 -17 525 -17 q 152 80 228 -17 q 75 347 75 178 q 161 630 75 524 q 390 736 247 736 q 606 636 520 736 l 606 853 l 389 853 l 389 937 l 606 937 l 606 1071 l 741 1071 l 741 937 l 858 937 l 858 853 l 741 853 l 741 0 l 606 0 m 606 552 q 411 636 515 636 q 218 360 218 636 q 389 100 218 100 q 606 222 500 100 l 606 552 z "},"­":{"ha":804,"x_min":100,"x_max":703,"o":"m 100 351 l 100 452 l 703 452 l 703 351 l 100 351 z "},"¯":{"ha":694,"x_min":58,"x_max":635,"o":"m 58 987 l 58 1088 l 635 1088 l 635 987 l 58 987 z "},"·":{"ha":439,"x_min":136,"x_max":303,"o":"m 136 333 l 136 500 l 303 500 l 303 333 l 136 333 z "},"Ā":{"ha":958,"x_min":12,"x_max":943,"o":"m 638 384 l 467 817 l 296 384 l 638 384 m 789 0 l 680 278 l 254 278 l 144 0 l 12 0 l 410 1004 l 551 1004 l 943 0 l 789 0 m 262 1088 l 262 1188 l 698 1188 l 698 1088 l 262 1088 z "},"ā":{"ha":767,"x_min":70,"x_max":733,"o":"m 513 94 q 282 -17 393 -17 q 130 40 191 -17 q 70 185 70 98 q 171 371 70 306 q 462 435 273 435 l 494 435 l 494 524 q 362 652 494 652 q 134 587 256 652 l 134 698 q 387 753 269 753 q 569 697 510 753 q 627 524 627 642 l 627 191 q 698 76 627 76 q 724 79 707 76 l 733 5 q 633 -17 688 -17 q 513 94 539 -17 m 494 166 l 494 357 l 449 358 q 271 316 339 358 q 203 207 203 275 q 237 125 203 159 q 320 92 271 92 q 494 166 404 92 m 153 870 l 153 970 l 589 970 l 589 870 l 153 870 z "},"Ă":{"ha":958,"x_min":12,"x_max":943,"o":"m 638 384 l 467 817 l 296 384 l 638 384 m 789 0 l 680 278 l 254 278 l 144 0 l 12 0 l 410 1004 l 551 1004 l 943 0 l 789 0 m 251 1305 l 334 1305 q 381 1217 345 1246 q 477 1188 416 1188 q 573 1217 537 1188 q 619 1305 608 1246 l 703 1305 q 631 1147 692 1206 q 477 1088 569 1088 q 323 1147 385 1088 q 251 1305 262 1206 z "},"ă":{"ha":767,"x_min":70,"x_max":733,"o":"m 513 94 q 282 -17 393 -17 q 130 40 191 -17 q 70 185 70 98 q 171 371 70 306 q 462 435 273 435 l 494 435 l 494 524 q 362 652 494 652 q 134 587 256 652 l 134 698 q 387 753 269 753 q 569 697 510 753 q 627 524 627 642 l 627 191 q 698 76 627 76 q 724 79 707 76 l 733 5 q 633 -17 688 -17 q 513 94 539 -17 m 494 166 l 494 357 l 449 358 q 271 316 339 358 q 203 207 203 275 q 237 125 203 159 q 320 92 271 92 q 494 166 404 92 m 176 1088 l 259 1088 q 306 1000 270 1029 q 401 970 341 970 q 497 1000 462 970 q 544 1088 533 1029 l 627 1088 q 555 929 617 989 q 401 870 494 870 q 248 929 309 870 q 176 1088 186 989 z "},"Ą":{"ha":958,"x_min":12,"x_max":943,"o":"m 638 384 l 467 817 l 296 384 l 638 384 m 789 0 l 680 278 l 254 278 l 144 0 l 12 0 l 410 1004 l 551 1004 l 943 0 l 789 0 m 789 0 l 861 0 q 795 -56 817 -26 q 774 -122 774 -87 q 793 -170 774 -154 q 852 -186 812 -186 q 913 -176 890 -186 l 913 -231 q 820 -251 873 -251 q 716 -224 751 -251 q 682 -143 682 -197 q 708 -65 682 -100 q 789 0 735 -29 z "},"ą":{"ha":767,"x_min":70,"x_max":733,"o":"m 513 94 q 282 -17 393 -17 q 130 40 191 -17 q 70 185 70 98 q 171 371 70 306 q 462 435 273 435 l 494 435 l 494 524 q 362 652 494 652 q 134 587 256 652 l 134 698 q 387 753 269 753 q 569 697 510 753 q 627 524 627 642 l 627 191 q 698 76 627 76 q 724 79 707 76 l 733 5 q 633 -17 688 -17 q 513 94 539 -17 m 494 166 l 494 357 l 449 358 q 271 316 339 358 q 203 207 203 275 q 237 125 203 159 q 320 92 271 92 q 494 166 404 92 m 586 0 l 659 0 q 593 -56 614 -26 q 571 -122 571 -87 q 590 -170 571 -154 q 649 -186 610 -186 q 711 -176 687 -186 l 711 -231 q 617 -251 670 -251 q 513 -224 548 -251 q 479 -143 479 -197 q 506 -65 479 -100 q 586 0 532 -29 z "},"Ĉ":{"ha":961,"x_min":71,"x_max":884,"o":"m 559 -25 q 198 112 326 -25 q 71 501 71 250 q 200 890 71 752 q 566 1029 330 1029 q 882 985 701 1029 l 882 851 q 564 922 676 922 q 311 812 401 922 q 222 500 222 701 q 317 197 222 308 q 578 86 413 86 q 884 174 721 86 l 884 52 q 559 -25 735 -25 m 323 1088 l 487 1305 l 635 1305 l 798 1088 l 698 1088 l 562 1225 l 560 1225 l 424 1088 l 323 1088 z "},"ĉ":{"ha":711,"x_min":75,"x_max":651,"o":"m 421 -17 q 174 94 272 -17 q 75 372 75 204 q 173 652 75 552 q 444 753 270 753 q 637 729 530 753 l 637 617 q 452 650 524 650 q 288 573 350 650 q 226 368 226 496 q 290 168 226 244 q 456 91 353 91 q 645 138 548 91 l 645 22 q 421 -17 515 -17 m 176 870 l 340 1088 l 488 1088 l 651 870 l 551 870 l 414 1007 l 413 1007 l 277 870 l 176 870 z "},"Ċ":{"ha":961,"x_min":71,"x_max":884,"o":"m 559 -25 q 198 112 326 -25 q 71 501 71 250 q 200 890 71 752 q 566 1029 330 1029 q 882 985 701 1029 l 882 851 q 564 922 676 922 q 311 812 401 922 q 222 500 222 701 q 317 197 222 308 q 578 86 413 86 q 884 174 721 86 l 884 52 q 559 -25 735 -25 m 495 1088 l 495 1221 l 629 1221 l 629 1088 l 495 1088 z "},"ċ":{"ha":711,"x_min":75,"x_max":645,"o":"m 421 -17 q 174 94 272 -17 q 75 372 75 204 q 173 652 75 552 q 444 753 270 753 q 637 729 530 753 l 637 617 q 452 650 524 650 q 288 573 350 650 q 226 368 226 496 q 290 168 226 244 q 456 91 353 91 q 645 138 548 91 l 645 22 q 421 -17 515 -17 m 370 870 l 370 1004 l 503 1004 l 503 870 l 370 870 z "},"Ď":{"ha":1040,"x_min":130,"x_max":970,"o":"m 130 0 l 130 1004 l 463 1004 q 704 970 612 1004 q 863 858 796 937 q 970 526 970 732 q 838 138 970 275 q 465 0 705 0 l 130 0 m 272 106 l 454 106 q 731 212 650 106 q 819 512 819 323 q 732 790 819 689 q 608 874 680 852 q 389 897 535 897 l 272 897 l 272 106 m 744 1305 l 581 1088 l 433 1088 l 269 1305 l 370 1305 l 506 1168 l 507 1168 l 644 1305 l 744 1305 z "},"ď":{"ha":991,"x_min":75,"x_max":991,"o":"m 606 0 l 606 138 q 361 -17 525 -17 q 152 80 228 -17 q 75 345 75 177 q 162 641 75 529 q 389 753 248 753 q 606 652 520 753 l 606 1071 l 741 1071 l 741 0 l 606 0 m 606 561 q 410 652 503 652 q 218 359 218 652 q 389 100 218 100 q 606 222 500 100 l 606 561 m 858 763 l 858 803 q 897 841 884 810 q 909 926 909 871 l 909 937 l 858 937 l 858 1071 l 991 1071 l 991 955 q 958 818 991 865 q 858 763 924 770 z "},"Đ":{"ha":1040,"x_min":-21,"x_max":970,"o":"m 130 0 l 130 460 l -21 460 l -21 567 l 130 567 l 130 1004 l 463 1004 q 705 970 613 1004 q 863 858 796 937 q 970 526 970 732 q 838 138 970 275 q 465 0 705 0 l 130 0 m 272 106 l 454 106 q 731 212 650 106 q 819 512 819 323 q 732 790 819 689 q 608 874 680 852 q 389 897 535 897 l 272 897 l 272 567 l 498 567 l 498 460 l 272 460 l 272 106 z "},"Ē":{"ha":753,"x_min":130,"x_max":720,"o":"m 130 0 l 130 1004 l 690 1004 l 690 897 l 272 897 l 272 575 l 623 575 l 623 470 l 272 470 l 272 106 l 720 106 l 720 0 l 130 0 m 213 1088 l 213 1188 l 648 1188 l 648 1088 l 213 1088 z "},"ē":{"ha":774,"x_min":75,"x_max":677,"o":"m 673 24 q 444 -17 539 -17 q 178 91 281 -17 q 75 372 75 199 q 166 646 75 539 q 397 753 256 753 q 604 659 531 753 q 677 389 677 564 l 676 347 l 212 347 q 469 85 241 85 q 673 130 552 85 l 673 24 m 218 448 l 543 448 q 389 653 543 653 q 218 448 235 653 m 184 870 l 184 970 l 620 970 l 620 870 l 184 870 z "},"Ĕ":{"ha":753,"x_min":130,"x_max":720,"o":"m 130 0 l 130 1004 l 690 1004 l 690 897 l 272 897 l 272 575 l 623 575 l 623 470 l 272 470 l 272 106 l 720 106 l 720 0 l 130 0 m 199 1305 l 282 1305 q 329 1217 293 1246 q 425 1188 364 1188 q 520 1217 485 1188 q 567 1305 556 1246 l 650 1305 q 578 1147 640 1206 q 425 1088 517 1088 q 271 1147 332 1088 q 199 1305 210 1206 z "},"ĕ":{"ha":774,"x_min":75,"x_max":677,"o":"m 673 24 q 444 -17 539 -17 q 178 91 281 -17 q 75 372 75 199 q 166 646 75 539 q 397 753 256 753 q 604 659 531 753 q 677 389 677 564 l 676 347 l 212 347 q 469 85 241 85 q 673 130 552 85 l 673 24 m 218 448 l 543 448 q 389 653 543 653 q 218 448 235 653 m 178 1088 l 261 1088 q 308 1000 272 1029 q 404 970 343 970 q 499 1000 464 970 q 546 1088 535 1029 l 629 1088 q 557 929 619 989 q 404 870 496 870 q 250 929 311 870 q 178 1088 189 989 z "},"Ė":{"ha":753,"x_min":130,"x_max":720,"o":"m 130 0 l 130 1004 l 690 1004 l 690 897 l 272 897 l 272 575 l 623 575 l 623 470 l 272 470 l 272 106 l 720 106 l 720 0 l 130 0 m 352 1088 l 352 1221 l 486 1221 l 486 1088 l 352 1088 z "},"ė":{"ha":774,"x_min":75,"x_max":677,"o":"m 673 24 q 444 -17 539 -17 q 178 91 281 -17 q 75 372 75 199 q 166 646 75 539 q 397 753 256 753 q 604 659 531 753 q 677 389 677 564 l 676 347 l 212 347 q 469 85 241 85 q 673 130 552 85 l 673 24 m 218 448 l 543 448 q 389 653 543 653 q 218 448 235 653 m 326 870 l 326 1004 l 460 1004 l 460 870 l 326 870 z "},"Ę":{"ha":753,"x_min":130,"x_max":720,"o":"m 130 0 l 130 1004 l 690 1004 l 690 897 l 272 897 l 272 575 l 623 575 l 623 470 l 272 470 l 272 106 l 720 106 l 720 0 l 130 0 m 570 0 l 642 0 q 576 -56 598 -26 q 555 -122 555 -87 q 574 -170 555 -154 q 633 -186 593 -186 q 694 -176 671 -186 l 694 -231 q 601 -251 654 -251 q 497 -224 532 -251 q 463 -143 463 -197 q 489 -65 463 -100 q 570 0 516 -29 z "},"ę":{"ha":774,"x_min":75,"x_max":677,"o":"m 673 24 q 444 -17 539 -17 q 178 91 281 -17 q 75 372 75 199 q 166 646 75 539 q 397 753 256 753 q 604 659 531 753 q 677 389 677 564 l 676 347 l 212 347 q 469 85 241 85 q 673 130 552 85 l 673 24 m 218 448 l 543 448 q 389 653 543 653 q 218 448 235 653 m 470 0 l 543 0 q 477 -56 498 -26 q 455 -122 455 -87 q 474 -170 455 -154 q 533 -186 494 -186 q 595 -176 571 -186 l 595 -231 q 501 -251 554 -251 q 397 -224 432 -251 q 363 -143 363 -197 q 390 -65 363 -100 q 470 0 416 -29 z "},"Ě":{"ha":753,"x_min":130,"x_max":720,"o":"m 130 0 l 130 1004 l 690 1004 l 690 897 l 272 897 l 272 575 l 623 575 l 623 470 l 272 470 l 272 106 l 720 106 l 720 0 l 130 0 m 661 1305 l 498 1088 l 350 1088 l 186 1305 l 287 1305 l 423 1168 l 425 1168 l 561 1305 l 661 1305 z "},"ě":{"ha":774,"x_min":75,"x_max":677,"o":"m 673 24 q 444 -17 539 -17 q 178 91 281 -17 q 75 372 75 199 q 166 646 75 539 q 397 753 256 753 q 604 659 531 753 q 677 389 677 564 l 676 347 l 212 347 q 469 85 241 85 q 673 130 552 85 l 673 24 m 218 448 l 543 448 q 389 653 543 653 q 218 448 235 653 m 623 1088 l 460 870 l 312 870 l 149 1088 l 249 1088 l 385 951 l 387 951 l 523 1088 l 623 1088 z "},"Ĝ":{"ha":1004,"x_min":71,"x_max":884,"o":"m 884 27 q 566 -25 701 -25 q 198 111 326 -25 q 71 502 71 248 q 200 890 71 751 q 564 1029 330 1029 q 882 983 717 1029 l 882 852 q 564 922 675 922 q 312 812 401 922 q 222 500 222 701 q 318 192 222 302 q 588 81 414 81 q 742 106 659 81 l 742 433 l 884 433 l 884 27 m 325 1088 l 488 1305 l 636 1305 l 800 1088 l 699 1088 l 563 1225 l 562 1225 l 425 1088 l 325 1088 z "},"ĝ":{"ha":866,"x_min":75,"x_max":741,"o":"m 136 -245 l 152 -129 q 380 -184 268 -184 q 606 56 606 -184 l 606 172 q 363 17 532 17 q 153 113 231 17 q 75 373 75 210 q 164 647 75 541 q 394 753 253 753 q 606 652 517 753 l 606 736 l 741 736 l 741 201 q 723 -55 741 28 q 655 -191 705 -138 q 383 -284 568 -284 q 136 -245 254 -284 m 606 255 l 606 561 q 414 652 518 652 q 270 578 322 652 q 218 376 218 505 q 388 134 218 134 q 606 255 504 134 m 189 870 l 353 1088 l 500 1088 l 664 870 l 564 870 l 427 1007 l 426 1007 l 290 870 l 189 870 z "},"Ġ":{"ha":1004,"x_min":71,"x_max":884,"o":"m 884 27 q 566 -25 701 -25 q 198 111 326 -25 q 71 502 71 248 q 200 890 71 751 q 564 1029 330 1029 q 882 983 717 1029 l 882 852 q 564 922 675 922 q 312 812 401 922 q 222 500 222 701 q 318 192 222 302 q 588 81 414 81 q 742 106 659 81 l 742 433 l 884 433 l 884 27 m 495 1088 l 495 1221 l 629 1221 l 629 1088 l 495 1088 z "},"ġ":{"ha":866,"x_min":75,"x_max":741,"o":"m 136 -245 l 152 -129 q 380 -184 268 -184 q 606 56 606 -184 l 606 172 q 363 17 532 17 q 153 113 231 17 q 75 373 75 210 q 164 647 75 541 q 394 753 253 753 q 606 652 517 753 l 606 736 l 741 736 l 741 201 q 723 -55 741 28 q 655 -191 705 -138 q 383 -284 568 -284 q 136 -245 254 -284 m 606 255 l 606 561 q 414 652 518 652 q 270 578 322 652 q 218 376 218 505 q 388 134 218 134 q 606 255 504 134 m 349 870 l 349 1004 l 482 1004 l 482 870 l 349 870 z "},"Ģ":{"ha":1004,"x_min":71,"x_max":884,"o":"m 884 27 q 566 -25 701 -25 q 198 111 326 -25 q 71 502 71 248 q 200 890 71 751 q 564 1029 330 1029 q 882 983 717 1029 l 882 852 q 564 922 675 922 q 312 812 401 922 q 222 500 222 701 q 318 192 222 302 q 588 81 414 81 q 742 106 659 81 l 742 433 l 884 433 l 884 27 m 488 -441 l 488 -401 q 526 -363 513 -394 q 539 -279 539 -333 l 539 -268 l 488 -268 l 488 -134 l 621 -134 l 621 -250 q 588 -387 621 -339 q 488 -441 554 -435 z "},"ģ":{"ha":866,"x_min":75,"x_max":741,"o":"m 136 -245 l 152 -129 q 380 -184 268 -184 q 606 56 606 -184 l 606 172 q 363 17 532 17 q 153 113 231 17 q 75 373 75 210 q 164 647 75 541 q 394 753 253 753 q 606 652 517 753 l 606 736 l 741 736 l 741 201 q 723 -55 741 28 q 655 -191 705 -138 q 383 -284 568 -284 q 136 -245 254 -284 m 606 255 l 606 561 q 414 652 518 652 q 270 578 322 652 q 218 376 218 505 q 388 134 218 134 q 606 255 504 134 m 475 1178 l 475 1138 q 436 1100 449 1131 q 423 1015 423 1069 l 423 1004 l 475 1004 l 475 870 l 341 870 l 341 986 q 374 1123 341 1075 q 475 1178 408 1171 z "},"Ĥ":{"ha":1021,"x_min":130,"x_max":892,"o":"m 130 0 l 130 1004 l 272 1004 l 272 581 l 749 581 l 749 1004 l 892 1004 l 892 0 l 749 0 l 749 474 l 272 474 l 272 0 l 130 0 m 273 1088 l 437 1305 l 585 1305 l 748 1088 l 648 1088 l 511 1225 l 510 1225 l 374 1088 l 273 1088 z "},"ĥ":{"ha":862,"x_min":134,"x_max":736,"o":"m 134 0 l 134 1071 l 267 1071 l 267 598 q 526 753 373 753 q 679 692 622 753 q 736 529 736 631 l 736 0 l 602 0 l 602 486 q 578 603 602 568 q 498 637 554 637 q 267 477 376 637 l 267 0 l 134 0 m 201 1138 l 364 1356 l 512 1356 l 675 1138 l 575 1138 l 439 1275 l 437 1275 l 301 1138 l 201 1138 z "},"Ħ":{"ha":1097,"x_min":33,"x_max":1063,"o":"m 787 581 l 787 753 l 309 753 l 309 581 l 787 581 m 929 0 l 787 0 l 787 474 l 309 474 l 309 0 l 167 0 l 167 753 l 33 753 l 33 837 l 167 837 l 167 1004 l 309 1004 l 309 837 l 787 837 l 787 1004 l 929 1004 l 929 837 l 1063 837 l 1063 753 l 929 753 l 929 0 z "},"ħ":{"ha":862,"x_min":17,"x_max":736,"o":"m 268 582 q 527 736 374 736 q 680 676 623 736 q 736 512 736 615 l 736 0 l 603 0 l 603 469 q 579 586 603 551 q 499 621 555 621 q 268 460 376 621 l 268 0 l 134 0 l 134 853 l 17 853 l 17 937 l 134 937 l 134 1071 l 268 1071 l 268 937 l 486 937 l 486 853 l 268 853 l 268 582 z "},"Ĩ":{"ha":400,"x_min":-26,"x_max":426,"o":"m 129 0 l 129 1004 l 271 1004 l 271 0 l 129 0 m -26 1088 q 9 1207 -22 1167 q 100 1246 41 1246 q 191 1221 149 1246 l 232 1196 q 290 1172 270 1172 q 327 1191 313 1172 q 342 1246 340 1209 l 426 1246 q 391 1127 422 1167 q 300 1088 359 1088 q 209 1114 251 1088 l 168 1139 q 110 1162 130 1162 q 74 1144 87 1162 q 58 1088 60 1125 l -26 1088 z "},"ĩ":{"ha":401,"x_min":-25,"x_max":427,"o":"m 134 0 l 134 736 l 267 736 l 267 0 l 134 0 m -25 870 q 10 989 -22 949 q 100 1029 41 1029 q 192 1003 150 1029 l 233 978 q 291 954 271 954 q 327 973 314 954 q 343 1029 340 991 l 427 1029 q 391 910 422 949 q 301 870 360 870 q 210 897 252 870 l 169 922 q 111 945 131 945 q 74 926 87 945 q 58 870 61 907 l -25 870 z "},"Ī":{"ha":400,"x_min":-18,"x_max":418,"o":"m 129 0 l 129 1004 l 271 1004 l 271 0 l 129 0 m -18 1088 l -18 1188 l 418 1188 l 418 1088 l -18 1088 z "},"ī":{"ha":401,"x_min":-17,"x_max":418,"o":"m 134 0 l 134 736 l 267 736 l 267 0 l 134 0 m -17 870 l -17 970 l 418 970 l 418 870 l -17 870 z "},"Ĭ":{"ha":400,"x_min":-26,"x_max":426,"o":"m 129 0 l 129 1004 l 271 1004 l 271 0 l 129 0 m -26 1305 l 58 1305 q 104 1217 68 1246 q 200 1188 140 1188 q 296 1217 260 1188 q 342 1305 332 1246 l 426 1305 q 354 1147 416 1206 q 200 1088 292 1088 q 46 1147 108 1088 q -26 1305 -15 1206 z "},"ĭ":{"ha":401,"x_min":-25,"x_max":427,"o":"m 134 0 l 134 736 l 267 736 l 267 0 l 134 0 m -25 1088 l 58 1088 q 105 1000 69 1029 q 201 970 140 970 q 297 1000 261 970 q 343 1088 332 1029 l 427 1088 q 355 929 416 989 q 201 870 293 870 q 47 929 109 870 q -25 1088 -14 989 z "},"Į":{"ha":400,"x_min":84,"x_max":316,"o":"m 129 0 l 129 1004 l 271 1004 l 271 0 l 129 0 m 191 0 l 264 0 q 198 -56 220 -26 q 176 -122 176 -87 q 196 -170 176 -154 q 254 -186 215 -186 q 316 -176 292 -186 l 316 -231 q 222 -251 275 -251 q 119 -224 153 -251 q 84 -143 84 -197 q 111 -65 84 -100 q 191 0 138 -29 z "},"į":{"ha":401,"x_min":85,"x_max":317,"o":"m 134 0 l 134 736 l 267 736 l 267 0 l 134 0 m 134 870 l 134 1004 l 267 1004 l 267 870 l 134 870 m 192 0 l 264 0 q 199 -56 220 -26 q 177 -122 177 -87 q 196 -170 177 -154 q 255 -186 216 -186 q 317 -176 293 -186 l 317 -231 q 223 -251 276 -251 q 119 -224 154 -251 q 85 -143 85 -197 q 112 -65 85 -100 q 192 0 138 -29 z "},"Ĳ":{"ha":827,"x_min":129,"x_max":703,"o":"m 129 0 l 129 1004 l 271 1004 l 271 0 l 129 0 m 271 -186 l 271 -60 q 415 -87 353 -87 q 529 -40 496 -87 q 561 122 561 6 l 561 1004 l 703 1004 l 703 127 q 393 -201 703 -201 q 271 -186 346 -201 z "},"ĳ":{"ha":804,"x_min":134,"x_max":669,"o":"m 134 0 l 134 736 l 267 736 l 267 0 l 134 0 m 134 870 l 134 1004 l 267 1004 l 267 870 l 134 870 m 276 -250 l 276 -144 q 418 -184 370 -184 q 512 -147 489 -184 q 535 0 535 -111 l 535 736 l 669 736 l 669 0 q 429 -284 669 -284 q 276 -250 358 -284 m 535 870 l 535 1004 l 669 1004 l 669 870 l 535 870 z "},"Ĵ":{"ha":432,"x_min":-125,"x_max":473,"o":"m -125 -186 l -125 -60 q 19 -87 -43 -87 q 133 -40 100 -87 q 165 122 165 6 l 165 1004 l 307 1004 l 307 127 q -3 -201 307 -201 q -125 -186 -50 -201 m -1 1088 l 162 1305 l 310 1305 l 473 1088 l 373 1088 l 237 1225 l 235 1225 l 99 1088 l -1 1088 z "},"ĵ":{"ha":422,"x_min":-104,"x_max":459,"o":"m -104 -250 l -104 -144 q 38 -184 -11 -184 q 132 -147 109 -184 q 155 0 155 -111 l 155 736 l 289 736 l 289 0 q 229 -213 289 -142 q 49 -284 169 -284 q -104 -250 -22 -284 m -16 870 l 148 1088 l 296 1088 l 459 870 l 359 870 l 222 1007 l 221 1007 l 85 870 l -16 870 z "},"Ķ":{"ha":907,"x_min":130,"x_max":882,"o":"m 130 0 l 130 1004 l 263 1004 l 263 510 l 669 1004 l 812 1004 l 419 525 l 882 0 l 702 0 l 263 509 l 263 0 l 130 0 m 386 -441 l 386 -401 q 425 -363 412 -394 q 437 -279 437 -333 l 437 -268 l 386 -268 l 386 -134 l 519 -134 l 519 -250 q 486 -387 519 -339 q 386 -441 452 -435 z "},"ķ":{"ha":812,"x_min":134,"x_max":785,"o":"m 134 0 l 134 1071 l 267 1071 l 267 379 l 579 736 l 723 736 l 425 393 l 785 0 l 614 0 l 267 378 l 267 0 l 134 0 m 359 -441 l 359 -401 q 397 -363 385 -394 q 410 -279 410 -333 l 410 -268 l 359 -268 l 359 -134 l 492 -134 l 492 -250 q 459 -387 492 -339 q 359 -441 425 -435 z "},"ĸ":{"ha":812,"x_min":134,"x_max":785,"o":"m 134 0 l 134 736 l 267 736 l 267 379 l 579 736 l 723 736 l 425 393 l 785 0 l 614 0 l 267 378 l 267 0 l 134 0 z "},"Ĺ":{"ha":741,"x_min":117,"x_max":724,"o":"m 130 0 l 130 1004 l 272 1004 l 272 106 l 724 106 l 724 0 l 130 0 m 117 1088 l 280 1305 l 435 1305 l 217 1088 l 117 1088 z "},"ĺ":{"ha":401,"x_min":100,"x_max":418,"o":"m 134 0 l 134 1071 l 267 1071 l 267 0 l 134 0 m 100 1138 l 264 1356 l 418 1356 l 201 1138 l 100 1138 z "},"Ļ":{"ha":741,"x_min":130,"x_max":724,"o":"m 130 0 l 130 1004 l 272 1004 l 272 106 l 724 106 l 724 0 l 130 0 m 338 -441 l 338 -401 q 377 -363 364 -394 q 390 -279 390 -333 l 390 -268 l 338 -268 l 338 -134 l 472 -134 l 472 -250 q 438 -387 472 -339 q 338 -441 405 -435 z "},"ļ":{"ha":401,"x_min":134,"x_max":267,"o":"m 134 0 l 134 1071 l 267 1071 l 267 0 l 134 0 m 134 -441 l 134 -401 q 172 -363 159 -394 q 185 -279 185 -333 l 185 -268 l 134 -268 l 134 -134 l 267 -134 l 267 -250 q 234 -387 267 -339 q 134 -441 200 -435 z "},"Ľ":{"ha":741,"x_min":130,"x_max":724,"o":"m 130 0 l 130 1004 l 272 1004 l 272 106 l 724 106 l 724 0 l 130 0 m 473 696 l 473 736 q 524 859 524 750 l 524 869 l 473 869 l 473 1004 l 606 1004 l 606 888 q 473 696 606 709 z "},"ľ":{"ha":519,"x_min":134,"x_max":519,"o":"m 134 0 l 134 1071 l 267 1071 l 267 0 l 134 0 m 385 763 l 385 803 q 437 926 437 817 l 437 937 l 385 937 l 385 1071 l 519 1071 l 519 955 q 385 763 519 776 z "},"Ŀ":{"ha":741,"x_min":130,"x_max":724,"o":"m 130 0 l 130 1004 l 272 1004 l 272 106 l 724 106 l 724 0 l 130 0 m 504 435 l 504 569 l 637 569 l 637 435 l 504 435 z "},"ŀ":{"ha":536,"x_min":134,"x_max":535,"o":"m 134 0 l 134 1071 l 267 1071 l 267 0 l 134 0 m 401 469 l 401 602 l 535 602 l 535 469 l 401 469 z "},"Ń":{"ha":1026,"x_min":130,"x_max":897,"o":"m 130 0 l 130 1004 l 269 1004 l 774 229 l 774 1004 l 897 1004 l 897 0 l 758 0 l 252 775 l 252 0 l 130 0 m 413 1088 l 576 1305 l 731 1305 l 513 1088 l 413 1088 z "},"ń":{"ha":862,"x_min":134,"x_max":736,"o":"m 134 0 l 134 736 l 267 736 l 267 598 q 526 753 373 753 q 679 692 622 753 q 736 529 736 631 l 736 0 l 602 0 l 602 486 q 578 603 602 568 q 498 637 554 637 q 267 477 376 637 l 267 0 l 134 0 m 317 870 l 481 1088 l 635 1088 l 418 870 l 317 870 z "},"Ņ":{"ha":1026,"x_min":130,"x_max":897,"o":"m 130 0 l 130 1004 l 269 1004 l 774 229 l 774 1004 l 897 1004 l 897 0 l 758 0 l 252 775 l 252 0 l 130 0 m 437 -441 l 437 -401 q 476 -363 463 -394 q 489 -279 489 -333 l 489 -268 l 437 -268 l 437 -134 l 571 -134 l 571 -250 q 537 -387 571 -339 q 437 -441 504 -435 z "},"ņ":{"ha":862,"x_min":134,"x_max":736,"o":"m 134 0 l 134 736 l 267 736 l 267 598 q 526 753 373 753 q 679 692 622 753 q 736 529 736 631 l 736 0 l 602 0 l 602 486 q 578 603 602 568 q 498 637 554 637 q 267 477 376 637 l 267 0 l 134 0 m 368 -441 l 368 -401 q 406 -363 393 -394 q 419 -279 419 -333 l 419 -268 l 368 -268 l 368 -134 l 501 -134 l 501 -250 q 468 -387 501 -339 q 368 -441 434 -435 z "},"Ň":{"ha":1026,"x_min":130,"x_max":897,"o":"m 130 0 l 130 1004 l 269 1004 l 774 229 l 774 1004 l 897 1004 l 897 0 l 758 0 l 252 775 l 252 0 l 130 0 m 749 1305 l 586 1088 l 438 1088 l 275 1305 l 375 1305 l 511 1168 l 513 1168 l 649 1305 l 749 1305 z "},"ň":{"ha":862,"x_min":134,"x_max":736,"o":"m 134 0 l 134 736 l 267 736 l 267 598 q 526 753 373 753 q 679 692 622 753 q 736 529 736 631 l 736 0 l 602 0 l 602 486 q 578 603 602 568 q 498 637 554 637 q 267 477 376 637 l 267 0 l 134 0 m 671 1088 l 508 870 l 360 870 l 197 1088 l 297 1088 l 433 951 l 435 951 l 571 1088 l 671 1088 z "},"ŉ":{"ha":962,"x_min":33,"x_max":836,"o":"m 234 0 l 234 736 l 368 736 l 368 598 q 627 753 473 753 q 779 692 722 753 q 836 529 836 631 l 836 0 l 703 0 l 703 486 q 679 603 703 568 q 599 637 654 637 q 368 477 476 637 l 368 0 l 234 0 m 33 763 l 33 803 q 85 926 85 817 l 85 937 l 33 937 l 33 1071 l 167 1071 l 167 955 q 33 763 167 776 z "},"Ŋ":{"ha":1026,"x_min":130,"x_max":897,"o":"m 130 0 l 130 1004 l 269 1004 l 774 229 l 774 1004 l 897 1004 l 897 -62 q 839 -226 897 -167 q 679 -285 781 -285 q 578 -271 629 -285 l 578 -166 q 677 -184 620 -184 q 751 -148 726 -184 q 775 -37 775 -111 l 775 -27 l 252 775 l 252 0 l 130 0 z "},"ŋ":{"ha":862,"x_min":134,"x_max":736,"o":"m 134 0 l 134 736 l 267 736 l 267 598 q 526 753 373 753 q 679 692 622 753 q 736 529 736 631 l 736 -62 q 679 -226 736 -167 q 518 -285 621 -285 q 418 -271 469 -285 l 418 -166 q 503 -184 460 -184 q 577 -148 552 -184 q 602 -37 602 -111 l 602 486 q 578 603 602 568 q 498 637 554 637 q 267 477 376 637 l 267 0 l 134 0 z "},"Ō":{"ha":1079,"x_min":71,"x_max":1009,"o":"m 534 -25 q 198 120 325 -25 q 71 503 71 264 q 198 885 71 742 q 540 1029 326 1029 q 881 886 753 1029 q 1009 504 1009 743 q 881 118 1009 260 q 534 -25 753 -25 m 536 81 q 774 192 690 81 q 858 505 858 303 q 773 812 858 701 q 540 922 689 922 q 306 811 390 922 q 222 503 222 701 q 305 194 222 307 q 536 81 389 81 m 322 1088 l 322 1188 l 758 1188 l 758 1088 l 322 1088 z "},"ō":{"ha":853,"x_min":75,"x_max":778,"o":"m 422 -17 q 170 88 264 -17 q 75 368 75 193 q 170 649 75 546 q 427 753 264 753 q 683 649 589 753 q 778 370 778 546 q 683 86 778 189 q 422 -17 588 -17 m 424 83 q 636 370 636 83 q 427 652 636 652 q 218 368 218 652 q 424 83 218 83 m 209 870 l 209 970 l 644 970 l 644 870 l 209 870 z "},"Ŏ":{"ha":1079,"x_min":71,"x_max":1009,"o":"m 534 -25 q 198 120 325 -25 q 71 503 71 264 q 198 885 71 742 q 540 1029 326 1029 q 881 886 753 1029 q 1009 504 1009 743 q 881 118 1009 260 q 534 -25 753 -25 m 536 81 q 774 192 690 81 q 858 505 858 303 q 773 812 858 701 q 540 922 689 922 q 306 811 390 922 q 222 503 222 701 q 305 194 222 307 q 536 81 389 81 m 314 1305 l 397 1305 q 444 1217 408 1246 q 540 1188 479 1188 q 636 1217 600 1188 q 682 1305 671 1246 l 766 1305 q 694 1147 755 1206 q 540 1088 632 1088 q 386 1147 448 1088 q 314 1305 325 1206 z "},"ŏ":{"ha":853,"x_min":75,"x_max":778,"o":"m 422 -17 q 170 88 264 -17 q 75 368 75 193 q 170 649 75 546 q 427 753 264 753 q 683 649 589 753 q 778 370 778 546 q 683 86 778 189 q 422 -17 588 -17 m 424 83 q 636 370 636 83 q 427 652 636 652 q 218 368 218 652 q 424 83 218 83 m 201 1088 l 284 1088 q 331 1000 295 1029 q 427 970 366 970 q 523 1000 487 970 q 569 1088 558 1029 l 652 1088 q 581 929 642 989 q 427 870 519 870 q 273 929 334 870 q 201 1088 212 989 z "},"Ő":{"ha":1079,"x_min":71,"x_max":1009,"o":"m 534 -25 q 198 120 325 -25 q 71 503 71 264 q 198 885 71 742 q 540 1029 326 1029 q 881 886 753 1029 q 1009 504 1009 743 q 881 118 1009 260 q 534 -25 753 -25 m 536 81 q 774 192 690 81 q 858 505 858 303 q 773 812 858 701 q 540 922 689 922 q 306 811 390 922 q 222 503 222 701 q 305 194 222 307 q 536 81 389 81 m 383 1088 l 547 1305 l 676 1305 l 458 1088 l 383 1088 m 622 1088 l 785 1305 l 914 1305 l 697 1088 l 622 1088 z "},"ő":{"ha":853,"x_min":75,"x_max":801,"o":"m 422 -17 q 170 88 264 -17 q 75 368 75 193 q 170 649 75 546 q 427 753 264 753 q 683 649 589 753 q 778 370 778 546 q 683 86 778 189 q 422 -17 588 -17 m 424 83 q 636 370 636 83 q 427 652 636 652 q 218 368 218 652 q 424 83 218 83 m 270 870 l 433 1088 l 563 1088 l 345 870 l 270 870 m 509 870 l 671 1088 l 801 1088 l 584 870 l 509 870 z "},"Ŕ":{"ha":878,"x_min":130,"x_max":864,"o":"m 130 0 l 130 1004 l 433 1004 q 655 940 578 1004 q 732 755 732 876 q 529 470 732 554 l 864 0 l 689 0 l 404 425 l 271 425 l 271 0 l 130 0 m 271 531 l 317 531 q 585 742 585 531 q 360 897 585 897 l 271 897 l 271 531 m 321 1088 l 484 1305 l 639 1305 l 421 1088 l 321 1088 z "},"ŕ":{"ha":568,"x_min":134,"x_max":541,"o":"m 134 0 l 134 736 l 267 736 l 267 598 q 498 753 347 753 q 541 749 518 753 l 541 625 q 479 636 506 636 q 267 486 353 636 l 267 0 l 134 0 m 220 870 l 383 1088 l 538 1088 l 320 870 l 220 870 z "},"Ŗ":{"ha":878,"x_min":130,"x_max":864,"o":"m 130 0 l 130 1004 l 433 1004 q 655 940 578 1004 q 732 755 732 876 q 529 470 732 554 l 864 0 l 689 0 l 404 425 l 271 425 l 271 0 l 130 0 m 271 531 l 317 531 q 585 742 585 531 q 360 897 585 897 l 271 897 l 271 531 m 393 -441 l 393 -401 q 432 -363 419 -394 q 445 -279 445 -333 l 445 -268 l 393 -268 l 393 -134 l 527 -134 l 527 -250 q 493 -387 527 -339 q 393 -441 460 -435 z "},"ŗ":{"ha":568,"x_min":134,"x_max":541,"o":"m 134 0 l 134 736 l 267 736 l 267 598 q 498 753 347 753 q 541 749 518 753 l 541 625 q 479 636 506 636 q 267 486 353 636 l 267 0 l 134 0 m 134 -441 l 134 -401 q 172 -363 159 -394 q 185 -279 185 -333 l 185 -268 l 134 -268 l 134 -134 l 267 -134 l 267 -250 q 234 -387 267 -339 q 134 -441 200 -435 z "},"Ř":{"ha":878,"x_min":130,"x_max":864,"o":"m 130 0 l 130 1004 l 433 1004 q 655 940 578 1004 q 732 755 732 876 q 529 470 732 554 l 864 0 l 689 0 l 404 425 l 271 425 l 271 0 l 130 0 m 271 531 l 317 531 q 585 742 585 531 q 360 897 585 897 l 271 897 l 271 531 m 641 1305 l 477 1088 l 330 1088 l 166 1305 l 267 1305 l 403 1168 l 404 1168 l 541 1305 l 641 1305 z "},"ř":{"ha":568,"x_min":104,"x_max":579,"o":"m 134 0 l 134 736 l 267 736 l 267 598 q 498 753 347 753 q 541 749 518 753 l 541 625 q 479 636 506 636 q 267 486 353 636 l 267 0 l 134 0 m 579 1088 l 416 870 l 268 870 l 104 1088 l 205 1088 l 341 951 l 342 951 l 479 1088 l 579 1088 z "},"Ś":{"ha":748,"x_min":68,"x_max":679,"o":"m 326 -25 q 68 19 225 -25 l 68 160 q 347 81 237 81 q 482 125 431 81 q 533 241 533 170 q 499 342 533 300 q 376 434 466 383 l 307 474 q 126 612 178 547 q 73 763 73 677 q 157 954 73 879 q 372 1029 241 1029 q 616 990 488 1029 l 616 860 q 380 922 458 922 q 258 883 306 922 q 210 784 210 844 q 245 695 210 734 q 374 603 280 656 l 446 562 q 627 422 576 488 q 679 264 679 357 q 582 54 679 134 q 326 -25 486 -25 m 290 1088 l 453 1305 l 608 1305 l 390 1088 l 290 1088 z "},"ś":{"ha":708,"x_min":106,"x_max":602,"o":"m 329 -17 q 106 26 237 -17 l 106 149 q 334 83 237 83 q 430 115 392 83 q 468 193 468 146 q 361 306 468 261 l 283 339 q 111 546 111 411 q 179 697 111 642 q 366 753 247 753 q 518 736 427 753 l 546 730 l 546 619 q 368 652 434 652 q 239 559 239 652 q 337 457 239 498 l 401 430 q 556 333 511 384 q 602 205 602 281 q 525 45 602 108 q 329 -17 448 -17 m 237 870 l 400 1088 l 555 1088 l 337 870 l 237 870 z "},"Ŝ":{"ha":748,"x_min":68,"x_max":679,"o":"m 326 -25 q 68 19 225 -25 l 68 160 q 347 81 237 81 q 482 125 431 81 q 533 241 533 170 q 499 342 533 300 q 376 434 466 383 l 307 474 q 126 612 178 547 q 73 763 73 677 q 157 954 73 879 q 372 1029 241 1029 q 616 990 488 1029 l 616 860 q 380 922 458 922 q 258 883 306 922 q 210 784 210 844 q 245 695 210 734 q 374 603 280 656 l 446 562 q 627 422 576 488 q 679 264 679 357 q 582 54 679 134 q 326 -25 486 -25 m 140 1088 l 303 1305 l 451 1305 l 614 1088 l 514 1088 l 378 1225 l 376 1225 l 240 1088 l 140 1088 z "},"ŝ":{"ha":708,"x_min":106,"x_max":602,"o":"m 329 -17 q 106 26 237 -17 l 106 149 q 334 83 237 83 q 430 115 392 83 q 468 193 468 146 q 361 306 468 261 l 283 339 q 111 546 111 411 q 179 697 111 642 q 366 753 247 753 q 518 736 427 753 l 546 730 l 546 619 q 368 652 434 652 q 239 559 239 652 q 337 457 239 498 l 401 430 q 556 333 511 384 q 602 205 602 281 q 525 45 602 108 q 329 -17 448 -17 m 119 870 l 282 1088 l 430 1088 l 593 870 l 493 870 l 357 1007 l 355 1007 l 219 870 l 119 870 z "},"Ţ":{"ha":878,"x_min":12,"x_max":867,"o":"m 368 0 l 368 897 l 12 897 l 12 1004 l 867 1004 l 867 897 l 511 897 l 511 0 l 368 0 m 418 0 l 484 0 l 444 -74 q 536 -106 496 -74 q 575 -182 575 -138 q 535 -261 575 -229 q 439 -293 496 -293 q 340 -279 390 -293 l 340 -224 q 411 -234 371 -234 q 463 -221 446 -234 q 481 -184 481 -209 q 449 -135 481 -151 q 354 -119 417 -119 l 418 0 z "},"ţ":{"ha":519,"x_min":47,"x_max":474,"o":"m 355 -17 q 196 41 253 -17 q 139 203 139 100 l 139 636 l 47 636 l 47 736 l 139 736 l 139 870 l 273 883 l 273 736 l 465 736 l 465 636 l 273 636 l 273 228 q 397 83 273 83 q 462 92 424 83 l 462 0 q 355 -17 400 -17 m 317 0 l 383 0 l 342 -74 q 435 -106 395 -74 q 474 -182 474 -138 q 434 -261 474 -229 q 338 -293 395 -293 q 239 -279 289 -293 l 239 -224 q 310 -234 270 -234 q 362 -221 345 -234 q 380 -184 380 -209 q 348 -135 380 -151 q 253 -119 316 -119 l 317 0 z "},"Ť":{"ha":878,"x_min":12,"x_max":867,"o":"m 368 0 l 368 897 l 12 897 l 12 1004 l 867 1004 l 867 897 l 511 897 l 511 0 l 368 0 m 677 1305 l 513 1088 l 366 1088 l 202 1305 l 302 1305 l 439 1168 l 440 1168 l 576 1305 l 677 1305 z "},"ť":{"ha":524,"x_min":47,"x_max":524,"o":"m 355 -17 q 196 41 253 -17 q 139 203 139 100 l 139 636 l 47 636 l 47 736 l 139 736 l 139 870 l 273 883 l 273 736 l 465 736 l 465 636 l 273 636 l 273 228 q 397 83 273 83 q 462 92 424 83 l 462 0 q 355 -17 400 -17 m 390 853 l 390 893 q 441 1016 441 907 l 441 1027 l 390 1027 l 390 1161 l 524 1161 l 524 1045 q 390 853 524 866 z "},"Ŧ":{"ha":878,"x_min":12,"x_max":867,"o":"m 511 0 l 368 0 l 368 485 l 163 485 l 163 585 l 368 585 l 368 897 l 12 897 l 12 1004 l 867 1004 l 867 897 l 511 897 l 511 585 l 716 585 l 716 485 l 511 485 l 511 0 z "},"ŧ":{"ha":519,"x_min":47,"x_max":465,"o":"m 462 92 l 462 0 q 355 -17 400 -17 q 196 41 253 -17 q 139 203 139 100 l 139 385 l 47 385 l 47 469 l 139 469 l 139 636 l 47 636 l 47 736 l 139 736 l 139 870 l 273 883 l 273 736 l 465 736 l 465 636 l 273 636 l 273 469 l 465 469 l 465 385 l 273 385 l 273 228 q 304 119 273 155 q 397 83 335 83 q 462 92 424 83 z "},"Ũ":{"ha":962,"x_min":121,"x_max":842,"o":"m 121 1004 l 264 1004 l 264 370 q 320 150 264 219 q 498 81 376 81 q 667 146 617 81 q 717 366 717 211 l 717 1004 l 842 1004 l 842 368 q 757 68 842 162 q 488 -25 673 -25 q 211 72 300 -25 q 121 372 121 169 l 121 1004 m 256 1088 q 291 1207 259 1167 q 381 1246 322 1246 q 473 1221 431 1246 l 513 1196 q 572 1172 551 1172 q 608 1191 595 1172 q 624 1246 621 1209 l 707 1246 q 672 1127 703 1167 q 582 1088 641 1088 q 490 1114 532 1088 l 450 1139 q 391 1162 412 1162 q 355 1144 368 1162 q 339 1088 342 1125 l 256 1088 z "},"ũ":{"ha":862,"x_min":125,"x_max":728,"o":"m 594 0 l 594 138 q 336 -17 488 -17 q 182 44 239 -17 q 125 208 125 104 l 125 736 l 259 736 l 259 251 q 283 133 259 168 q 363 98 307 98 q 594 259 486 98 l 594 736 l 728 736 l 728 0 l 594 0 m 201 870 q 236 989 204 949 q 326 1029 267 1029 q 418 1003 376 1029 l 458 978 q 517 954 496 954 q 553 973 540 954 q 569 1029 566 991 l 652 1029 q 617 910 648 949 q 527 870 586 870 q 435 897 477 870 l 395 922 q 336 945 357 945 q 300 926 313 945 q 284 870 287 907 l 201 870 z "},"Ū":{"ha":962,"x_min":121,"x_max":842,"o":"m 121 1004 l 264 1004 l 264 370 q 320 150 264 219 q 498 81 376 81 q 667 146 617 81 q 717 366 717 211 l 717 1004 l 842 1004 l 842 368 q 757 68 842 162 q 488 -25 673 -25 q 211 72 300 -25 q 121 372 121 169 l 121 1004 m 273 1088 l 273 1188 l 708 1188 l 708 1088 l 273 1088 z "},"ū":{"ha":862,"x_min":125,"x_max":728,"o":"m 594 0 l 594 138 q 336 -17 488 -17 q 182 44 239 -17 q 125 208 125 104 l 125 736 l 259 736 l 259 251 q 283 133 259 168 q 363 98 307 98 q 594 259 486 98 l 594 736 l 728 736 l 728 0 l 594 0 m 209 870 l 209 970 l 644 970 l 644 870 l 209 870 z "},"Ŭ":{"ha":962,"x_min":121,"x_max":842,"o":"m 121 1004 l 264 1004 l 264 370 q 320 150 264 219 q 498 81 376 81 q 667 146 617 81 q 717 366 717 211 l 717 1004 l 842 1004 l 842 368 q 757 68 842 162 q 488 -25 673 -25 q 211 72 300 -25 q 121 372 121 169 l 121 1004 m 264 1305 l 348 1305 q 394 1217 359 1246 q 490 1188 430 1188 q 586 1217 551 1188 q 633 1305 622 1246 l 716 1305 q 644 1147 706 1206 q 490 1088 583 1088 q 337 1147 398 1088 q 264 1305 275 1206 z "},"ŭ":{"ha":862,"x_min":125,"x_max":728,"o":"m 594 0 l 594 138 q 336 -17 488 -17 q 182 44 239 -17 q 125 208 125 104 l 125 736 l 259 736 l 259 251 q 283 133 259 168 q 363 98 307 98 q 594 259 486 98 l 594 736 l 728 736 l 728 0 l 594 0 m 201 1088 l 284 1088 q 331 1000 295 1029 q 427 970 366 970 q 523 1000 487 970 q 569 1088 558 1029 l 652 1088 q 581 929 642 989 q 427 870 519 870 q 273 929 334 870 q 201 1088 212 989 z "},"Ů":{"ha":962,"x_min":121,"x_max":842,"o":"m 121 1004 l 264 1004 l 264 370 q 320 150 264 219 q 498 81 376 81 q 667 146 617 81 q 717 366 717 211 l 717 1004 l 842 1004 l 842 368 q 757 68 842 162 q 488 -25 673 -25 q 211 72 300 -25 q 121 372 121 169 l 121 1004 m 479 1071 q 372 1116 416 1071 q 328 1225 328 1161 q 372 1334 328 1289 q 481 1379 417 1379 q 590 1334 545 1379 q 635 1225 635 1289 q 590 1115 635 1160 q 479 1071 545 1071 m 480 1129 q 549 1157 521 1129 q 577 1225 577 1185 q 549 1293 577 1265 q 481 1320 521 1320 q 414 1293 441 1320 q 386 1225 386 1265 q 414 1157 386 1185 q 480 1129 441 1129 z "},"ů":{"ha":862,"x_min":125,"x_max":728,"o":"m 594 0 l 594 138 q 336 -17 488 -17 q 182 44 239 -17 q 125 208 125 104 l 125 736 l 259 736 l 259 251 q 283 133 259 168 q 363 98 307 98 q 594 259 486 98 l 594 736 l 728 736 l 728 0 l 594 0 m 425 870 q 317 915 361 870 q 273 1024 273 960 q 317 1133 273 1088 q 427 1178 362 1178 q 535 1133 490 1178 q 581 1024 581 1088 q 535 915 581 959 q 425 870 490 870 m 425 928 q 494 956 466 928 q 522 1025 522 984 q 494 1092 522 1064 q 427 1120 466 1120 q 359 1092 387 1120 q 331 1024 331 1064 q 359 957 331 985 q 425 928 387 928 z "},"Ű":{"ha":962,"x_min":121,"x_max":865,"o":"m 121 1004 l 264 1004 l 264 370 q 320 150 264 219 q 498 81 376 81 q 667 146 617 81 q 717 366 717 211 l 717 1004 l 842 1004 l 842 368 q 757 68 842 162 q 488 -25 673 -25 q 211 72 300 -25 q 121 372 121 169 l 121 1004 m 334 1088 l 497 1305 l 627 1305 l 409 1088 l 334 1088 m 572 1088 l 735 1305 l 865 1305 l 648 1088 l 572 1088 z "},"ű":{"ha":862,"x_min":125,"x_max":790,"o":"m 594 0 l 594 138 q 336 -17 488 -17 q 182 44 239 -17 q 125 208 125 104 l 125 736 l 259 736 l 259 251 q 283 133 259 168 q 363 98 307 98 q 594 259 486 98 l 594 736 l 728 736 l 728 0 l 594 0 m 259 870 l 422 1088 l 552 1088 l 334 870 l 259 870 m 498 870 l 661 1088 l 790 1088 l 573 870 l 498 870 z "},"Ų":{"ha":962,"x_min":121,"x_max":842,"o":"m 121 1004 l 264 1004 l 264 370 q 320 150 264 219 q 498 81 376 81 q 667 146 617 81 q 717 366 717 211 l 717 1004 l 842 1004 l 842 368 q 757 68 842 162 q 488 -25 673 -25 q 211 72 300 -25 q 121 372 121 169 l 121 1004 m 562 0 l 635 0 q 569 -56 591 -26 q 547 -122 547 -87 q 567 -170 547 -154 q 625 -186 586 -186 q 687 -176 663 -186 l 687 -231 q 593 -251 646 -251 q 490 -224 524 -251 q 455 -143 455 -197 q 482 -65 455 -100 q 562 0 509 -29 z "},"ų":{"ha":862,"x_min":125,"x_max":728,"o":"m 594 0 l 594 138 q 336 -17 488 -17 q 182 44 239 -17 q 125 208 125 104 l 125 736 l 259 736 l 259 251 q 283 133 259 168 q 363 98 307 98 q 594 259 486 98 l 594 736 l 728 736 l 728 0 l 594 0 m 593 0 l 666 0 q 600 -56 622 -26 q 578 -122 578 -87 q 598 -170 578 -154 q 656 -186 617 -186 q 718 -176 694 -186 l 718 -231 q 625 -251 677 -251 q 521 -224 555 -251 q 486 -143 486 -197 q 513 -65 486 -100 q 593 0 540 -29 z "},"Ŵ":{"ha":1188,"x_min":1,"x_max":1186,"o":"m 260 0 l 1 1004 l 138 1004 l 344 211 l 533 1004 l 670 1004 l 849 222 l 1070 1004 l 1186 1004 l 905 0 l 763 0 l 586 774 l 401 0 l 260 0 m 364 1088 l 528 1305 l 675 1305 l 839 1088 l 739 1088 l 602 1225 l 601 1225 l 465 1088 l 364 1088 z "},"ŵ":{"ha":1070,"x_min":8,"x_max":1061,"o":"m 219 0 l 8 736 l 139 736 l 300 166 l 475 736 l 608 736 l 761 166 l 946 736 l 1061 736 l 821 0 l 686 0 l 530 570 l 354 0 l 219 0 m 304 870 l 467 1088 l 615 1088 l 779 870 l 678 870 l 542 1007 l 541 1007 l 404 870 l 304 870 z "},"Ŷ":{"ha":865,"x_min":12,"x_max":848,"o":"m 347 0 l 347 419 l 12 1004 l 174 1004 l 435 551 l 715 1004 l 848 1004 l 489 422 l 489 0 l 347 0 m 208 1088 l 371 1305 l 519 1305 l 682 1088 l 582 1088 l 446 1225 l 444 1225 l 308 1088 l 208 1088 z "},"ŷ":{"ha":726,"x_min":11,"x_max":718,"o":"m 176 -268 l 296 0 l 11 736 l 155 736 l 366 182 l 591 736 l 718 736 l 315 -268 l 176 -268 m 136 870 l 299 1088 l 447 1088 l 610 870 l 510 870 l 374 1007 l 372 1007 l 236 870 l 136 870 z "},"Ź":{"ha":840,"x_min":64,"x_max":774,"o":"m 64 0 l 64 114 l 604 897 l 98 897 l 98 1004 l 774 1004 l 774 897 l 235 114 l 774 114 l 774 0 l 64 0 m 328 1088 l 491 1305 l 646 1305 l 428 1088 l 328 1088 z "},"ź":{"ha":796,"x_min":83,"x_max":713,"o":"m 83 0 l 83 100 l 539 636 l 104 636 l 104 736 l 704 736 l 704 636 l 248 100 l 713 100 l 713 0 l 83 0 m 281 870 l 444 1088 l 599 1088 l 381 870 l 281 870 z "},"Ż":{"ha":840,"x_min":64,"x_max":774,"o":"m 64 0 l 64 114 l 604 897 l 98 897 l 98 1004 l 774 1004 l 774 897 l 235 114 l 774 114 l 774 0 l 64 0 m 370 1088 l 370 1221 l 503 1221 l 503 1088 l 370 1088 z "},"ż":{"ha":796,"x_min":83,"x_max":713,"o":"m 83 0 l 83 100 l 539 636 l 104 636 l 104 736 l 704 736 l 704 636 l 248 100 l 713 100 l 713 0 l 83 0 m 331 870 l 331 1004 l 465 1004 l 465 870 l 331 870 z "},"ſ":{"ha":451,"x_min":54,"x_max":551,"o":"m 159 0 l 159 636 l 54 636 l 54 736 l 159 736 l 159 825 q 219 1022 159 956 q 399 1088 279 1088 q 551 1065 466 1088 l 551 960 q 407 987 461 987 q 317 956 341 987 q 293 839 293 924 l 293 0 l 159 0 z "},"Ǻ":{"ha":958,"x_min":12,"x_max":943,"o":"m 638 384 l 467 817 l 296 384 l 638 384 m 789 0 l 680 278 l 254 278 l 144 0 l 12 0 l 410 1004 l 551 1004 l 943 0 l 789 0 m 478 1004 q 371 1049 415 1004 q 326 1158 326 1095 q 371 1267 326 1222 q 480 1312 416 1312 q 589 1267 544 1312 q 634 1158 634 1223 q 589 1049 634 1093 q 478 1004 544 1004 m 479 1063 q 548 1090 519 1063 q 576 1159 576 1118 q 548 1226 576 1198 q 480 1254 519 1254 q 412 1226 440 1254 q 385 1158 385 1198 q 412 1091 385 1119 q 479 1063 440 1063 m 380 1362 l 543 1580 l 698 1580 l 480 1362 l 380 1362 z "},"ǻ":{"ha":767,"x_min":70,"x_max":733,"o":"m 513 94 q 282 -17 393 -17 q 130 40 191 -17 q 70 185 70 98 q 171 371 70 306 q 462 435 273 435 l 494 435 l 494 524 q 362 652 494 652 q 134 587 256 652 l 134 698 q 387 753 269 753 q 569 697 510 753 q 627 524 627 642 l 627 191 q 698 76 627 76 q 724 79 707 76 l 733 5 q 633 -17 688 -17 q 513 94 539 -17 m 494 166 l 494 357 l 449 358 q 271 316 339 358 q 203 207 203 275 q 237 125 203 159 q 320 92 271 92 q 494 166 404 92 m 383 837 q 276 882 320 837 q 231 991 231 927 q 276 1100 231 1055 q 385 1145 321 1145 q 494 1100 449 1145 q 539 991 539 1055 q 494 881 539 926 q 383 837 449 837 m 384 895 q 453 923 425 895 q 481 991 481 951 q 453 1059 481 1031 q 385 1086 425 1086 q 317 1059 345 1086 q 290 991 290 1031 q 317 923 290 951 q 384 895 345 895 m 289 1203 l 452 1421 l 607 1421 l 389 1203 l 289 1203 z "},"Ǽ":{"ha":1259,"x_min":12,"x_max":1226,"o":"m 12 0 l 596 1004 l 1195 1004 l 1195 897 l 776 897 l 776 575 l 1127 575 l 1127 470 l 776 470 l 776 106 l 1226 106 l 1226 0 l 633 0 l 633 281 l 306 281 l 142 0 l 12 0 m 366 386 l 633 386 l 633 841 l 366 386 m 675 1088 l 839 1305 l 994 1305 l 776 1088 l 675 1088 z "},"ǽ":{"ha":1182,"x_min":70,"x_max":1084,"o":"m 549 131 q 282 -17 420 -17 q 130 40 191 -17 q 70 185 70 98 q 171 371 70 306 q 462 435 273 435 l 494 435 l 494 524 q 461 620 494 588 q 362 652 428 652 q 134 587 256 652 l 134 698 q 387 753 269 753 q 595 671 519 753 q 800 753 678 753 q 1013 651 942 753 q 1084 347 1084 550 l 628 347 q 699 149 637 215 q 876 83 761 83 q 1084 132 970 83 l 1084 25 q 840 -17 953 -17 q 670 20 743 -17 q 549 131 597 57 m 494 166 l 494 357 l 449 358 q 271 316 339 358 q 203 207 203 275 q 237 125 203 159 q 320 92 271 92 q 494 166 404 92 m 632 439 l 941 439 q 905 600 941 546 q 796 653 869 653 q 681 600 722 653 q 632 439 640 546 m 482 870 l 646 1088 l 800 1088 l 583 870 l 482 870 z "},"Ǿ":{"ha":1079,"x_min":71,"x_max":1009,"o":"m 744 846 q 539 922 663 922 q 306 811 390 922 q 222 503 222 701 q 278 237 222 345 l 744 846 m 336 159 q 541 81 416 81 q 774 193 690 81 q 858 501 858 304 q 802 768 858 661 l 336 159 m 78 -25 l 193 125 q 71 503 71 272 q 198 885 71 742 q 539 1029 326 1029 q 819 943 700 1029 l 885 1029 l 1002 1029 l 887 880 q 1009 500 1009 733 q 881 119 1009 262 q 542 -25 753 -25 q 260 60 376 -25 l 195 -25 l 78 -25 m 439 1088 l 603 1305 l 758 1305 l 540 1088 l 439 1088 z "},"ǿ":{"ha":853,"x_min":75,"x_max":778,"o":"m 75 -17 l 163 96 l 161 98 q 75 366 75 197 q 170 649 75 545 q 427 753 264 753 q 633 695 547 753 l 679 753 l 778 753 l 690 641 l 692 638 q 778 369 778 530 q 684 87 778 191 q 427 -17 589 -17 q 221 41 309 -17 l 176 -17 l 75 -17 m 607 534 l 293 133 q 425 83 345 83 q 636 365 636 83 q 607 534 636 457 m 247 202 l 561 602 q 428 652 506 652 q 218 371 218 652 q 247 202 218 273 m 326 870 l 490 1088 l 644 1088 l 427 870 l 326 870 z "},"Ș":{"ha":748,"x_min":68,"x_max":679,"o":"m 326 -25 q 68 19 225 -25 l 68 160 q 347 81 237 81 q 482 125 431 81 q 533 241 533 170 q 499 342 533 300 q 376 434 466 383 l 307 474 q 126 612 178 547 q 73 763 73 677 q 157 954 73 879 q 372 1029 241 1029 q 616 990 488 1029 l 616 860 q 380 922 458 922 q 258 883 306 922 q 210 784 210 844 q 245 695 210 734 q 374 603 280 656 l 446 562 q 627 422 576 488 q 679 264 679 357 q 582 54 679 134 q 326 -25 486 -25 m 307 -441 l 307 -401 q 345 -363 332 -394 q 358 -279 358 -333 l 358 -268 l 307 -268 l 307 -134 l 440 -134 l 440 -250 q 407 -387 440 -339 q 307 -441 373 -435 z "},"ș":{"ha":708,"x_min":106,"x_max":602,"o":"m 329 -17 q 106 26 237 -17 l 106 149 q 334 83 237 83 q 430 115 392 83 q 468 193 468 146 q 361 306 468 261 l 283 339 q 111 546 111 411 q 179 697 111 642 q 366 753 247 753 q 518 736 427 753 l 546 730 l 546 619 q 368 652 434 652 q 239 559 239 652 q 337 457 239 498 l 401 430 q 556 333 511 384 q 602 205 602 281 q 525 45 602 108 q 329 -17 448 -17 m 287 -441 l 287 -401 q 326 -363 313 -394 q 338 -279 338 -333 l 338 -268 l 287 -268 l 287 -134 l 420 -134 l 420 -250 q 387 -387 420 -339 q 287 -441 353 -435 z "},"Ț":{"ha":878,"x_min":12,"x_max":867,"o":"m 368 0 l 368 897 l 12 897 l 12 1004 l 867 1004 l 867 897 l 511 897 l 511 0 l 368 0 m 372 -441 l 372 -401 q 411 -363 398 -394 q 424 -279 424 -333 l 424 -268 l 372 -268 l 372 -134 l 506 -134 l 506 -250 q 472 -387 506 -339 q 372 -441 439 -435 z "},"ț":{"ha":519,"x_min":47,"x_max":465,"o":"m 355 -17 q 196 41 253 -17 q 139 203 139 100 l 139 636 l 47 636 l 47 736 l 139 736 l 139 870 l 273 883 l 273 736 l 465 736 l 465 636 l 273 636 l 273 228 q 397 83 273 83 q 462 92 424 83 l 462 0 q 355 -17 400 -17 m 222 -441 l 222 -401 q 261 -363 248 -394 q 274 -279 274 -333 l 274 -268 l 222 -268 l 222 -134 l 356 -134 l 356 -250 q 322 -387 356 -339 q 222 -441 289 -435 z "},"ɐ":{"ha":767,"x_min":33,"x_max":696,"o":"m 253 643 q 485 753 374 753 q 636 695 576 753 q 696 551 696 638 q 595 365 696 430 q 304 300 494 300 l 273 301 l 273 212 q 306 115 273 147 q 405 83 338 83 q 633 149 510 83 l 633 39 q 380 -17 498 -17 q 198 39 256 -17 q 139 212 139 95 l 139 546 q 121 631 139 603 q 68 660 104 660 q 43 658 60 660 l 33 732 q 134 753 79 753 q 210 725 180 753 q 253 643 240 698 m 273 570 l 273 379 l 318 378 q 495 420 427 378 q 563 529 563 462 q 529 611 563 578 q 446 644 496 644 q 273 570 363 644 z "},"ɑ":{"ha":863,"x_min":75,"x_max":730,"o":"m 595 218 q 292 -17 473 -17 q 134 64 193 -17 q 75 282 75 145 q 189 618 75 475 q 478 753 296 753 q 595 736 534 753 l 730 736 l 730 0 l 595 0 l 595 218 m 595 643 q 493 665 547 665 q 291 567 365 665 q 218 300 218 469 q 249 156 218 204 q 343 109 280 109 q 595 359 471 109 l 595 643 z "},"ɒ":{"ha":863,"x_min":134,"x_max":788,"o":"m 267 518 q 572 753 391 753 q 729 672 671 753 q 788 454 788 591 q 674 118 788 261 q 385 -17 566 -17 q 267 0 329 -17 l 134 0 l 134 736 l 267 736 l 267 518 m 267 94 q 370 71 316 71 q 572 169 498 71 q 646 437 646 267 q 614 580 646 532 q 520 628 583 628 q 267 377 392 628 l 267 94 z "},"ɓ":{"ha":874,"x_min":134,"x_max":799,"o":"m 134 -8 l 134 667 q 218 983 134 878 q 473 1088 303 1088 q 652 1059 562 1088 l 652 942 q 466 987 562 987 q 313 908 359 987 q 267 642 267 829 l 267 598 q 513 753 349 753 q 723 656 646 753 q 799 391 799 559 q 712 95 799 208 q 485 -17 626 -17 q 267 83 354 -17 l 251 -8 l 134 -8 m 267 176 q 464 83 370 83 q 608 157 560 83 q 656 377 656 230 q 613 571 656 507 q 485 636 570 636 q 267 515 374 636 l 267 176 z "},"ɔ":{"ha":703,"x_min":58,"x_max":628,"o":"m 58 714 q 282 753 188 753 q 530 642 431 753 q 628 364 628 532 q 531 83 628 184 q 259 -17 433 -17 q 66 7 172 -17 l 66 119 q 250 85 180 85 q 415 163 353 85 q 477 368 477 240 q 414 569 477 492 q 247 646 350 646 q 58 599 155 646 l 58 714 z "},"ɕ":{"ha":774,"x_min":75,"x_max":732,"o":"m 345 122 q 473 83 409 83 q 585 115 537 83 q 632 189 632 146 q 558 248 632 248 q 345 122 450 248 m 286 26 q 250 -134 250 -32 l 149 -134 q 203 81 149 -15 q 75 381 75 200 q 178 655 75 557 q 464 753 280 753 q 636 731 557 753 l 636 619 q 451 652 544 652 q 280 581 342 652 q 218 383 218 509 q 275 189 218 273 q 556 347 408 347 q 682 302 631 347 q 732 189 732 257 q 656 42 732 101 q 467 -17 580 -17 q 286 26 377 -17 z "},"ɖ":{"ha":887,"x_min":75,"x_max":924,"o":"m 606 561 q 410 652 503 652 q 266 579 313 652 q 218 359 218 505 q 260 165 218 229 q 389 100 303 100 q 606 222 500 100 l 606 561 m 606 138 q 361 -17 525 -17 q 152 80 228 -17 q 75 345 75 177 q 162 641 75 529 q 389 753 248 753 q 606 652 520 753 l 606 1071 l 741 1071 l 741 -37 q 765 -148 741 -111 q 840 -184 790 -184 q 924 -166 882 -184 l 924 -271 q 825 -285 874 -285 q 664 -226 722 -285 q 606 -62 606 -167 l 606 138 z "},"ɗ":{"ha":887,"x_min":75,"x_max":924,"o":"m 606 561 q 410 652 503 652 q 266 579 313 652 q 218 359 218 505 q 260 165 218 229 q 389 100 303 100 q 606 222 500 100 l 606 561 m 606 652 l 606 865 q 664 1029 606 970 q 825 1088 722 1088 q 924 1074 874 1088 l 924 969 q 840 987 882 987 q 765 950 790 987 q 741 840 741 913 l 741 0 l 606 0 l 606 138 q 361 -17 525 -17 q 152 80 228 -17 q 75 345 75 177 q 162 641 75 529 q 389 753 248 753 q 606 652 520 753 z "},"ɘ":{"ha":774,"x_min":98,"x_max":699,"o":"m 102 24 l 102 130 q 307 85 222 85 q 485 150 420 85 q 563 347 549 216 l 98 347 l 98 391 q 171 659 98 564 q 378 753 244 753 q 609 646 519 753 q 699 372 699 539 q 597 91 699 199 q 331 -17 494 -17 q 102 24 235 -17 m 557 448 q 505 602 548 550 q 386 653 463 653 q 270 602 309 653 q 232 448 232 550 l 557 448 z "},"ə":{"ha":774,"x_min":98,"x_max":699,"o":"m 102 712 q 331 753 235 753 q 597 645 494 753 q 699 365 699 537 q 609 90 699 197 q 377 -17 519 -17 q 171 78 243 -17 q 98 348 98 173 l 98 389 l 563 389 q 484 586 549 520 q 306 652 420 652 q 102 607 222 652 l 102 712 m 557 289 l 232 289 q 270 135 232 186 q 386 83 309 83 q 505 135 463 83 q 557 289 548 186 z "},"ɚ":{"ha":1083,"x_min":96,"x_max":1074,"o":"m 96 713 q 322 753 241 753 q 541 691 456 753 q 675 496 626 629 l 928 562 l 928 413 q 944 297 928 328 q 1006 267 960 267 q 1074 289 1035 267 l 1074 184 q 982 166 1014 166 q 866 219 905 166 q 827 380 827 273 l 827 431 l 694 395 l 694 361 q 605 90 694 196 q 377 -17 516 -17 q 171 78 246 -17 q 96 338 96 172 l 548 460 q 460 605 522 556 q 301 653 398 653 q 96 607 219 653 l 96 713 m 558 358 l 228 269 l 231 238 q 278 122 240 161 q 382 83 315 83 q 514 152 470 83 q 558 358 558 220 z "},"ɛ":{"ha":661,"x_min":75,"x_max":577,"o":"m 577 131 l 577 23 q 370 -17 469 -17 q 160 47 244 -17 q 75 208 75 112 q 125 331 75 275 q 254 410 174 387 q 117 579 117 479 q 183 709 117 666 q 380 753 248 753 q 561 729 499 753 l 561 629 l 553 630 q 386 653 469 653 q 278 631 314 653 q 243 566 243 610 q 484 444 243 444 l 502 444 l 502 343 l 407 343 q 264 306 320 343 q 209 211 209 269 q 254 115 209 147 q 389 83 298 83 q 567 127 473 83 l 577 131 z "},"ɜ":{"ha":661,"x_min":83,"x_max":585,"o":"m 83 131 l 94 127 q 273 83 187 83 q 407 115 362 83 q 452 211 452 147 q 396 306 452 269 q 254 343 340 343 l 159 343 l 159 444 l 177 444 q 358 474 298 444 q 418 566 418 505 q 382 631 418 610 q 275 653 347 653 q 107 630 192 653 l 100 629 l 100 729 q 281 753 161 753 q 478 709 412 753 q 544 579 544 666 q 510 487 544 529 q 407 410 475 444 q 536 331 486 387 q 585 208 585 275 q 501 47 585 112 q 291 -17 417 -17 q 83 23 192 -17 l 83 131 z "},"ɝ":{"ha":916,"x_min":83,"x_max":907,"o":"m 83 131 l 94 127 q 273 83 187 83 q 407 115 362 83 q 452 211 452 147 q 396 306 452 269 q 254 343 340 343 l 159 343 l 159 444 l 177 444 q 358 474 298 444 q 418 566 418 505 q 382 631 418 610 q 275 653 347 653 q 107 630 192 653 l 100 629 l 100 729 q 281 753 161 753 q 505 682 434 753 l 761 750 l 761 601 q 777 486 761 516 q 838 455 793 455 q 907 477 868 455 l 907 373 q 814 355 846 355 q 699 408 737 355 q 661 568 661 461 l 661 619 l 543 587 l 544 576 q 510 486 544 528 q 407 410 475 444 q 536 331 486 387 q 585 208 585 275 q 501 47 585 112 q 291 -17 417 -17 q 83 23 192 -17 l 83 131 z "},"ɞ":{"ha":812,"x_min":75,"x_max":745,"o":"m 605 394 q 710 320 675 365 q 745 216 745 276 q 659 47 745 112 q 435 -17 574 -17 q 170 82 265 -17 q 75 355 75 180 q 175 647 75 541 q 450 753 275 753 q 659 703 581 753 q 736 566 736 652 q 700 465 736 512 q 605 394 664 417 m 342 334 l 342 435 l 412 435 q 564 464 513 435 q 615 548 615 492 q 566 623 615 594 q 439 652 516 652 q 258 574 324 652 q 192 357 192 495 q 252 152 192 220 q 434 83 313 83 q 561 121 512 83 q 610 220 610 159 q 561 306 610 277 q 414 334 512 334 l 342 334 z "},"ɟ":{"ha":565,"x_min":-33,"x_max":528,"o":"m -33 -144 q 109 -184 60 -184 q 203 -147 180 -184 q 226 0 226 -111 l 226 100 l 59 100 l 59 201 l 226 201 l 226 736 l 360 736 l 360 201 l 528 201 l 528 100 l 360 100 l 360 0 q 300 -213 360 -142 q 120 -284 240 -284 q -33 -250 49 -284 l -33 -144 z "},"ɠ":{"ha":887,"x_min":75,"x_max":924,"o":"m 136 -245 l 152 -129 q 380 -184 268 -184 q 550 -124 493 -184 q 606 56 606 -64 l 606 172 q 363 17 532 17 q 153 113 231 17 q 75 373 75 210 q 164 647 75 541 q 394 753 253 753 q 606 652 517 753 l 606 865 q 664 1029 606 970 q 825 1088 722 1088 q 924 1074 874 1088 l 924 969 q 840 987 882 987 q 765 950 790 987 q 741 840 741 913 l 741 201 q 723 -55 741 28 q 655 -191 705 -138 q 383 -284 568 -284 q 136 -245 254 -284 m 606 255 l 606 561 q 414 652 518 652 q 270 578 322 652 q 218 376 218 505 q 260 194 218 254 q 388 134 302 134 q 606 255 504 134 z "},"ɡ":{"ha":866,"x_min":75,"x_max":741,"o":"m 606 235 q 472 80 560 142 q 300 17 384 17 q 137 99 199 17 q 75 315 75 181 q 191 630 75 507 q 487 753 306 753 q 606 736 545 753 l 741 736 l 741 201 q 723 -55 741 28 q 655 -191 705 -138 q 383 -284 568 -284 q 136 -245 254 -284 l 152 -129 q 380 -184 268 -184 q 550 -124 493 -184 q 606 56 606 -64 l 606 235 m 606 643 q 505 665 558 665 q 295 576 373 665 q 218 335 218 487 q 251 190 218 238 q 351 142 284 142 q 484 200 420 142 q 606 376 547 258 l 606 643 z "},"ɢ":{"ha":814,"x_min":75,"x_max":713,"o":"m 713 20 q 464 -17 568 -17 q 176 83 276 -17 q 75 368 75 182 q 177 652 75 551 q 462 753 279 753 q 711 723 581 753 l 711 618 q 475 652 558 652 q 280 580 345 652 q 216 363 216 508 q 282 152 216 227 q 469 77 348 77 q 578 87 513 77 l 578 327 l 713 327 l 713 20 z "},"ɣ":{"ha":746,"x_min":0,"x_max":721,"o":"m 718 736 q 721 693 721 707 q 662 520 721 637 q 486 225 603 403 l 454 178 q 475 144 471 151 l 517 82 q 572 -81 572 -1 q 519 -234 572 -183 q 361 -285 467 -285 q 218 -237 272 -285 q 163 -111 163 -189 q 317 172 163 -3 q 199 407 245 307 q 102 581 140 536 q 0 639 64 626 l 62 745 q 177 694 132 736 q 267 554 222 652 l 349 374 q 398 269 361 348 q 549 527 498 421 q 599 692 599 633 q 595 736 599 707 l 718 736 m 370 80 q 269 -102 269 -22 q 293 -170 269 -147 q 366 -193 317 -193 q 435 -170 412 -193 q 458 -101 458 -146 q 370 80 458 -35 z "},"ɤ":{"ha":817,"x_min":33,"x_max":783,"o":"m 33 604 l 33 715 q 145 753 84 753 q 288 690 218 753 q 422 498 357 626 q 552 690 484 626 q 697 753 621 753 q 783 725 739 753 l 783 606 q 701 644 739 644 q 590 584 645 644 q 482 401 536 523 q 604 159 604 273 q 548 30 604 77 q 396 -17 492 -17 q 262 28 311 -17 q 213 152 213 73 q 353 397 213 260 q 235 583 292 521 q 125 644 178 644 q 33 604 79 644 m 406 313 q 329 157 329 233 q 349 96 329 116 q 410 75 369 75 q 470 94 450 75 q 490 150 490 113 q 406 313 490 220 z "},"ɥ":{"ha":862,"x_min":125,"x_max":728,"o":"m 728 736 l 728 -268 l 594 -268 l 594 138 q 336 -17 488 -17 q 182 44 239 -17 q 125 208 125 104 l 125 736 l 259 736 l 259 251 q 283 133 259 168 q 363 98 307 98 q 594 259 486 98 l 594 736 l 728 736 z "},"ɦ":{"ha":862,"x_min":134,"x_max":736,"o":"m 134 0 l 134 667 q 218 983 134 878 q 473 1088 303 1088 q 652 1059 562 1088 l 652 942 q 466 987 562 987 q 313 908 359 987 q 267 642 267 829 l 267 598 q 526 753 373 753 q 679 692 622 753 q 736 529 736 631 l 736 0 l 602 0 l 602 486 q 578 603 602 568 q 498 637 554 637 q 267 477 376 637 l 267 0 l 134 0 z "},"ɧ":{"ha":862,"x_min":134,"x_max":736,"o":"m 134 0 l 134 667 q 218 983 134 878 q 473 1088 303 1088 q 652 1059 562 1088 l 652 942 q 466 987 562 987 q 313 908 359 987 q 267 642 267 829 l 267 598 q 526 753 373 753 q 679 692 622 753 q 736 529 736 631 l 736 -62 q 679 -226 736 -167 q 518 -285 621 -285 q 418 -271 469 -285 l 418 -166 q 503 -184 460 -184 q 577 -148 552 -184 q 602 -37 602 -111 l 602 486 q 578 603 602 568 q 498 637 554 637 q 267 477 376 637 l 267 0 l 134 0 z "},"ɨ":{"ha":535,"x_min":33,"x_max":502,"o":"m 201 0 l 201 376 l 33 376 l 33 469 l 201 469 l 201 736 l 334 736 l 334 469 l 502 469 l 502 376 l 334 376 l 334 0 l 201 0 m 201 870 l 201 1004 l 334 1004 l 334 870 l 201 870 z "},"ɩ":{"ha":515,"x_min":130,"x_max":473,"o":"m 473 12 q 342 -17 410 -17 q 179 47 228 -17 q 130 259 130 111 l 130 736 l 263 736 l 263 272 q 287 126 263 169 q 370 83 311 83 q 473 112 419 83 l 473 12 z "},"ɪ":{"ha":569,"x_min":83,"x_max":485,"o":"m 83 0 l 83 100 l 217 100 l 217 636 l 83 636 l 83 736 l 485 736 l 485 636 l 351 636 l 351 100 l 485 100 l 485 0 l 83 0 z "},"ɫ":{"ha":703,"x_min":25,"x_max":677,"o":"m 418 1071 l 418 599 q 507 577 464 577 q 559 604 541 577 q 576 686 576 631 l 577 703 l 677 703 q 635 533 677 589 q 507 477 592 477 q 418 493 465 477 l 418 0 l 284 0 l 284 532 q 197 552 238 552 q 143 520 161 552 q 125 427 125 489 l 25 427 q 68 596 25 539 q 199 652 112 652 q 284 640 244 652 l 284 1071 l 418 1071 z "},"ɬ":{"ha":665,"x_min":17,"x_max":649,"o":"m 314 0 l 314 358 q 91 421 165 366 q 17 581 17 477 q 72 719 17 665 q 212 772 126 772 q 314 747 258 772 l 314 1072 l 448 1072 l 448 463 q 649 529 538 479 l 649 422 q 448 362 543 376 l 448 0 l 314 0 m 314 640 q 228 672 283 672 q 151 649 176 672 q 125 582 125 627 q 173 499 125 530 q 314 458 220 469 l 314 640 z "},"ɭ":{"ha":414,"x_min":134,"x_max":452,"o":"m 134 1071 l 267 1071 l 267 -37 q 292 -148 267 -111 q 367 -184 317 -184 q 452 -166 410 -184 l 452 -271 q 351 -285 401 -285 q 191 -226 249 -285 q 134 -62 134 -167 l 134 1071 z "},"ɮ":{"ha":912,"x_min":134,"x_max":849,"o":"m 267 1071 l 267 736 l 824 736 l 824 636 l 528 323 q 762 237 675 315 q 849 34 849 159 q 744 -198 849 -102 q 477 -284 649 -284 q 301 -262 406 -284 l 301 -152 q 480 -184 416 -184 q 644 -128 582 -184 q 707 19 707 -73 q 630 180 707 126 q 401 233 554 233 l 401 334 l 685 636 l 267 636 l 267 0 l 134 0 l 134 1071 l 267 1071 z "},"ɯ":{"ha":1297,"x_min":125,"x_max":1163,"o":"m 1163 736 l 1163 0 l 1029 0 l 1029 138 q 779 -17 932 -17 q 654 22 705 -17 q 577 138 604 60 q 330 -17 482 -17 q 179 40 233 -17 q 125 201 125 97 l 125 736 l 259 736 l 259 222 q 284 126 259 158 q 359 95 309 95 q 577 243 463 95 l 577 736 l 711 736 l 711 222 q 737 126 711 158 q 813 94 762 94 q 1029 243 914 94 l 1029 736 l 1163 736 z "},"ɰ":{"ha":1297,"x_min":125,"x_max":1163,"o":"m 1163 736 l 1163 -268 l 1029 -268 l 1029 138 q 779 -17 932 -17 q 654 22 705 -17 q 577 138 604 60 q 330 -17 482 -17 q 179 40 233 -17 q 125 201 125 97 l 125 736 l 259 736 l 259 222 q 284 126 259 158 q 359 95 309 95 q 577 243 463 95 l 577 736 l 711 736 l 711 222 q 737 126 711 158 q 813 94 762 94 q 1029 243 914 94 l 1029 736 l 1163 736 z "},"ɱ":{"ha":1297,"x_min":134,"x_max":1171,"o":"m 134 0 l 134 736 l 267 736 l 267 598 q 518 753 365 753 q 642 714 592 753 q 720 598 692 675 q 966 753 814 753 q 1118 696 1064 753 q 1171 536 1171 639 l 1171 -62 q 1114 -226 1171 -167 q 954 -285 1056 -285 q 853 -271 903 -285 l 853 -166 q 938 -184 895 -184 q 1012 -148 987 -184 q 1037 -37 1037 -111 l 1037 515 q 1012 609 1037 578 q 937 641 987 641 q 720 494 833 641 l 720 0 l 585 0 l 585 515 q 560 610 585 578 q 484 642 534 642 q 267 494 382 642 l 267 0 l 134 0 z "},"ɲ":{"ha":874,"x_min":-38,"x_max":749,"o":"m 146 736 l 280 736 l 280 598 q 538 753 386 753 q 692 692 635 753 q 749 529 749 631 l 749 0 l 614 0 l 614 486 q 591 603 614 568 q 511 637 567 637 q 280 477 388 637 l 280 -62 q 222 -226 280 -167 q 62 -285 165 -285 q -38 -271 13 -285 l -38 -166 q 47 -184 4 -184 q 121 -148 96 -184 q 146 -37 146 -111 l 146 736 z "},"ɳ":{"ha":883,"x_min":134,"x_max":920,"o":"m 267 477 l 267 0 l 134 0 l 134 736 l 267 736 l 267 598 q 526 753 373 753 q 679 692 622 753 q 736 529 736 631 l 736 -37 q 761 -148 736 -111 q 836 -184 785 -184 q 920 -166 878 -184 l 920 -271 q 820 -285 869 -285 q 660 -226 718 -285 q 602 -62 602 -167 l 602 486 q 578 603 602 568 q 498 637 554 637 q 267 477 376 637 z "},"ɴ":{"ha":870,"x_min":134,"x_max":736,"o":"m 134 0 l 134 736 l 251 736 l 617 208 l 619 208 l 619 736 l 736 736 l 736 0 l 619 0 l 252 528 l 251 528 l 251 0 l 134 0 z "},"ɵ":{"ha":853,"x_min":75,"x_max":778,"o":"m 217 330 q 278 145 226 207 q 427 83 330 83 q 575 145 522 83 q 637 330 627 207 l 217 330 m 218 422 l 635 422 q 570 595 623 537 q 427 652 518 652 q 282 595 334 652 q 218 422 231 537 m 422 -17 q 170 88 264 -17 q 75 368 75 193 q 170 649 75 546 q 427 753 264 753 q 683 649 589 753 q 778 370 778 546 q 683 86 778 189 q 422 -17 588 -17 z "},"ɶ":{"ha":1125,"x_min":75,"x_max":1058,"o":"m 597 14 q 441 -17 510 -17 q 176 89 276 -17 q 75 369 75 195 q 176 647 75 542 q 440 753 276 753 q 597 724 509 753 l 597 736 l 1044 736 l 1044 636 l 730 636 l 730 434 l 994 434 l 994 334 l 730 336 l 730 100 l 1058 100 l 1058 0 l 597 0 l 597 14 m 597 283 l 597 454 q 557 603 597 553 q 437 652 517 652 q 275 577 334 652 q 216 369 216 502 q 275 159 216 235 q 439 83 334 83 q 557 133 517 83 q 597 283 597 183 z "},"ɷ":{"ha":1121,"x_min":75,"x_max":1046,"o":"m 561 112 q 343 -17 472 -17 q 150 75 224 -17 q 75 313 75 168 q 207 634 75 515 q 561 753 338 753 q 914 634 783 753 q 1046 313 1046 515 q 971 75 1046 168 q 778 -17 897 -17 q 561 112 649 -17 m 511 231 q 481 357 481 296 q 511 498 481 427 l 610 498 q 640 357 640 427 q 610 231 640 296 q 767 104 661 104 q 875 164 834 104 q 916 322 916 224 q 827 555 916 457 q 561 652 739 652 q 294 555 382 652 q 205 322 205 457 q 246 164 205 224 q 354 104 287 104 q 511 231 460 104 z "},"ɸ":{"ha":1055,"x_min":67,"x_max":987,"o":"m 460 -268 l 460 22 q 174 116 281 22 q 67 367 67 210 q 174 617 67 524 q 460 711 281 711 l 460 1071 l 594 1071 l 594 711 q 880 617 773 711 q 987 367 987 524 q 880 116 987 210 q 594 22 773 22 l 594 -268 l 460 -268 m 460 609 q 266 539 330 600 q 201 366 201 479 q 273 191 201 258 q 460 123 345 123 l 460 609 m 594 609 l 594 123 q 782 191 709 123 q 854 366 854 258 q 789 539 854 479 q 594 609 724 600 z "},"ɹ":{"ha":568,"x_min":27,"x_max":434,"o":"m 434 736 l 434 0 l 300 0 l 300 138 q 203 22 260 60 q 70 -17 145 -17 q 27 -13 50 -17 l 27 112 q 89 100 62 100 q 205 138 152 100 q 300 251 258 176 l 300 736 l 434 736 z "},"ɺ":{"ha":568,"x_min":27,"x_max":434,"o":"m 434 1071 l 434 0 l 300 0 l 300 138 q 203 22 260 60 q 70 -17 145 -17 q 27 -13 50 -17 l 27 112 q 89 100 62 100 q 205 138 152 100 q 300 251 258 176 l 300 1071 l 434 1071 z "},"ɻ":{"ha":593,"x_min":27,"x_max":618,"o":"m 300 138 q 203 22 260 60 q 70 -17 145 -17 q 27 -13 50 -17 l 27 112 q 89 100 62 100 q 205 138 152 100 q 300 251 258 176 l 300 736 l 434 736 l 434 -37 q 459 -148 434 -111 q 534 -184 484 -184 q 618 -166 576 -184 l 618 -271 q 518 -285 568 -285 q 358 -226 416 -285 q 300 -62 300 -167 l 300 138 z "},"ɼ":{"ha":568,"x_min":134,"x_max":541,"o":"m 134 -268 l 134 736 l 267 736 l 267 598 q 364 714 307 675 q 498 753 422 753 q 541 749 518 753 l 541 625 q 479 636 506 636 q 363 598 416 636 q 267 486 310 561 l 267 -268 l 134 -268 z "},"ɽ":{"ha":568,"x_min":134,"x_max":541,"o":"m 134 736 l 267 736 l 267 598 q 364 714 307 675 q 498 753 422 753 q 541 749 518 753 l 541 625 q 479 636 506 636 q 363 598 416 636 q 267 486 310 561 l 267 -37 q 292 -148 267 -111 q 367 -184 317 -184 q 452 -166 410 -184 l 452 -271 q 351 -285 401 -285 q 191 -226 249 -285 q 134 -62 134 -167 l 134 736 z "},"ɾ":{"ha":571,"x_min":134,"x_max":543,"o":"m 134 0 l 134 401 q 199 665 134 577 q 395 753 264 753 q 543 726 471 753 l 543 616 q 398 652 469 652 q 295 601 322 652 q 267 401 267 549 l 267 0 l 134 0 z "},"ɿ":{"ha":571,"x_min":27,"x_max":437,"o":"m 437 0 l 303 0 l 303 401 q 276 601 303 549 q 172 652 249 652 q 27 616 102 652 l 27 726 q 176 753 100 753 q 371 665 306 753 q 437 401 437 577 l 437 0 z "},"ʀ":{"ha":764,"x_min":134,"x_max":737,"o":"m 134 0 l 134 736 l 414 736 q 582 691 526 736 q 638 554 638 645 q 604 428 638 480 q 500 345 569 376 l 737 0 l 575 0 l 370 301 l 267 301 l 267 0 l 134 0 m 267 401 l 327 401 q 457 436 414 401 q 501 540 501 471 q 466 616 501 595 q 334 636 431 636 l 267 636 l 267 401 z "},"ʁ":{"ha":764,"x_min":134,"x_max":737,"o":"m 134 736 l 267 736 l 267 435 l 370 435 l 575 736 l 737 736 l 500 391 q 604 308 569 359 q 638 182 638 256 q 582 45 638 91 q 414 0 526 0 l 134 0 l 134 736 m 267 335 l 267 100 l 334 100 q 466 120 431 100 q 501 196 501 140 q 457 300 501 265 q 327 335 414 335 l 267 335 z "},"ʂ":{"ha":707,"x_min":106,"x_max":602,"o":"m 418 -170 l 418 -271 q 311 -285 362 -285 q 158 -220 209 -285 q 106 -25 106 -155 l 106 149 q 334 83 237 83 q 430 115 392 83 q 468 193 468 146 q 441 255 468 227 q 361 306 414 283 l 283 339 q 154 427 197 375 q 111 546 111 478 q 179 697 111 642 q 366 753 247 753 q 518 736 427 753 l 546 730 l 546 619 q 368 652 434 652 q 272 629 304 652 q 239 559 239 606 q 264 503 239 528 q 337 457 288 477 l 401 430 q 556 333 511 384 q 602 205 602 281 q 525 45 602 108 q 329 -17 448 -17 q 207 -2 281 -17 l 207 -22 q 232 -153 207 -117 q 324 -189 257 -189 q 418 -170 374 -189 z "},"ʃ":{"ha":598,"x_min":-50,"x_max":631,"o":"m -50 -261 l -50 -151 q 91 -184 26 -184 q 193 -129 164 -184 q 222 64 222 -75 l 222 736 q 287 1000 222 912 q 483 1088 352 1088 q 631 1061 559 1088 l 631 951 q 486 987 557 987 q 383 935 410 987 q 355 736 355 883 l 355 67 q 291 -196 355 -109 q 96 -284 226 -284 q -50 -261 30 -284 z "},"ʄ":{"ha":602,"x_min":-25,"x_max":552,"o":"m 234 100 l 67 100 l 67 201 l 234 201 l 234 865 q 292 1029 234 970 q 452 1088 349 1088 q 552 1074 502 1088 l 552 969 q 467 987 510 987 q 393 950 418 987 q 368 840 368 913 l 368 201 l 536 201 l 536 100 l 368 100 l 368 0 q 308 -213 368 -142 q 128 -284 248 -284 q -25 -250 57 -284 l -25 -144 q 117 -184 68 -184 q 211 -147 188 -184 q 234 0 234 -111 l 234 100 z "},"ʅ":{"ha":675,"x_min":27,"x_max":713,"o":"m 713 -148 l 713 -258 q 564 -284 640 -284 q 368 -196 433 -284 q 303 67 303 -109 l 303 401 q 276 601 303 549 q 172 652 249 652 q 27 616 102 652 l 27 726 q 176 753 100 753 q 371 665 306 753 q 437 401 437 577 l 437 67 q 464 -132 437 -80 q 568 -184 492 -184 q 713 -148 638 -184 z "},"ʆ":{"ha":745,"x_min":-17,"x_max":736,"o":"m 460 159 q 657 111 580 143 l 657 10 q 460 58 559 45 l 460 20 q 389 -201 460 -118 q 197 -285 317 -285 q 43 -227 102 -285 q -17 -78 -17 -170 q 73 102 -17 39 q 326 165 162 165 l 326 736 q 391 1000 326 912 q 587 1088 456 1088 q 736 1061 663 1088 l 736 951 q 591 988 661 988 q 488 936 515 988 q 460 736 460 884 l 460 159 m 326 62 l 292 63 q 146 24 199 63 q 92 -81 92 -15 q 117 -158 92 -132 q 193 -184 142 -184 q 295 -136 264 -184 q 326 24 326 -87 l 326 62 z "},"ʇ":{"ha":519,"x_min":54,"x_max":473,"o":"m 58 736 q 165 753 119 753 q 323 694 267 753 q 380 533 380 636 l 380 100 l 473 100 l 473 0 l 380 0 l 380 -134 l 247 -146 l 247 0 l 54 0 l 54 100 l 247 100 l 247 509 q 216 617 247 581 q 122 653 184 653 q 58 644 96 653 l 58 736 z "},"ʈ":{"ha":519,"x_min":47,"x_max":465,"o":"m 139 636 l 47 636 l 47 736 l 139 736 l 139 870 l 273 883 l 273 736 l 465 736 l 465 636 l 273 636 l 273 -37 q 297 -148 273 -111 q 372 -184 322 -184 q 457 -166 414 -184 l 457 -271 q 357 -285 406 -285 q 196 -226 254 -285 q 139 -62 139 -167 l 139 636 z "},"ʉ":{"ha":920,"x_min":25,"x_max":895,"o":"m 627 259 l 627 376 l 292 376 l 292 251 q 316 133 292 168 q 397 98 340 98 q 627 259 519 98 m 761 0 l 627 0 l 627 138 q 369 -17 521 -17 q 216 44 273 -17 q 159 208 159 104 l 159 376 l 25 376 l 25 469 l 159 469 l 159 736 l 292 736 l 292 469 l 627 469 l 627 736 l 761 736 l 761 469 l 895 469 l 895 376 l 761 376 l 761 0 z "},"ʊ":{"ha":916,"x_min":58,"x_max":857,"o":"m 194 636 l 58 636 l 58 736 l 322 736 l 322 636 q 221 366 221 519 q 288 163 221 242 q 458 83 354 83 q 628 163 562 83 q 694 366 694 242 q 594 636 694 519 l 594 736 l 857 736 l 857 636 l 722 636 q 828 340 828 481 q 725 83 828 182 q 458 -17 621 -17 q 191 83 295 -17 q 87 340 87 182 q 194 636 87 481 z "},"ʋ":{"ha":828,"x_min":29,"x_max":752,"o":"m 265 0 l 29 736 l 170 736 l 366 124 q 548 249 477 135 q 618 530 618 363 q 590 736 618 640 l 736 736 q 752 587 752 667 q 615 165 752 330 q 265 0 479 0 z "},"ʌ":{"ha":719,"x_min":8,"x_max":707,"o":"m 433 736 l 707 0 l 573 0 l 359 572 l 133 0 l 8 0 l 300 736 l 433 736 z "},"ʍ":{"ha":1070,"x_min":9,"x_max":1062,"o":"m 851 736 l 1062 0 l 932 0 l 770 570 l 596 0 l 463 0 l 309 570 l 125 0 l 9 0 l 250 736 l 385 736 l 541 166 l 716 736 l 851 736 z "},"ʎ":{"ha":726,"x_min":8,"x_max":715,"o":"m 549 1004 l 430 736 l 715 0 l 570 0 l 359 555 l 135 0 l 8 0 l 411 1004 l 549 1004 z "},"ʏ":{"ha":674,"x_min":8,"x_max":665,"o":"m 264 0 l 264 309 l 8 736 l 159 736 l 349 420 l 547 736 l 665 736 l 398 309 l 398 0 l 264 0 z "},"ʐ":{"ha":799,"x_min":83,"x_max":882,"o":"m 570 0 l 83 0 l 83 100 l 539 636 l 104 636 l 104 736 l 704 736 l 704 636 l 248 100 l 671 100 l 671 -22 q 696 -153 671 -117 q 788 -189 721 -189 q 882 -170 838 -189 l 882 -271 q 775 -285 826 -285 q 622 -220 673 -285 q 570 -25 570 -155 l 570 0 z "},"ʑ":{"ha":968,"x_min":83,"x_max":943,"o":"m 83 0 l 83 104 l 534 636 l 100 636 l 100 736 l 699 736 l 699 636 l 245 104 l 432 104 q 776 372 597 372 q 896 328 848 372 q 943 218 943 284 q 846 54 943 109 q 556 0 749 0 l 490 0 q 432 -201 443 -96 l 330 -201 q 379 0 339 -91 l 83 0 m 550 104 l 585 104 q 778 132 713 104 q 843 213 843 159 q 826 263 843 246 q 776 280 809 280 q 561 119 680 280 l 550 104 z "},"ʒ":{"ha":711,"x_min":54,"x_max":644,"o":"m 54 -250 l 54 -137 q 287 -184 191 -184 q 444 -132 385 -184 q 502 8 502 -80 q 408 173 502 113 q 149 233 313 233 l 138 233 l 138 326 l 465 627 l 67 627 l 67 736 l 619 736 l 619 636 l 289 326 q 549 229 454 311 q 644 16 644 146 q 546 -201 644 -118 q 290 -284 448 -284 q 54 -250 193 -284 z "},"ʓ":{"ha":745,"x_min":38,"x_max":674,"o":"m 657 736 l 657 636 l 310 337 q 572 254 470 337 q 674 40 674 171 q 564 -179 674 -81 q 623 -406 617 -266 l 522 -406 q 479 -234 518 -315 q 290 -284 390 -284 q 113 -223 189 -284 q 38 -79 38 -161 q 87 34 38 -12 q 210 79 137 79 q 498 -81 370 79 q 536 37 536 -31 q 456 194 536 142 q 218 246 376 246 l 172 245 l 172 348 l 505 636 l 101 636 l 101 736 l 657 736 m 422 -147 q 217 -22 329 -22 q 158 -37 178 -22 q 138 -81 138 -52 q 187 -153 138 -122 q 299 -184 235 -184 q 422 -147 354 -184 z "},"ʔ":{"ha":631,"x_min":50,"x_max":594,"o":"m 168 0 l 168 502 q 220 500 199 500 q 392 572 323 500 q 460 753 460 645 q 399 929 460 870 q 216 987 338 987 q 50 956 146 987 l 50 1063 q 242 1088 154 1088 q 502 1004 409 1088 q 594 768 594 920 q 521 538 594 626 q 301 416 448 450 l 301 0 l 168 0 z "},"ʕ":{"ha":631,"x_min":38,"x_max":582,"o":"m 465 0 l 331 0 l 331 416 q 111 538 184 450 q 38 768 38 626 q 131 1004 38 920 q 389 1088 223 1088 q 582 1063 478 1088 l 582 956 q 416 987 486 987 q 233 929 294 987 q 172 753 172 870 q 240 572 172 645 q 412 500 309 500 q 465 502 433 500 l 465 0 z "},"ʖ":{"ha":631,"x_min":50,"x_max":594,"o":"m 168 1071 l 301 1071 l 301 654 q 521 532 448 621 q 594 302 594 444 q 502 67 594 151 q 242 -17 409 -17 q 50 8 154 -17 l 50 115 q 216 83 146 83 q 399 142 338 83 q 460 318 460 201 q 392 499 460 427 q 220 571 323 571 q 168 569 199 571 l 168 1071 z "},"ʗ":{"ha":674,"x_min":75,"x_max":649,"o":"m 649 -148 l 649 -267 q 460 -311 554 -311 q 181 -164 286 -311 q 75 221 75 -18 q 181 607 75 461 q 460 753 286 753 q 649 710 554 753 l 649 591 q 471 646 555 646 q 277 536 345 646 q 209 221 209 426 q 277 -94 209 16 q 471 -203 345 -203 q 649 -148 555 -203 z "},"ʘ":{"ha":920,"x_min":75,"x_max":845,"o":"m 455 -17 q 187 97 299 -17 q 75 368 75 210 q 188 640 75 528 q 460 753 300 753 q 732 640 619 753 q 845 369 845 528 q 732 95 845 207 q 455 -17 618 -17 m 456 92 q 655 173 574 92 q 736 369 736 253 q 655 564 736 483 q 460 644 574 644 q 265 563 346 644 q 184 368 184 482 q 264 174 184 255 q 456 92 345 92 m 385 293 l 385 444 l 535 444 l 535 293 l 385 293 z "},"ʙ":{"ha":737,"x_min":134,"x_max":653,"o":"m 134 0 l 134 736 l 390 736 q 565 696 507 736 q 623 576 623 656 q 588 461 623 509 q 482 385 553 413 q 610 307 568 357 q 653 186 653 258 q 590 49 653 98 q 416 0 527 0 l 134 0 m 265 100 l 322 100 q 474 121 434 100 q 515 199 515 142 q 464 299 515 261 q 330 336 414 336 l 265 336 l 265 100 m 265 425 l 334 425 q 450 455 411 425 q 489 549 489 486 q 452 614 489 592 q 342 636 415 636 l 265 636 l 265 425 z "},"ʚ":{"ha":812,"x_min":67,"x_max":736,"o":"m 207 394 q 112 465 148 417 q 75 566 75 512 q 153 703 75 652 q 362 753 230 753 q 637 647 537 753 q 736 355 736 541 q 641 82 736 180 q 377 -17 546 -17 q 153 47 238 -17 q 67 216 67 112 q 102 320 67 276 q 207 394 137 365 m 469 334 l 397 334 q 250 306 299 334 q 201 220 201 277 q 250 121 201 159 q 378 83 300 83 q 559 152 498 83 q 619 357 619 220 q 553 574 619 495 q 372 652 488 652 q 246 623 295 652 q 197 548 197 594 q 247 464 197 492 q 399 435 298 435 l 469 435 l 469 334 z "},"ʛ":{"ha":854,"x_min":75,"x_max":923,"o":"m 711 618 q 475 652 558 652 q 280 580 345 652 q 216 363 216 508 q 282 152 216 227 q 469 77 348 77 q 578 87 513 77 l 578 319 l 713 319 l 713 20 q 464 -17 568 -17 q 176 83 276 -17 q 75 368 75 182 q 177 652 75 552 q 467 753 279 753 q 595 744 526 753 l 611 742 l 611 828 q 662 1023 611 958 q 816 1088 713 1088 q 923 1074 867 1088 l 923 973 q 827 991 879 991 q 736 956 762 991 q 711 825 711 920 l 711 618 z "},"ʜ":{"ha":867,"x_min":134,"x_max":732,"o":"m 134 0 l 134 736 l 268 736 l 268 437 l 598 437 l 598 736 l 732 736 l 732 0 l 598 0 l 598 337 l 268 337 l 268 0 l 134 0 z "},"ʝ":{"ha":682,"x_min":-17,"x_max":656,"o":"m 460 736 l 460 159 q 656 111 579 143 l 656 10 q 460 58 559 45 l 460 20 q 388 -201 460 -118 q 197 -285 316 -285 q 43 -227 102 -285 q -17 -78 -17 -170 q 72 102 -17 39 q 326 165 161 165 l 326 736 l 460 736 m 326 62 l 291 63 q 145 24 199 63 q 92 -81 92 -15 q 117 -158 92 -132 q 192 -184 142 -184 q 295 -136 264 -184 q 326 24 326 -87 l 326 62 m 326 870 l 326 1004 l 460 1004 l 460 870 l 326 870 z "},"ʞ":{"ha":812,"x_min":26,"x_max":677,"o":"m 677 736 l 677 -268 l 544 -268 l 544 357 l 232 0 l 88 0 l 386 343 l 26 736 l 197 736 l 544 359 l 544 736 l 677 736 z "},"ʟ":{"ha":640,"x_min":134,"x_max":606,"o":"m 134 0 l 134 736 l 268 736 l 268 100 l 606 100 l 606 0 l 134 0 z "},"ʠ":{"ha":887,"x_min":75,"x_max":924,"o":"m 606 561 q 410 652 503 652 q 266 579 313 652 q 218 359 218 505 q 260 165 218 229 q 389 100 303 100 q 606 222 500 100 l 606 561 m 606 736 l 606 865 q 664 1029 606 970 q 825 1088 722 1088 q 924 1074 874 1088 l 924 969 q 840 987 882 987 q 765 950 790 987 q 741 840 741 913 l 741 -268 l 606 -268 l 606 138 q 361 -17 525 -17 q 152 80 228 -17 q 75 345 75 177 q 162 641 75 529 q 389 753 248 753 q 606 652 520 753 l 606 736 z "},"ʡ":{"ha":631,"x_min":50,"x_max":594,"o":"m 168 201 l 50 201 l 50 293 l 168 293 l 168 502 q 220 500 199 500 q 392 572 323 500 q 460 753 460 645 q 399 929 460 870 q 216 987 338 987 q 50 956 146 987 l 50 1063 q 242 1088 154 1088 q 502 1004 409 1088 q 594 768 594 920 q 521 538 594 626 q 301 416 448 450 l 301 293 l 552 293 l 552 201 l 301 201 l 301 0 l 168 0 l 168 201 z "},"ʢ":{"ha":631,"x_min":38,"x_max":582,"o":"m 465 201 l 465 0 l 331 0 l 331 201 l 80 201 l 80 293 l 331 293 l 331 416 q 111 538 184 450 q 38 768 38 626 q 131 1004 38 920 q 389 1088 223 1088 q 582 1063 478 1088 l 582 956 q 416 987 486 987 q 233 929 294 987 q 172 753 172 870 q 240 572 172 645 q 412 500 309 500 q 465 502 433 500 l 465 293 l 582 293 l 582 201 l 465 201 z "},"ʣ":{"ha":1430,"x_min":75,"x_max":1346,"o":"m 606 0 l 606 138 q 361 -17 525 -17 q 152 80 228 -17 q 75 345 75 177 q 162 641 75 529 q 389 753 248 753 q 606 652 520 753 l 606 1071 l 741 1071 l 741 736 l 1338 736 l 1338 636 l 999 100 l 1346 100 l 1346 0 l 841 0 l 841 100 l 1180 636 l 741 636 l 741 0 l 606 0 m 606 561 q 410 652 503 652 q 266 579 313 652 q 218 359 218 505 q 260 165 218 229 q 389 100 303 100 q 606 222 500 100 l 606 561 z "},"ʤ":{"ha":1385,"x_min":75,"x_max":1322,"o":"m 741 0 l 606 0 l 606 138 q 361 -17 525 -17 q 152 80 228 -17 q 75 345 75 177 q 162 641 75 529 q 389 753 248 753 q 606 652 520 753 l 606 1071 l 741 1071 l 741 736 l 1297 736 l 1297 636 l 1001 323 q 1235 237 1149 315 q 1322 34 1322 159 q 1217 -198 1322 -102 q 950 -284 1122 -284 q 774 -262 879 -284 l 774 -152 q 953 -184 890 -184 q 1118 -128 1055 -184 q 1180 19 1180 -73 q 1103 180 1180 126 q 874 233 1027 233 l 874 334 l 1158 636 l 741 636 l 741 0 m 606 561 q 410 652 503 652 q 266 579 313 652 q 218 359 218 505 q 260 165 218 229 q 389 100 303 100 q 606 222 500 100 l 606 561 z "},"ʥ":{"ha":1692,"x_min":75,"x_max":1668,"o":"m 606 561 q 410 652 503 652 q 266 579 313 652 q 218 359 218 505 q 260 165 218 229 q 389 100 303 100 q 606 222 500 100 l 606 561 m 841 104 l 1174 636 l 741 636 l 741 0 l 606 0 l 606 138 q 361 -17 525 -17 q 152 80 228 -17 q 75 345 75 177 q 162 641 75 529 q 389 753 248 753 q 606 652 520 753 l 606 1071 l 741 1071 l 741 736 l 1332 736 l 1332 636 l 999 104 l 1156 104 q 1500 372 1321 372 q 1620 328 1572 372 q 1668 218 1668 284 q 1571 54 1668 109 q 1280 0 1474 0 l 1214 0 q 1156 -201 1166 -96 l 1055 -201 q 1103 0 1063 -91 l 841 0 l 841 104 m 1274 104 l 1308 104 q 1502 132 1437 104 q 1567 213 1567 159 q 1550 263 1567 246 q 1499 280 1533 280 q 1285 119 1404 280 l 1274 104 z "},"ʦ":{"ha":1107,"x_min":47,"x_max":1007,"o":"m 951 730 l 951 619 q 774 652 840 652 q 677 629 709 652 q 645 559 645 606 q 669 503 645 528 q 743 457 694 477 l 807 430 q 962 333 916 384 q 1007 205 1007 281 q 930 45 1007 108 q 734 -17 854 -17 q 512 26 643 -17 l 512 149 q 740 83 643 83 q 836 115 798 83 q 873 193 873 146 q 847 255 873 227 q 768 306 821 283 l 689 339 q 559 427 602 375 q 516 547 516 479 q 536 635 516 595 l 273 636 l 273 228 q 304 119 273 155 q 397 83 335 83 q 462 92 424 83 l 462 0 q 355 -17 400 -17 q 196 41 253 -17 q 139 203 139 100 l 139 636 l 47 636 l 47 736 l 139 736 l 139 870 l 273 883 l 273 736 l 652 736 q 772 753 707 753 q 924 736 833 753 l 951 730 z "},"ʧ":{"ha":981,"x_min":47,"x_max":1014,"o":"m 604 736 l 604 745 q 669 1002 604 916 q 865 1088 734 1088 q 1014 1061 941 1088 l 1014 951 q 869 987 939 987 q 765 935 792 987 q 738 736 738 883 l 738 67 q 673 -196 738 -109 q 479 -284 608 -284 q 332 -261 412 -284 l 332 -151 q 473 -184 408 -184 q 575 -129 546 -184 q 604 64 604 -75 l 604 636 l 273 636 l 273 228 q 304 119 273 155 q 397 83 335 83 q 462 92 424 83 l 462 0 q 355 -17 400 -17 q 196 41 253 -17 q 139 203 139 100 l 139 636 l 47 636 l 47 736 l 139 736 l 139 870 l 273 883 l 273 736 l 604 736 z "},"ʨ":{"ha":1222,"x_min":47,"x_max":1180,"o":"m 793 122 q 921 83 857 83 q 1032 115 985 83 q 1080 189 1080 146 q 1061 233 1080 218 q 1006 248 1043 248 q 793 122 897 248 m 47 636 l 47 736 l 139 736 l 139 870 l 273 883 l 273 736 l 766 736 q 913 753 833 753 q 1084 731 1005 753 l 1084 619 q 899 652 992 652 q 727 581 789 652 q 665 383 665 509 q 723 189 665 273 q 1004 347 856 347 q 1130 302 1080 347 q 1180 189 1180 257 q 1104 42 1180 101 q 916 -17 1028 -17 q 734 26 825 -17 q 698 -134 698 -32 l 597 -134 q 651 81 597 -15 q 524 382 524 200 q 610 635 524 506 l 273 636 l 273 228 q 304 119 273 155 q 397 83 335 83 q 462 92 424 83 l 462 0 q 355 -17 400 -17 q 196 41 253 -17 q 139 203 139 100 l 139 636 l 47 636 z "},"ʰ":{"ha":532,"x_min":78,"x_max":460,"o":"m 78 627 l 78 1270 l 178 1270 l 178 987 q 332 1081 239 1081 q 428 1046 396 1081 q 460 943 460 1012 l 460 627 l 359 627 l 359 915 q 345 978 359 957 q 302 999 331 999 q 178 910 237 999 l 178 627 l 78 627 z "},"ʱ":{"ha":532,"x_min":78,"x_max":460,"o":"m 178 977 q 332 1071 239 1071 q 428 1036 396 1071 q 460 933 460 1002 l 460 627 l 359 627 l 359 905 q 345 968 359 947 q 302 989 331 989 q 178 901 237 989 l 178 627 l 78 627 l 78 1027 q 129 1216 78 1153 q 281 1279 179 1279 q 397 1259 338 1279 l 397 1183 q 295 1204 338 1204 q 203 1166 228 1204 q 178 1027 178 1128 l 178 977 z "},"ʲ":{"ha":342,"x_min":8,"x_max":264,"o":"m 8 475 l 8 547 q 96 524 62 524 q 146 549 130 524 q 163 627 163 575 l 163 1071 l 264 1071 l 264 631 q 224 499 264 543 q 106 456 184 456 q 8 475 62 456 m 163 1171 l 163 1262 l 264 1262 l 264 1171 l 163 1171 z "},"ʳ":{"ha":360,"x_min":78,"x_max":342,"o":"m 78 627 l 78 1071 l 178 1071 l 178 987 q 237 1058 202 1034 q 318 1081 272 1081 q 342 1078 330 1081 l 342 987 q 300 996 319 996 q 233 975 263 996 q 178 914 202 955 l 178 627 l 78 627 z "},"ʴ":{"ha":368,"x_min":25,"x_max":290,"o":"m 290 1071 l 290 627 l 189 627 l 189 710 q 131 640 165 663 q 50 616 96 616 q 25 619 38 616 l 25 710 q 67 702 48 702 q 134 722 104 702 q 189 783 165 743 l 189 1071 l 290 1071 z "},"ʵ":{"ha":445,"x_min":25,"x_max":428,"o":"m 290 1071 l 290 642 q 304 553 290 575 q 364 531 319 531 q 428 545 396 531 l 428 467 q 353 456 390 456 q 230 497 271 456 q 189 623 189 539 l 189 710 q 131 640 165 663 q 50 616 96 616 q 25 619 38 616 l 25 710 q 67 702 48 702 q 134 722 104 702 q 189 783 165 743 l 189 1071 l 290 1071 z "},"ʶ":{"ha":487,"x_min":78,"x_max":471,"o":"m 78 1071 l 178 1071 l 178 895 l 224 895 l 348 1071 l 471 1071 l 328 869 q 390 818 370 850 q 411 741 411 786 q 377 657 411 685 q 277 629 344 629 l 78 629 l 78 1071 m 178 830 l 178 694 l 225 694 q 289 709 268 694 q 311 753 311 724 q 289 811 311 791 q 222 830 267 830 l 178 830 z "},"ʷ":{"ha":681,"x_min":18,"x_max":664,"o":"m 143 627 l 18 1071 l 113 1071 l 203 727 l 205 727 l 304 1071 l 397 1071 l 483 727 l 484 727 l 587 1071 l 664 1071 l 525 627 l 427 627 l 341 970 l 340 970 l 241 627 l 143 627 z "},"ʸ":{"ha":460,"x_min":9,"x_max":453,"o":"m 92 466 l 178 627 l 9 1071 l 117 1071 l 235 755 l 236 755 l 370 1071 l 453 1071 l 195 466 l 92 466 z "},"ʹ":{"ha":401,"x_min":83,"x_max":368,"o":"m 83 669 l 217 1071 l 368 1071 l 167 669 l 83 669 z "},"ʺ":{"ha":703,"x_min":83,"x_max":669,"o":"m 83 669 l 217 1071 l 368 1071 l 167 669 l 83 669 m 385 669 l 518 1071 l 669 1071 l 468 669 l 385 669 z "},"ʻ":{"ha":439,"x_min":136,"x_max":303,"o":"m 303 1071 l 303 1021 q 254 973 271 1011 q 238 867 238 935 l 238 853 l 303 853 l 303 686 l 136 686 l 136 831 q 177 1002 136 942 q 303 1071 219 1062 z "},"ʼ":{"ha":439,"x_min":136,"x_max":303,"o":"m 136 686 l 136 736 q 184 784 168 745 q 201 890 201 822 l 201 903 l 136 903 l 136 1071 l 303 1071 l 303 926 q 261 754 303 814 q 136 686 219 694 z "},"ʽ":{"ha":439,"x_min":136,"x_max":303,"o":"m 303 686 q 177 754 219 694 q 136 926 136 814 l 136 1071 l 303 1071 l 303 903 l 238 903 l 238 890 q 254 784 238 822 q 303 736 271 745 l 303 686 z "},"ʾ":{"ha":435,"x_min":113,"x_max":348,"o":"m 113 686 l 113 770 l 155 770 q 233 802 201 770 q 264 879 264 833 q 233 956 264 924 q 155 987 201 987 l 113 987 l 113 1071 l 155 1071 q 292 1015 235 1071 q 348 878 348 959 q 292 742 348 798 q 155 686 236 686 l 113 686 z "},"ʿ":{"ha":435,"x_min":88,"x_max":323,"o":"m 323 686 l 281 686 q 144 742 200 686 q 88 878 88 798 q 144 1015 88 959 q 281 1071 201 1071 l 323 1071 l 323 987 l 281 987 q 203 956 235 987 q 172 879 172 924 q 203 802 172 833 q 281 770 235 770 l 323 770 l 323 686 z "},"ˀ":{"ha":453,"x_min":58,"x_max":402,"o":"m 146 627 l 146 646 q 206 785 146 718 l 233 816 q 294 932 294 884 q 270 991 294 972 q 195 1011 245 1011 q 58 977 133 1011 l 58 1057 q 208 1081 137 1081 q 350 1044 298 1081 q 402 943 402 1006 q 335 819 402 883 l 309 795 q 246 669 246 736 l 246 627 l 146 627 z "},"ˁ":{"ha":453,"x_min":50,"x_max":394,"o":"m 307 627 l 206 627 l 206 669 q 144 795 206 736 l 117 819 q 50 943 50 883 q 103 1044 50 1006 q 244 1081 155 1081 q 394 1057 315 1081 l 394 977 q 257 1011 319 1011 q 183 991 208 1011 q 158 932 158 972 q 219 816 158 884 l 246 785 q 307 646 307 718 l 307 627 z "},"˂":{"ha":558,"x_min":25,"x_max":458,"o":"m 458 655 l 25 871 l 458 1088 l 458 994 l 214 872 l 214 871 l 458 748 l 458 655 z "},"˃":{"ha":558,"x_min":100,"x_max":533,"o":"m 100 655 l 100 748 l 345 871 l 345 872 l 100 994 l 100 1088 l 533 871 l 100 655 z "},"˄":{"ha":558,"x_min":63,"x_max":496,"o":"m 63 655 l 279 1088 l 496 655 l 402 655 l 280 899 l 279 899 l 157 655 l 63 655 z "},"˅":{"ha":558,"x_min":63,"x_max":496,"o":"m 496 1088 l 279 655 l 63 1088 l 157 1088 l 279 844 l 280 844 l 402 1088 l 496 1088 z "},"ˈ":{"ha":335,"x_min":117,"x_max":218,"o":"m 117 669 l 117 1071 l 218 1071 l 218 669 l 117 669 z "},"ˊ":{"ha":853,"x_min":268,"x_max":586,"o":"m 268 870 l 431 1088 l 586 1088 l 368 870 l 268 870 z "},"ˋ":{"ha":853,"x_min":268,"x_max":586,"o":"m 586 870 l 486 870 l 268 1088 l 422 1088 l 586 870 z "},"ˌ":{"ha":335,"x_min":117,"x_max":218,"o":"m 117 -284 l 117 67 l 218 67 l 218 -284 l 117 -284 z "},"ˍ":{"ha":853,"x_min":209,"x_max":644,"o":"m 209 -235 l 209 -134 l 644 -134 l 644 -235 l 209 -235 z "},"ˎ":{"ha":853,"x_min":268,"x_max":586,"o":"m 586 -351 l 486 -351 l 268 -134 l 422 -134 l 586 -351 z "},"ˏ":{"ha":853,"x_min":268,"x_max":586,"o":"m 268 -351 l 431 -134 l 586 -134 l 368 -351 l 268 -351 z "},"ː":{"ha":569,"x_min":134,"x_max":435,"o":"m 435 0 l 134 0 l 284 301 l 435 0 m 134 736 l 435 736 l 284 435 l 134 736 z "},"ˑ":{"ha":569,"x_min":134,"x_max":435,"o":"m 134 736 l 435 736 l 284 435 l 134 736 z "},"˒":{"ha":401,"x_min":83,"x_max":318,"o":"m 83 218 l 83 301 l 125 301 q 203 333 171 301 q 235 410 235 365 q 203 487 235 456 q 125 519 171 519 l 83 519 l 83 602 l 125 602 q 262 546 205 602 q 318 410 318 490 q 262 274 318 330 q 125 218 206 218 l 83 218 z "},"˓":{"ha":401,"x_min":83,"x_max":318,"o":"m 318 218 l 276 218 q 139 274 195 218 q 83 410 83 330 q 140 546 83 490 q 276 602 196 602 l 318 602 l 318 519 l 276 519 q 199 487 231 519 q 167 410 167 456 q 199 333 167 365 q 276 301 231 301 l 318 301 l 318 218 z "},"˔":{"ha":653,"x_min":100,"x_max":552,"o":"m 100 318 l 100 401 l 284 401 l 284 602 l 368 602 l 368 401 l 552 401 l 552 318 l 100 318 z "},"˕":{"ha":653,"x_min":100,"x_max":552,"o":"m 552 602 l 552 519 l 368 519 l 368 318 l 284 318 l 284 519 l 100 519 l 100 602 l 552 602 z "},"˖":{"ha":653,"x_min":100,"x_max":553,"o":"m 553 435 l 553 351 l 368 351 l 368 168 l 285 168 l 285 351 l 100 351 l 100 435 l 285 435 l 285 619 l 368 619 l 368 435 l 553 435 z "},"˗":{"ha":653,"x_min":100,"x_max":552,"o":"m 100 268 l 100 519 l 184 519 l 184 435 l 469 435 l 469 519 l 552 519 l 552 268 l 469 268 l 469 351 l 184 351 l 184 268 l 100 268 z "},"˞":{"ha":296,"x_min":-151,"x_max":279,"o":"m -151 464 l 132 534 l 132 388 q 149 272 132 302 q 210 241 165 241 q 279 264 239 241 l 279 159 q 186 141 218 141 q 71 195 109 141 q 32 355 32 248 l 32 406 l -151 360 l -151 464 z "},"ˠ":{"ha":526,"x_min":0,"x_max":510,"o":"m 334 735 q 404 536 404 616 q 364 431 404 472 q 263 391 325 391 q 171 425 207 391 q 135 514 135 460 q 222 731 135 606 q 116 921 170 858 q 0 994 63 984 l 50 1071 q 175 1003 115 1067 q 293 816 236 939 q 388 958 356 898 q 419 1057 419 1018 q 416 1071 419 1063 l 507 1071 q 510 1048 510 1059 q 453 903 510 1004 q 334 735 396 802 m 264 648 q 222 528 222 585 q 232 483 222 498 q 263 468 242 468 q 295 481 284 468 q 305 519 305 494 q 264 648 305 573 z "},"ˡ":{"ha":256,"x_min":78,"x_max":178,"o":"m 78 627 l 78 1270 l 178 1270 l 178 627 l 78 627 z "},"ˢ":{"ha":479,"x_min":78,"x_max":402,"o":"m 368 1066 l 368 991 q 254 1013 298 1013 q 197 1000 216 1013 q 178 962 178 987 q 235 905 178 928 l 272 890 q 370 830 337 864 q 402 754 402 796 q 353 655 402 694 q 229 616 304 616 q 78 642 159 616 l 78 722 q 222 684 162 684 q 280 699 261 684 q 300 743 300 713 q 237 805 300 779 l 194 823 q 109 878 137 846 q 80 952 80 911 q 122 1049 80 1017 q 249 1081 164 1081 q 351 1069 293 1081 l 368 1066 z "},"ˣ":{"ha":589,"x_min":75,"x_max":513,"o":"m 75 627 l 236 853 l 81 1071 l 197 1071 l 310 916 l 414 1071 l 502 1071 l 355 849 l 513 627 l 397 627 l 281 788 l 165 627 l 75 627 z "},"ˤ":{"ha":453,"x_min":33,"x_max":377,"o":"m 290 627 l 189 627 l 189 832 q 127 958 189 899 l 100 983 q 33 1107 33 1046 q 86 1207 33 1170 q 227 1244 138 1244 q 377 1221 298 1244 l 377 1141 q 240 1174 302 1174 q 166 1154 191 1174 q 141 1096 141 1135 q 202 979 141 1048 l 229 948 q 290 809 290 880 l 290 627 z "},"˥":{"ha":608,"x_min":25,"x_max":474,"o":"m 25 920 l 25 1004 l 474 1004 l 474 0 l 382 0 l 382 920 l 25 920 z "},"˦":{"ha":608,"x_min":25,"x_max":474,"o":"m 25 692 l 25 776 l 382 776 l 382 1004 l 474 1004 l 474 0 l 382 0 l 382 692 l 25 692 z "},"˧":{"ha":608,"x_min":25,"x_max":474,"o":"m 25 460 l 25 544 l 382 544 l 382 1004 l 474 1004 l 474 0 l 382 0 l 382 460 l 25 460 z "},"˨":{"ha":608,"x_min":25,"x_max":474,"o":"m 25 228 l 25 312 l 382 312 l 382 1004 l 474 1004 l 474 0 l 382 0 l 382 228 l 25 228 z "},"˩":{"ha":608,"x_min":25,"x_max":474,"o":"m 474 0 l 25 0 l 25 83 l 382 83 l 382 1004 l 474 1004 l 474 0 z "},"̀":{"ha":0,"x_min":-644,"x_max":-326,"o":"m -326 870 l -427 870 l -644 1088 l -490 1088 l -326 870 z "},"́":{"ha":0,"x_min":-527,"x_max":-209,"o":"m -527 870 l -363 1088 l -209 1088 l -427 870 l -527 870 z "},"̂":{"ha":0,"x_min":-664,"x_max":-189,"o":"m -664 870 l -500 1088 l -353 1088 l -189 870 l -290 870 l -426 1007 l -427 1007 l -564 870 l -664 870 z "},"̃":{"ha":0,"x_min":-652,"x_max":-201,"o":"m -652 870 q -617 989 -648 949 q -527 1029 -586 1029 q -435 1003 -477 1029 l -395 978 q -336 954 -357 954 q -300 973 -313 954 q -284 1029 -287 991 l -201 1029 q -236 910 -204 949 q -326 870 -267 870 q -418 897 -376 870 l -458 922 q -517 945 -496 945 q -553 926 -540 945 q -569 870 -566 907 l -652 870 z "},"̄":{"ha":0,"x_min":-644,"x_max":-209,"o":"m -644 870 l -644 970 l -209 970 l -209 870 l -644 870 z "},"̅":{"ha":0,"x_min":-853,"x_max":0,"o":"m -853 1088 l -853 1188 l 0 1188 l 0 1088 l -853 1088 z "},"̆":{"ha":0,"x_min":-652,"x_max":-201,"o":"m -652 1088 l -569 1088 q -523 1000 -558 1029 q -427 970 -487 970 q -331 1000 -366 970 q -284 1088 -295 1029 l -201 1088 q -273 929 -211 989 q -427 870 -334 870 q -580 929 -519 870 q -652 1088 -642 989 z "},"̇":{"ha":0,"x_min":-494,"x_max":-360,"o":"m -494 870 l -494 1004 l -360 1004 l -360 870 l -494 870 z "},"̈":{"ha":0,"x_min":-619,"x_max":-234,"o":"m -619 870 l -619 987 l -502 987 l -502 870 l -619 870 m -351 870 l -351 987 l -234 987 l -234 870 l -351 870 z "},"̉":{"ha":0,"x_min":-523,"x_max":-268,"o":"m -475 870 q -446 955 -475 932 l -418 976 l -400 991 q -368 1039 -368 1019 q -388 1073 -368 1061 q -447 1084 -408 1084 q -523 1071 -482 1084 l -523 1143 q -428 1155 -474 1155 q -308 1131 -348 1155 q -268 1057 -268 1106 q -321 970 -268 1017 l -336 958 q -372 918 -366 931 q -378 870 -378 905 l -475 870 z "},"̊":{"ha":0,"x_min":-581,"x_max":-273,"o":"m -429 870 q -536 915 -492 870 q -581 1024 -581 960 q -536 1133 -581 1088 q -427 1178 -491 1178 q -318 1133 -363 1178 q -273 1024 -273 1088 q -318 915 -273 959 q -429 870 -363 870 m -428 928 q -359 956 -387 928 q -331 1025 -331 984 q -359 1092 -331 1064 q -427 1120 -387 1120 q -494 1092 -467 1120 q -522 1024 -522 1064 q -494 957 -522 985 q -428 928 -467 928 z "},"̋":{"ha":0,"x_min":-646,"x_max":-115,"o":"m -646 870 l -483 1088 l -353 1088 l -571 870 l -646 870 m -408 870 l -245 1088 l -115 1088 l -332 870 l -408 870 z "},"̌":{"ha":0,"x_min":-664,"x_max":-189,"o":"m -189 1088 l -353 870 l -500 870 l -664 1088 l -564 1088 l -427 951 l -426 951 l -290 1088 l -189 1088 z "},"̍":{"ha":0,"x_min":-477,"x_max":-376,"o":"m -376 870 l -477 870 l -477 1121 l -376 1121 l -376 870 z "},"̎":{"ha":0,"x_min":-594,"x_max":-260,"o":"m -494 870 l -594 870 l -594 1121 l -494 1121 l -494 870 m -260 870 l -360 870 l -360 1121 l -260 1121 l -260 870 z "},"̏":{"ha":0,"x_min":-738,"x_max":-206,"o":"m -206 870 l -281 870 l -499 1088 l -370 1088 l -206 870 m -445 870 l -520 870 l -738 1088 l -609 1088 l -445 870 z "},"̐":{"ha":0,"x_min":-652,"x_max":-201,"o":"m -652 1071 l -569 1071 q -523 996 -558 1021 q -427 970 -487 970 q -331 996 -366 970 q -284 1071 -295 1021 l -201 1071 q -273 925 -211 980 q -427 870 -334 870 q -580 925 -519 870 q -652 1071 -642 979 m -494 1134 l -494 1267 l -359 1267 l -359 1134 l -494 1134 z "},"̑":{"ha":0,"x_min":-652,"x_max":-201,"o":"m -201 870 l -284 870 q -331 958 -295 928 q -427 987 -366 987 q -523 958 -487 987 q -569 870 -558 928 l -652 870 q -581 1028 -642 969 q -427 1088 -519 1088 q -273 1028 -334 1088 q -201 870 -212 969 z "},"̒":{"ha":0,"x_min":-494,"x_max":-360,"o":"m -360 1178 l -360 1138 q -399 1100 -386 1131 q -412 1015 -412 1069 l -412 1004 l -360 1004 l -360 870 l -494 870 l -494 986 q -460 1123 -494 1075 q -360 1178 -427 1171 z "},"̓":{"ha":0,"x_min":-494,"x_max":-360,"o":"m -494 870 l -494 910 q -455 948 -468 917 q -442 1033 -442 979 l -442 1044 l -494 1044 l -494 1178 l -360 1178 l -360 1062 q -393 925 -360 972 q -494 870 -427 877 z "},"̔":{"ha":0,"x_min":-494,"x_max":-360,"o":"m -360 870 q -460 925 -427 877 q -494 1062 -494 972 l -494 1178 l -360 1178 l -360 1044 l -412 1044 l -412 1033 q -399 948 -412 979 q -360 910 -386 917 l -360 870 z "},"̕":{"ha":0,"x_min":-134,"x_max":0,"o":"m -134 870 l -134 910 q -95 948 -108 917 q -82 1033 -82 979 l -82 1044 l -134 1044 l -134 1178 l 0 1178 l 0 1062 q -33 925 0 972 q -134 870 -66 877 z "},"̖":{"ha":0,"x_min":-582,"x_max":-264,"o":"m -264 -351 l -364 -351 l -582 -134 l -427 -134 l -264 -351 z "},"̗":{"ha":0,"x_min":-590,"x_max":-272,"o":"m -590 -351 l -427 -134 l -272 -134 l -490 -351 l -590 -351 z "},"̘":{"ha":0,"x_min":-555,"x_max":-296,"o":"m -555 -339 l -555 -264 l -372 -264 l -372 -134 l -296 -134 l -296 -469 l -372 -469 l -372 -339 l -555 -339 z "},"̙":{"ha":0,"x_min":-555,"x_max":-296,"o":"m -555 -469 l -555 -134 l -480 -134 l -480 -264 l -296 -264 l -296 -339 l -480 -339 l -480 -469 l -555 -469 z "},"̚":{"ha":0,"x_min":-334,"x_max":0,"o":"m -83 736 l -83 996 l -334 996 l -334 1071 l 0 1071 l 0 736 l -83 736 z "},"̛":{"ha":83,"x_min":-134,"x_max":75,"o":"m -134 520 l -134 586 q -52 624 -79 586 q -25 736 -25 661 l -25 803 l 75 803 l 75 770 q 21 587 75 653 q -130 520 -33 520 l -134 520 z "},"̜":{"ha":0,"x_min":-520,"x_max":-333,"o":"m -333 -441 l -366 -441 q -475 -397 -431 -441 q -520 -288 -520 -352 q -475 -179 -520 -224 q -366 -134 -430 -134 l -333 -134 l -333 -209 l -366 -209 q -422 -232 -399 -209 q -445 -288 -445 -255 q -422 -343 -445 -321 q -366 -366 -399 -366 l -333 -366 l -333 -441 z "},"̝":{"ha":0,"x_min":-611,"x_max":-243,"o":"m -611 -393 l -611 -318 l -465 -318 l -465 -134 l -389 -134 l -389 -318 l -243 -318 l -243 -393 l -611 -393 z "},"̞":{"ha":0,"x_min":-611,"x_max":-243,"o":"m -243 -134 l -243 -209 l -389 -209 l -389 -393 l -465 -393 l -465 -209 l -611 -209 l -611 -134 l -243 -134 z "},"̟":{"ha":0,"x_min":-610,"x_max":-243,"o":"m -610 -343 l -610 -268 l -465 -268 l -465 -133 l -389 -133 l -389 -268 l -243 -268 l -243 -343 l -389 -343 l -389 -477 l -465 -477 l -465 -343 l -610 -343 z "},"̠":{"ha":0,"x_min":-611,"x_max":-243,"o":"m -611 -359 l -611 -134 l -536 -134 l -536 -209 l -318 -209 l -318 -134 l -243 -134 l -243 -359 l -318 -359 l -318 -284 l -536 -284 l -536 -359 l -611 -359 z "},"̡":{"ha":0,"x_min":-318,"x_max":0,"o":"m 0 0 l 0 -62 q -58 -226 0 -167 q -218 -285 -115 -285 q -318 -271 -267 -285 l -318 -166 q -233 -184 -276 -184 q -158 -148 -183 -184 q -134 -37 -134 -111 l -134 0 l 0 0 z "},"̢":{"ha":0,"x_min":-318,"x_max":0,"o":"m -318 0 l -184 0 l -184 -37 q -159 -148 -184 -111 q -85 -184 -134 -184 q 0 -166 -42 -184 l 0 -271 q -100 -285 -51 -285 q -260 -226 -203 -285 q -318 -62 -318 -167 l -318 0 z "},"̣":{"ha":0,"x_min":-494,"x_max":-360,"o":"m -494 -268 l -494 -134 l -360 -134 l -360 -268 l -494 -268 z "},"̤":{"ha":0,"x_min":-619,"x_max":-234,"o":"m -619 -251 l -619 -134 l -502 -134 l -502 -251 l -619 -251 m -351 -251 l -351 -134 l -234 -134 l -234 -251 l -351 -251 z "},"̥":{"ha":0,"x_min":-581,"x_max":-273,"o":"m -429 -441 q -536 -396 -492 -441 q -581 -288 -581 -351 q -536 -179 -581 -224 q -427 -134 -491 -134 q -318 -179 -363 -134 q -273 -288 -273 -224 q -318 -397 -273 -353 q -429 -441 -363 -441 m -428 -383 q -359 -355 -387 -383 q -332 -288 -332 -328 q -359 -220 -332 -248 q -427 -193 -387 -193 q -494 -220 -467 -193 q -522 -288 -522 -248 q -495 -355 -522 -327 q -428 -383 -467 -383 z "},"̦":{"ha":853,"x_min":368,"x_max":502,"o":"m 368 -441 l 368 -401 q 407 -363 394 -394 q 420 -279 420 -333 l 420 -268 l 368 -268 l 368 -134 l 502 -134 l 502 -250 q 468 -387 502 -339 q 368 -441 435 -435 z "},"̧":{"ha":0,"x_min":-503,"x_max":-267,"o":"m -424 0 l -358 0 l -399 -74 q -307 -106 -346 -74 q -267 -182 -267 -138 q -307 -261 -267 -229 q -404 -293 -347 -293 q -503 -279 -452 -293 l -503 -224 q -431 -234 -471 -234 q -379 -221 -396 -234 q -361 -184 -361 -209 q -393 -135 -361 -151 q -488 -119 -425 -119 l -424 0 z "},"̨":{"ha":0,"x_min":-513,"x_max":-281,"o":"m -406 0 l -333 0 q -398 -56 -376 -26 q -420 -122 -420 -87 q -401 -170 -420 -154 q -342 -186 -381 -186 q -281 -176 -304 -186 l -281 -231 q -374 -251 -321 -251 q -478 -224 -444 -251 q -513 -143 -513 -197 q -486 -65 -513 -100 q -406 0 -459 -29 z "},"̩":{"ha":0,"x_min":-477,"x_max":-376,"o":"m -376 -385 l -477 -385 l -477 -134 l -376 -134 l -376 -385 z "},"̪":{"ha":0,"x_min":-611,"x_max":-243,"o":"m -611 -351 l -611 -134 l -243 -134 l -243 -351 l -318 -351 l -318 -209 l -536 -209 l -536 -351 l -611 -351 z "},"̫":{"ha":0,"x_min":-720,"x_max":-134,"o":"m -427 -229 q -484 -308 -452 -281 q -556 -335 -517 -335 q -666 -281 -622 -335 q -720 -134 -710 -227 l -636 -134 q -606 -221 -627 -192 q -554 -251 -585 -251 q -493 -221 -515 -251 q -469 -134 -472 -192 l -385 -134 q -360 -221 -382 -192 q -299 -251 -338 -251 q -247 -221 -267 -251 q -218 -134 -227 -192 l -134 -134 q -187 -281 -143 -227 q -297 -335 -231 -335 q -369 -308 -336 -335 q -427 -229 -401 -281 z "},"̬":{"ha":0,"x_min":-664,"x_max":-189,"o":"m -189 -134 l -353 -351 l -500 -351 l -664 -134 l -564 -134 l -427 -271 l -426 -271 l -290 -134 l -189 -134 z "},"̭":{"ha":0,"x_min":-664,"x_max":-189,"o":"m -664 -351 l -500 -134 l -353 -134 l -189 -351 l -290 -351 l -426 -215 l -427 -215 l -564 -351 l -664 -351 z "},"̮":{"ha":0,"x_min":-652,"x_max":-201,"o":"m -652 -134 l -569 -134 q -523 -209 -558 -184 q -427 -234 -487 -234 q -331 -209 -366 -234 q -284 -134 -295 -184 l -201 -134 q -273 -280 -211 -225 q -427 -335 -334 -335 q -580 -280 -519 -335 q -652 -134 -642 -225 z "},"̯":{"ha":0,"x_min":-652,"x_max":-201,"o":"m -201 -335 l -284 -335 q -331 -260 -295 -285 q -427 -235 -366 -235 q -523 -260 -487 -235 q -569 -335 -558 -285 l -652 -335 q -581 -189 -642 -243 q -427 -134 -519 -134 q -273 -189 -334 -134 q -201 -335 -212 -243 z "},"̰":{"ha":0,"x_min":-652,"x_max":-201,"o":"m -652 -293 q -617 -173 -648 -213 q -527 -134 -586 -134 q -435 -160 -477 -134 l -395 -185 q -336 -209 -357 -209 q -300 -190 -313 -209 q -284 -134 -287 -171 l -201 -134 q -236 -253 -204 -213 q -326 -293 -267 -293 q -418 -267 -376 -293 l -458 -241 q -517 -218 -496 -218 q -553 -237 -540 -218 q -569 -293 -566 -256 l -652 -293 z "},"̱":{"ha":0,"x_min":-644,"x_max":-209,"o":"m -644 -235 l -644 -134 l -209 -134 l -209 -235 l -644 -235 z "},"̲":{"ha":0,"x_min":-853,"x_max":0,"o":"m -853 -393 l -853 -293 l 0 -293 l 0 -393 l -853 -393 z "},"̳":{"ha":0,"x_min":-853,"x_max":0,"o":"m -853 -376 l -853 -293 l 0 -293 l 0 -376 l -853 -376 m -853 -611 l -853 -527 l 0 -527 l 0 -611 l -853 -611 z "},"̴":{"ha":0,"x_min":-778,"x_max":-75,"o":"m -677 301 l -778 301 q -726 461 -778 399 q -593 524 -674 524 q -462 480 -533 524 l -372 426 q -263 376 -292 376 q -197 407 -219 376 q -176 498 -176 437 l -75 498 q -127 338 -75 401 q -260 276 -179 276 q -391 319 -320 276 l -481 374 q -589 424 -562 424 q -655 393 -633 424 q -677 301 -677 362 z "},"̵":{"ha":0,"x_min":-778,"x_max":-75,"o":"m -778 326 l -778 427 l -75 427 l -75 326 l -778 326 z "},"̶":{"ha":0,"x_min":-853,"x_max":0,"o":"m -853 326 l -853 427 l 0 427 l 0 326 l -853 326 z "},"̷":{"ha":0,"x_min":-854,"x_max":1,"o":"m -736 0 l -854 0 l -117 736 l 1 736 l -736 0 z "},"̸":{"ha":0,"x_min":-796,"x_max":-66,"o":"m -796 -134 l -160 1138 l -66 1138 l -703 -134 l -796 -134 z "},"̹":{"ha":0,"x_min":-520,"x_max":-333,"o":"m -520 -441 l -520 -366 l -487 -366 q -431 -343 -454 -366 q -408 -288 -408 -321 q -431 -232 -408 -255 q -487 -209 -454 -209 l -520 -209 l -520 -134 l -487 -134 q -378 -179 -422 -134 q -333 -288 -333 -224 q -378 -397 -333 -352 q -487 -441 -422 -441 l -520 -441 z "},"̺":{"ha":0,"x_min":-611,"x_max":-243,"o":"m -243 -134 l -243 -351 l -611 -351 l -611 -134 l -536 -134 l -536 -276 l -318 -276 l -318 -134 l -243 -134 z "},"̻":{"ha":0,"x_min":-611,"x_max":-243,"o":"m -611 -418 l -611 -134 l -243 -134 l -243 -418 l -611 -418 m -544 -351 l -310 -351 l -310 -201 l -544 -201 l -544 -351 z "},"̼":{"ha":0,"x_min":-720,"x_max":-134,"o":"m -427 -240 q -369 -160 -401 -186 q -297 -134 -336 -134 q -187 -188 -231 -134 q -134 -335 -143 -242 l -218 -335 q -247 -247 -227 -276 q -299 -218 -267 -218 q -360 -247 -338 -218 q -385 -335 -382 -276 l -469 -335 q -493 -247 -472 -276 q -554 -218 -515 -218 q -606 -247 -585 -218 q -636 -335 -627 -276 l -720 -335 q -666 -188 -710 -242 q -556 -134 -622 -134 q -484 -160 -517 -134 q -427 -240 -452 -186 z "},"̽":{"ha":0,"x_min":-604,"x_max":-250,"o":"m -604 861 l -474 991 l -604 1121 l -510 1121 l -427 1038 l -344 1121 l -250 1121 l -380 991 l -250 861 l -344 861 l -427 943 l -510 861 l -604 861 z "},"̾":{"ha":0,"x_min":-522,"x_max":-331,"o":"m -507 870 q -431 943 -431 918 q -447 968 -431 956 l -465 980 l -484 995 q -522 1050 -522 1024 q -448 1138 -522 1086 l -346 1138 q -422 1065 -422 1090 q -406 1040 -422 1052 l -389 1028 l -369 1013 q -331 958 -331 984 q -405 870 -331 922 l -507 870 z "},"̿":{"ha":0,"x_min":-853,"x_max":0,"o":"m -853 1088 l -853 1188 l 0 1188 l 0 1088 l -853 1088 m -853 1306 l -853 1407 l 0 1407 l 0 1306 l -853 1306 z "},"̀":{"ha":0,"x_min":-865,"x_max":-547,"o":"m -547 1071 l -647 1071 l -865 1289 l -710 1289 l -547 1071 z "},"́":{"ha":0,"x_min":-307,"x_max":12,"o":"m -307 1071 l -143 1289 l 12 1289 l -206 1071 l -307 1071 z "},"͂":{"ha":0,"x_min":-652,"x_max":-201,"o":"m -652 870 q -617 989 -648 949 q -527 1029 -586 1029 q -435 1003 -477 1029 l -395 978 q -336 954 -357 954 q -300 973 -313 954 q -284 1029 -287 991 l -201 1029 q -236 910 -204 949 q -326 870 -267 870 q -418 897 -376 870 l -458 922 q -517 945 -496 945 q -553 926 -540 945 q -569 870 -566 907 l -652 870 z "},"̓":{"ha":0,"x_min":-494,"x_max":-360,"o":"m -494 870 l -494 910 q -455 948 -468 917 q -442 1033 -442 979 l -442 1044 l -494 1044 l -494 1178 l -360 1178 l -360 1062 q -393 925 -360 972 q -494 870 -427 877 z "},"̈́":{"ha":1,"x_min":-694,"x_max":-158,"o":"m -694 870 l -694 987 l -576 987 l -576 870 l -694 870 m -476 870 l -493 1088 l -359 1088 l -376 870 l -476 870 m -275 870 l -275 987 l -158 987 l -158 870 l -275 870 z "},"ͅ":{"ha":0,"x_min":-435,"x_max":-235,"o":"m -235 -267 q -338 -293 -286 -293 q -414 -263 -392 -293 q -435 -159 -435 -233 l -435 -83 l -331 -83 l -331 -121 q -321 -178 -331 -159 q -290 -197 -311 -197 q -235 -181 -262 -197 l -235 -267 z "},"ʹ":{"ha":401,"x_min":83,"x_max":368,"o":"m 83 669 l 217 1071 l 368 1071 l 167 669 l 83 669 z "},"͵":{"ha":401,"x_min":83,"x_max":368,"o":"m 83 -268 l 217 134 l 368 134 l 167 -268 l 83 -268 z "},"ͺ":{"ha":853,"x_min":370,"x_max":571,"o":"m 571 -267 q 467 -293 520 -293 q 392 -263 414 -293 q 370 -159 370 -233 l 370 -67 l 475 -67 l 475 -121 q 515 -197 475 -197 q 571 -181 543 -197 l 571 -267 z "},";":{"ha":439,"x_min":153,"x_max":286,"o":"m 153 -218 l 153 -168 q 201 -16 201 -142 l 201 0 l 153 0 l 153 134 l 286 134 l 286 21 q 153 -218 286 -184 m 153 602 l 153 736 l 286 736 l 286 602 l 153 602 z "},"΄":{"ha":854,"x_min":353,"x_max":500,"o":"m 376 870 l 353 1088 l 500 1088 l 477 870 l 376 870 z "},"΅":{"ha":853,"x_min":159,"x_max":694,"o":"m 159 870 l 159 987 l 276 987 l 276 870 l 159 870 m 577 870 l 577 987 l 694 987 l 694 870 l 577 870 m 382 870 l 359 1088 l 494 1088 l 471 870 l 382 870 z "},"Ά":{"ha":958,"x_min":0,"x_max":943,"o":"m 638 384 l 467 817 l 296 384 l 638 384 m 789 0 l 680 278 l 254 278 l 144 0 l 12 0 l 410 1004 l 551 1004 l 943 0 l 789 0 m 23 787 l 0 1004 l 146 1004 l 123 787 l 23 787 z "},"·":{"ha":439,"x_min":136,"x_max":303,"o":"m 136 333 l 136 500 l 303 500 l 303 333 l 136 333 z "},"Έ":{"ha":900,"x_min":-1,"x_max":866,"o":"m 276 0 l 276 1004 l 837 1004 l 837 897 l 418 897 l 418 575 l 769 575 l 769 470 l 418 470 l 418 106 l 866 106 l 866 0 l 276 0 m 22 787 l -1 1004 l 146 1004 l 123 787 l 22 787 z "},"Ή":{"ha":1167,"x_min":-1,"x_max":1038,"o":"m 275 0 l 275 1004 l 418 1004 l 418 581 l 895 581 l 895 1004 l 1038 1004 l 1038 0 l 895 0 l 895 474 l 418 474 l 418 0 l 275 0 m 22 787 l -1 1004 l 146 1004 l 123 787 l 22 787 z "},"Ί":{"ha":547,"x_min":0,"x_max":418,"o":"m 276 0 l 276 1004 l 418 1004 l 418 0 l 276 0 m 23 787 l 0 1004 l 146 1004 l 123 787 l 23 787 z "},"Ό":{"ha":1198,"x_min":0,"x_max":1128,"o":"m 653 -25 q 317 120 444 -25 q 190 503 190 264 q 318 885 190 742 q 659 1029 446 1029 q 1000 886 872 1029 q 1128 504 1128 743 q 1000 118 1128 260 q 653 -25 872 -25 m 655 81 q 893 192 809 81 q 977 505 977 303 q 893 812 977 701 q 659 922 808 922 q 425 811 509 922 q 341 503 341 701 q 425 194 341 307 q 655 81 508 81 m 23 787 l 0 1004 l 146 1004 l 123 787 l 23 787 z "},"Ύ":{"ha":1116,"x_min":0,"x_max":1096,"o":"m 594 0 l 594 325 q 494 725 594 564 q 247 887 394 887 l 247 1004 l 257 1004 q 528 902 422 1004 q 680 599 634 801 q 855 874 742 764 q 1096 1004 968 985 l 1096 903 q 834 692 939 859 q 728 325 728 526 l 728 0 l 594 0 m 23 787 l 0 1004 l 146 1004 l 123 787 l 23 787 z "},"Ώ":{"ha":1212,"x_min":0,"x_max":1170,"o":"m 166 0 l 166 104 l 442 104 q 260 311 321 196 q 199 564 199 426 q 331 898 199 768 q 668 1029 463 1029 q 1005 899 873 1029 q 1137 564 1137 768 q 1076 310 1137 425 q 894 104 1015 195 l 1170 104 l 1170 0 l 756 0 l 756 104 q 928 294 871 182 q 986 555 986 407 q 902 826 986 728 q 668 924 817 924 q 435 826 519 924 q 350 554 350 728 q 408 295 350 407 q 581 104 465 182 l 581 0 l 166 0 m 23 787 l 0 1004 l 146 1004 l 123 787 l 23 787 z "},"ΐ":{"ha":511,"x_min":-67,"x_max":477,"o":"m 477 12 q 346 -17 414 -17 q 183 47 232 -17 q 134 259 134 111 l 134 736 l 267 736 l 267 272 q 291 126 267 169 q 374 83 315 83 q 477 112 423 83 l 477 12 m -67 870 l -67 987 l 50 987 l 50 870 l -67 870 m 351 870 l 351 987 l 469 987 l 469 870 l 351 870 m 157 870 l 134 1088 l 268 1088 l 245 870 l 157 870 z "},"Α":{"ha":958,"x_min":12,"x_max":943,"o":"m 638 384 l 467 817 l 296 384 l 638 384 m 789 0 l 680 278 l 254 278 l 144 0 l 12 0 l 410 1004 l 551 1004 l 943 0 l 789 0 z "},"Β":{"ha":799,"x_min":130,"x_max":741,"o":"m 130 0 l 130 1004 l 390 1004 q 621 947 541 1004 q 701 783 701 890 q 495 523 701 600 q 741 251 741 448 q 660 64 741 129 q 425 0 578 0 l 130 0 m 271 106 l 300 106 q 503 126 456 106 q 591 264 591 163 q 511 413 591 354 q 311 473 431 473 l 271 473 l 271 106 m 271 563 l 316 563 q 493 612 430 563 q 555 749 555 661 q 326 897 555 897 l 271 897 l 271 563 z "},"Γ":{"ha":707,"x_min":130,"x_max":691,"o":"m 130 0 l 130 1004 l 691 1004 l 691 895 l 272 895 l 272 0 l 130 0 z "},"Δ":{"ha":972,"x_min":33,"x_max":939,"o":"m 33 0 l 33 125 l 416 1004 l 557 1004 l 939 125 l 939 0 l 33 0 m 156 125 l 785 125 l 471 847 l 156 125 z "},"Ε":{"ha":753,"x_min":130,"x_max":720,"o":"m 130 0 l 130 1004 l 690 1004 l 690 897 l 272 897 l 272 575 l 623 575 l 623 470 l 272 470 l 272 106 l 720 106 l 720 0 l 130 0 z "},"Ζ":{"ha":840,"x_min":64,"x_max":774,"o":"m 64 0 l 64 114 l 604 897 l 98 897 l 98 1004 l 774 1004 l 774 897 l 235 114 l 774 114 l 774 0 l 64 0 z "},"Η":{"ha":1021,"x_min":130,"x_max":892,"o":"m 130 0 l 130 1004 l 272 1004 l 272 581 l 749 581 l 749 1004 l 892 1004 l 892 0 l 749 0 l 749 474 l 272 474 l 272 0 l 130 0 z "},"Θ":{"ha":1080,"x_min":71,"x_max":1009,"o":"m 534 -25 q 198 120 325 -25 q 71 502 71 264 q 198 885 71 742 q 540 1029 326 1029 q 881 886 753 1029 q 1009 504 1009 743 q 881 118 1009 260 q 534 -25 753 -25 m 536 81 q 774 192 690 81 q 858 505 858 302 q 774 811 858 701 q 540 922 690 922 q 306 811 390 922 q 222 503 222 701 q 305 194 222 307 q 536 81 389 81 m 351 465 l 351 573 l 728 573 l 728 465 l 351 465 z "},"Ι":{"ha":400,"x_min":129,"x_max":271,"o":"m 129 0 l 129 1004 l 271 1004 l 271 0 l 129 0 z "},"Κ":{"ha":907,"x_min":130,"x_max":882,"o":"m 130 0 l 130 1004 l 263 1004 l 263 510 l 669 1004 l 812 1004 l 419 525 l 882 0 l 702 0 l 263 509 l 263 0 l 130 0 z "},"Λ":{"ha":904,"x_min":13,"x_max":891,"o":"m 13 0 l 377 1004 l 511 1004 l 891 0 l 748 0 l 431 836 l 129 0 l 13 0 z "},"Μ":{"ha":1196,"x_min":130,"x_max":1067,"o":"m 130 0 l 130 1004 l 327 1004 l 605 227 l 891 1004 l 1067 1004 l 1067 0 l 935 0 l 935 817 l 658 67 l 520 67 l 252 819 l 252 0 l 130 0 z "},"Ν":{"ha":1026,"x_min":130,"x_max":897,"o":"m 130 0 l 130 1004 l 269 1004 l 774 229 l 774 1004 l 897 1004 l 897 0 l 758 0 l 252 775 l 252 0 l 130 0 z "},"Ξ":{"ha":862,"x_min":33,"x_max":828,"o":"m 33 0 l 33 130 l 828 130 l 828 0 l 33 0 m 138 458 l 138 588 l 724 588 l 724 458 l 138 458 m 71 874 l 71 1004 l 791 1004 l 791 874 l 71 874 z "},"Ο":{"ha":1079,"x_min":71,"x_max":1009,"o":"m 534 -25 q 198 120 325 -25 q 71 503 71 264 q 198 885 71 742 q 540 1029 326 1029 q 881 886 753 1029 q 1009 504 1009 743 q 881 118 1009 260 q 534 -25 753 -25 m 536 81 q 774 192 690 81 q 858 505 858 303 q 773 812 858 701 q 540 922 689 922 q 306 811 390 922 q 222 503 222 701 q 305 194 222 307 q 536 81 389 81 z "},"Π":{"ha":1021,"x_min":130,"x_max":892,"o":"m 130 0 l 130 1004 l 892 1004 l 892 0 l 749 0 l 749 897 l 272 897 l 272 0 l 130 0 z "},"Ρ":{"ha":768,"x_min":130,"x_max":743,"o":"m 130 0 l 130 1004 l 403 1004 q 664 942 585 1004 q 743 741 743 881 q 635 490 743 581 q 334 399 526 399 l 271 399 l 271 0 l 130 0 m 271 507 l 328 507 q 524 565 455 507 q 593 730 593 623 q 539 859 593 820 q 358 897 485 897 l 271 897 l 271 507 z "},"Σ":{"ha":824,"x_min":42,"x_max":787,"o":"m 42 0 l 42 127 l 431 517 l 59 897 l 59 1004 l 766 1004 l 766 897 l 245 897 l 600 535 l 193 127 l 787 127 l 787 0 l 42 0 z "},"Τ":{"ha":878,"x_min":12,"x_max":867,"o":"m 368 0 l 368 897 l 12 897 l 12 1004 l 867 1004 l 867 897 l 511 897 l 511 0 l 368 0 z "},"Υ":{"ha":886,"x_min":18,"x_max":867,"o":"m 365 0 l 365 325 q 265 725 365 564 q 18 887 165 887 l 18 1004 l 28 1004 q 299 902 193 1004 q 451 599 405 801 q 626 874 513 764 q 867 1004 739 985 l 867 903 q 605 692 710 859 q 499 325 499 526 l 499 0 l 365 0 z "},"Φ":{"ha":979,"x_min":42,"x_max":937,"o":"m 427 0 l 427 151 q 149 248 255 151 q 42 502 42 345 q 149 756 42 659 q 427 853 255 853 l 427 1004 l 552 1004 l 552 853 q 831 756 724 853 q 937 502 937 659 q 831 248 937 345 q 552 151 724 151 l 552 0 l 427 0 m 427 254 l 427 749 q 248 685 311 749 q 184 502 184 620 q 248 319 184 384 q 427 254 311 254 m 552 254 q 731 319 668 254 q 795 502 795 384 q 731 685 795 620 q 552 749 668 749 l 552 254 z "},"Χ":{"ha":869,"x_min":11,"x_max":833,"o":"m 11 0 l 344 504 l 27 1004 l 195 1004 l 437 625 l 690 1004 l 825 1004 l 504 519 l 833 0 l 665 0 l 410 398 l 146 0 l 11 0 z "},"Ψ":{"ha":1004,"x_min":8,"x_max":996,"o":"m 435 0 l 435 422 q 242 492 307 432 q 156 681 176 553 l 142 766 q 106 876 128 852 q 18 899 84 899 l 8 899 l 8 1004 l 20 1004 q 187 963 138 1004 q 257 802 235 922 l 271 724 q 324 571 291 613 q 423 529 357 529 q 435 530 427 529 l 435 1004 l 569 1004 l 569 530 q 581 529 576 529 q 680 571 647 529 q 732 724 713 612 l 747 802 q 817 963 768 922 q 984 1004 865 1004 l 996 1004 l 996 899 l 986 899 q 897 876 919 899 q 861 766 875 852 l 848 681 q 762 492 827 553 q 569 422 696 432 l 569 0 l 435 0 z "},"Ω":{"ha":1105,"x_min":50,"x_max":1054,"o":"m 50 0 l 50 104 l 326 104 q 144 311 205 196 q 83 564 83 426 q 215 898 83 768 q 552 1029 347 1029 q 889 899 758 1029 q 1021 564 1021 768 q 960 310 1021 425 q 778 104 899 195 l 1054 104 l 1054 0 l 640 0 l 640 104 q 812 294 755 182 q 870 555 870 407 q 786 826 870 728 q 552 924 701 924 q 319 826 404 924 q 234 554 234 728 q 292 295 234 407 q 465 104 349 182 l 465 0 l 50 0 z "},"Ϊ":{"ha":400,"x_min":7,"x_max":393,"o":"m 129 0 l 129 1004 l 271 1004 l 271 0 l 129 0 m 7 1088 l 7 1205 l 125 1205 l 125 1088 l 7 1088 m 275 1088 l 275 1205 l 393 1205 l 393 1088 l 275 1088 z "},"Ϋ":{"ha":886,"x_min":18,"x_max":867,"o":"m 365 0 l 365 325 q 265 725 365 564 q 18 887 165 887 l 18 1004 l 28 1004 q 299 902 193 1004 q 451 599 405 801 q 626 874 513 764 q 867 1004 739 985 l 867 903 q 605 692 710 859 q 499 325 499 526 l 499 0 l 365 0 m 264 1088 l 264 1205 l 382 1205 l 382 1088 l 264 1088 m 532 1088 l 532 1205 l 650 1205 l 650 1088 l 532 1088 z "},"ά":{"ha":964,"x_min":90,"x_max":891,"o":"m 671 486 q 743 736 718 615 l 867 736 q 722 369 831 582 l 735 336 q 777 246 744 317 q 825 143 798 203 q 891 0 865 50 l 749 0 q 739 20 741 17 l 709 91 l 681 156 l 659 208 l 648 233 q 521 39 585 95 q 361 -17 457 -17 q 164 80 238 -17 q 90 337 90 176 q 175 639 90 525 q 400 753 260 753 q 549 699 494 753 q 671 486 605 644 m 602 342 l 569 417 q 470 605 508 557 q 385 652 433 652 q 275 570 318 652 q 232 359 232 487 q 272 159 232 235 q 379 83 313 83 q 485 139 437 83 q 602 342 533 195 m 392 870 l 369 1088 l 515 1088 l 492 870 l 392 870 z "},"έ":{"ha":732,"x_min":75,"x_max":648,"o":"m 648 128 l 648 24 q 432 -17 536 -17 q 172 88 269 -17 q 75 370 75 193 q 172 653 75 553 q 444 753 268 753 q 640 728 539 753 l 640 619 q 433 652 517 652 q 282 595 339 652 q 216 435 224 538 l 598 435 l 598 334 l 216 334 q 284 146 224 209 q 455 83 344 83 q 648 128 547 83 m 368 870 l 345 1088 l 492 1088 l 469 870 l 368 870 z "},"ή":{"ha":864,"x_min":92,"x_max":739,"o":"m 136 0 l 136 511 q 92 736 136 634 l 241 736 q 270 597 259 677 q 529 753 389 753 q 686 685 633 753 q 739 481 739 616 l 739 -268 l 605 -268 l 605 465 q 575 587 605 546 q 484 627 545 627 q 270 481 366 627 l 270 0 l 136 0 m 391 870 l 368 1088 l 514 1088 l 491 870 l 391 870 z "},"ί":{"ha":511,"x_min":127,"x_max":477,"o":"m 477 12 q 346 -17 414 -17 q 183 47 232 -17 q 134 259 134 111 l 134 736 l 267 736 l 267 272 q 291 126 267 169 q 374 83 315 83 q 477 112 423 83 l 477 12 m 151 870 l 127 1088 l 274 1088 l 251 870 l 151 870 z "},"ΰ":{"ha":837,"x_min":125,"x_max":745,"o":"m 125 736 l 259 736 l 259 368 q 293 142 259 201 q 423 83 328 83 q 571 151 518 83 q 624 340 624 219 q 519 736 624 553 l 665 736 q 745 358 745 555 q 654 85 745 188 q 412 -17 563 -17 q 205 56 281 -17 q 142 160 159 100 q 125 340 125 221 l 125 736 m 153 870 l 153 987 l 270 987 l 270 870 l 153 870 m 571 870 l 571 987 l 688 987 l 688 870 l 571 870 m 376 870 l 353 1088 l 488 1088 l 465 870 l 376 870 z "},"α":{"ha":964,"x_min":90,"x_max":891,"o":"m 671 486 q 743 736 718 615 l 867 736 q 722 369 831 582 l 735 336 q 777 246 744 317 q 825 143 798 203 q 891 0 865 50 l 749 0 q 739 20 741 17 l 709 91 l 681 156 l 659 208 l 648 233 q 521 39 585 95 q 361 -17 457 -17 q 164 80 238 -17 q 90 337 90 176 q 175 639 90 525 q 400 753 260 753 q 549 699 494 753 q 671 486 605 644 m 602 342 l 569 417 q 470 605 508 557 q 385 652 433 652 q 275 570 318 652 q 232 359 232 487 q 272 159 232 235 q 379 83 313 83 q 485 139 437 83 q 602 342 533 195 z "},"β":{"ha":837,"x_min":134,"x_max":770,"o":"m 134 -268 l 134 715 q 213 989 134 891 q 434 1088 292 1088 q 623 1027 551 1088 q 694 866 694 966 q 648 719 694 786 q 511 596 602 651 q 701 476 632 557 q 770 291 770 395 q 676 70 770 156 q 437 -17 583 -17 q 267 12 350 -17 l 267 -268 l 134 -268 m 317 619 l 342 619 q 495 690 429 619 q 560 855 560 761 q 526 954 560 921 q 425 987 492 987 q 307 924 346 987 q 267 736 267 861 l 267 127 q 439 83 364 83 q 578 143 521 83 q 635 286 635 202 q 556 455 635 391 q 344 519 477 519 l 317 519 l 317 619 z "},"γ":{"ha":777,"x_min":-4,"x_max":782,"o":"m 321 72 q 197 389 294 191 q -4 736 100 587 l 150 736 q 398 230 301 507 q 597 635 478 440 l 650 721 q 659 736 651 722 l 782 736 q 452 113 622 509 l 440 84 q 466 -75 466 13 q 423 -268 466 -161 l 321 -268 l 314 -245 q 286 -101 286 -155 q 321 72 286 -43 z "},"δ":{"ha":820,"x_min":75,"x_max":745,"o":"m 330 678 q 300 699 307 694 l 231 743 q 100 906 100 826 q 186 1040 100 993 q 431 1088 273 1088 q 589 1072 496 1088 q 615 1068 597 1071 l 615 957 q 407 987 505 987 q 281 968 330 987 q 233 918 233 949 q 296 850 233 892 l 363 805 q 427 766 370 800 l 490 727 q 687 556 629 643 q 745 347 745 469 q 653 83 745 184 q 410 -17 560 -17 q 169 81 262 -17 q 75 332 75 178 q 139 542 75 455 q 330 678 203 628 m 433 616 l 418 610 q 268 498 318 568 q 218 330 218 428 q 273 152 218 221 q 414 83 328 83 q 549 155 496 83 q 602 338 602 227 q 565 496 602 435 q 433 616 528 557 z "},"ε":{"ha":732,"x_min":75,"x_max":648,"o":"m 648 128 l 648 24 q 432 -17 536 -17 q 172 88 269 -17 q 75 370 75 193 q 172 653 75 553 q 444 753 268 753 q 640 728 539 753 l 640 619 q 433 652 517 652 q 282 595 339 652 q 216 435 224 538 l 598 435 l 598 334 l 216 334 q 284 146 224 209 q 455 83 344 83 q 648 128 547 83 z "},"ζ":{"ha":874,"x_min":29,"x_max":866,"o":"m 452 -277 l 452 -168 q 587 -184 535 -184 q 714 -157 671 -184 q 757 -77 757 -130 q 725 -15 757 -29 q 592 0 694 0 l 511 0 q 228 85 322 0 q 134 340 134 170 q 188 588 134 455 q 329 816 242 720 q 276 813 292 813 q 29 861 159 813 l 29 979 q 365 899 184 899 l 412 899 q 614 1034 515 987 q 810 1088 714 1081 l 842 996 q 669 881 774 929 q 452 816 564 832 q 320 578 363 696 q 276 347 276 461 q 336 171 276 224 q 534 117 395 117 l 594 117 q 805 78 744 117 q 866 -56 866 39 q 785 -227 866 -170 q 541 -284 703 -284 q 452 -277 500 -284 z "},"η":{"ha":864,"x_min":92,"x_max":739,"o":"m 136 0 l 136 511 q 92 736 136 634 l 241 736 q 270 597 259 677 q 529 753 389 753 q 686 685 633 753 q 739 481 739 616 l 739 -268 l 605 -268 l 605 465 q 575 587 605 546 q 484 627 545 627 q 270 481 366 627 l 270 0 l 136 0 z "},"θ":{"ha":853,"x_min":92,"x_max":762,"o":"m 92 535 q 178 945 92 803 q 427 1088 264 1088 q 675 945 589 1088 q 762 536 762 803 q 675 125 762 268 q 427 -17 589 -17 q 176 121 260 -17 q 92 535 92 259 m 231 594 l 623 594 q 568 877 623 766 q 427 987 513 987 q 286 877 340 987 q 231 594 231 766 m 623 494 l 231 494 q 284 196 231 308 q 426 83 338 83 q 568 198 513 83 q 623 494 623 313 z "},"ι":{"ha":511,"x_min":134,"x_max":477,"o":"m 477 12 q 346 -17 414 -17 q 183 47 232 -17 q 134 259 134 111 l 134 736 l 267 736 l 267 272 q 291 126 267 169 q 374 83 315 83 q 477 112 423 83 l 477 12 z "},"κ":{"ha":758,"x_min":134,"x_max":715,"o":"m 134 0 l 134 736 l 267 736 l 267 376 l 336 461 l 401 541 q 551 699 496 661 q 682 736 606 736 l 682 616 q 658 618 667 618 q 582 583 623 618 q 454 445 541 547 l 412 395 l 715 0 l 554 0 l 267 376 l 267 0 l 134 0 z "},"λ":{"ha":810,"x_min":31,"x_max":802,"o":"m 338 668 l 271 824 q 201 927 237 901 q 95 954 165 954 l 75 954 l 75 1071 l 100 1071 q 287 1031 231 1071 q 401 858 343 992 l 643 307 q 802 0 711 151 l 652 0 q 526 243 585 111 l 401 526 l 159 0 l 31 0 l 338 668 z "},"μ":{"ha":870,"x_min":134,"x_max":776,"o":"m 134 -268 l 134 736 l 267 736 l 267 251 q 298 144 267 180 q 391 109 329 109 q 602 259 503 109 l 602 736 l 736 736 l 736 224 q 776 0 736 99 l 629 0 q 602 138 615 51 q 388 -17 507 -17 q 267 17 319 -17 l 267 -268 l 134 -268 z "},"ν":{"ha":762,"x_min":0,"x_max":708,"o":"m 311 0 q 165 387 259 166 q 0 736 72 608 l 141 736 q 220 576 170 690 l 281 440 q 390 159 340 309 l 399 132 q 536 425 490 300 q 583 634 583 551 q 566 736 583 694 l 698 736 q 708 659 708 702 q 632 388 708 578 q 446 0 557 198 l 311 0 z "},"ξ":{"ha":799,"x_min":-8,"x_max":783,"o":"m 336 568 q 202 664 253 600 q 151 800 151 728 q 201 929 151 860 q -8 975 104 929 l -8 1084 q 281 1017 106 1029 l 311 1015 q 565 1088 434 1088 q 661 1079 611 1088 l 682 1015 q 548 949 623 971 q 382 928 473 928 l 331 929 q 285 811 285 876 q 363 660 285 717 q 572 602 442 602 l 661 602 l 661 502 l 569 502 q 419 490 467 502 q 320 441 370 478 q 235 279 235 376 q 287 158 235 198 q 444 117 339 117 l 511 117 q 722 78 661 117 q 783 -56 783 39 q 701 -227 783 -170 q 458 -284 620 -284 q 368 -277 418 -284 l 368 -168 q 503 -184 452 -184 q 631 -157 588 -184 q 673 -77 673 -130 q 642 -15 673 -29 q 509 0 610 0 l 451 0 q 188 73 284 0 q 92 273 92 146 q 157 445 92 367 q 336 568 222 524 z "},"ο":{"ha":853,"x_min":75,"x_max":778,"o":"m 422 -17 q 170 88 264 -17 q 75 368 75 193 q 170 649 75 546 q 427 753 264 753 q 683 649 589 753 q 778 370 778 546 q 683 86 778 189 q 422 -17 588 -17 m 424 83 q 636 370 636 83 q 427 652 636 652 q 218 368 218 652 q 424 83 218 83 z "},"ρ":{"ha":845,"x_min":125,"x_max":770,"o":"m 125 -268 l 125 283 q 210 635 125 517 q 465 753 295 753 q 690 670 610 753 q 770 436 770 587 q 664 124 770 248 q 395 0 557 0 q 259 24 323 0 l 259 -268 l 125 -268 m 259 153 q 404 100 323 100 q 572 186 508 100 q 636 413 636 273 q 585 588 636 524 q 448 652 534 652 q 306 575 353 652 q 259 342 259 497 l 259 153 z "},"ς":{"ha":794,"x_min":75,"x_max":778,"o":"m 699 738 l 699 634 q 550 653 628 653 q 301 568 389 653 q 213 327 213 483 q 272 167 213 217 q 458 117 330 117 l 506 117 q 716 78 655 117 q 778 -56 778 39 q 696 -227 778 -170 q 452 -284 615 -284 q 363 -277 412 -284 l 363 -168 q 498 -184 446 -184 q 626 -157 583 -184 q 669 -77 669 -130 q 637 -15 669 -29 q 504 0 606 0 l 439 0 q 170 83 264 0 q 75 317 75 165 q 213 628 75 504 q 556 753 350 753 q 699 738 637 753 z "},"σ":{"ha":944,"x_min":75,"x_max":960,"o":"m 536 736 l 960 736 l 960 619 l 705 619 q 778 369 778 504 q 684 87 778 191 q 427 -17 589 -17 q 170 87 264 -17 q 75 368 75 191 q 170 649 75 545 q 425 753 264 753 q 536 736 469 753 m 424 83 q 583 155 530 83 q 636 370 636 227 q 584 582 636 511 q 427 652 531 652 q 270 581 322 652 q 218 368 218 510 q 269 155 218 226 q 424 83 321 83 z "},"τ":{"ha":749,"x_min":27,"x_max":722,"o":"m 349 0 q 303 290 303 102 l 303 619 l 197 619 q 27 585 103 619 l 27 709 q 206 736 99 736 l 722 736 l 722 619 l 437 619 l 437 215 q 491 0 437 82 l 349 0 z "},"υ":{"ha":837,"x_min":125,"x_max":745,"o":"m 125 736 l 259 736 l 259 368 q 293 142 259 201 q 423 83 328 83 q 571 151 518 83 q 624 340 624 219 q 519 736 624 553 l 665 736 q 745 358 745 555 q 654 85 745 188 q 412 -17 563 -17 q 205 56 281 -17 q 142 160 159 100 q 125 340 125 221 l 125 736 z "},"φ":{"ha":1134,"x_min":67,"x_max":1067,"o":"m 363 736 l 363 636 q 241 582 281 636 q 201 418 201 527 q 271 187 201 267 q 481 100 341 108 l 481 278 q 494 531 481 458 q 546 660 506 604 q 754 753 613 753 q 982 664 897 753 q 1067 427 1067 575 q 949 133 1067 244 q 615 0 832 22 l 615 -268 l 481 -268 l 481 0 q 171 121 274 16 q 67 418 67 225 q 141 657 67 577 q 363 736 215 736 m 615 100 q 851 197 768 112 q 933 431 933 283 q 889 592 933 532 q 768 652 844 652 q 654 590 692 652 q 616 401 616 527 l 615 302 l 615 100 z "},"χ":{"ha":762,"x_min":5,"x_max":760,"o":"m 306 246 l 170 490 q 140 543 144 535 l 93 620 q 15 736 48 694 l 170 736 q 298 532 230 654 l 336 465 l 383 380 l 592 736 l 708 736 l 439 279 l 606 -22 l 651 -96 l 698 -172 q 760 -268 722 -212 l 606 -268 l 596 -254 q 473 -55 509 -119 l 361 145 l 122 -268 l 5 -268 l 306 246 z "},"ψ":{"ha":1096,"x_min":63,"x_max":1025,"o":"m 486 -268 l 486 0 l 470 1 q 180 123 264 24 q 96 438 96 221 l 96 542 q 63 736 96 659 l 198 736 q 235 551 235 673 l 235 447 q 255 258 235 322 q 330 155 276 195 q 486 100 403 100 l 486 870 l 619 870 l 619 100 q 823 195 755 107 q 891 451 891 282 q 838 736 891 620 l 971 736 q 1025 427 1025 598 q 923 118 1025 225 q 619 0 822 12 l 619 -268 l 486 -268 z "},"ω":{"ha":1246,"x_min":75,"x_max":1171,"o":"m 623 195 q 519 36 581 89 q 378 -17 458 -17 q 160 86 245 -17 q 75 349 75 189 q 107 551 75 444 q 191 736 140 659 l 330 736 q 240 552 275 659 q 204 362 204 446 q 253 169 204 245 q 377 92 302 92 q 494 153 444 92 q 562 316 544 213 q 530 486 530 399 q 562 665 530 581 l 685 665 q 716 486 716 581 q 685 316 716 399 q 752 153 703 213 q 869 92 802 92 q 994 169 944 92 q 1043 362 1043 246 q 1007 552 1043 446 q 917 736 971 659 l 1056 736 q 1139 551 1107 659 q 1171 349 1171 444 q 1086 85 1171 188 q 869 -17 1002 -17 q 727 36 789 -17 q 623 195 666 89 z "},"ϊ":{"ha":511,"x_min":8,"x_max":477,"o":"m 477 12 q 346 -17 414 -17 q 183 47 232 -17 q 134 259 134 111 l 134 736 l 267 736 l 267 272 q 291 126 267 169 q 374 83 315 83 q 477 112 423 83 l 477 12 m 8 870 l 8 987 l 125 987 l 125 870 l 8 870 m 276 870 l 276 987 l 393 987 l 393 870 l 276 870 z "},"ϋ":{"ha":837,"x_min":125,"x_max":745,"o":"m 125 736 l 259 736 l 259 368 q 293 142 259 201 q 423 83 328 83 q 571 151 518 83 q 624 340 624 219 q 519 736 624 553 l 665 736 q 745 358 745 555 q 654 85 745 188 q 412 -17 563 -17 q 205 56 281 -17 q 142 160 159 100 q 125 340 125 221 l 125 736 m 209 870 l 209 987 l 326 987 l 326 870 l 209 870 m 477 870 l 477 987 l 594 987 l 594 870 l 477 870 z "},"ό":{"ha":853,"x_min":75,"x_max":778,"o":"m 422 -17 q 170 88 264 -17 q 75 368 75 193 q 170 649 75 546 q 427 753 264 753 q 683 649 589 753 q 778 370 778 546 q 683 86 778 189 q 422 -17 588 -17 m 424 83 q 636 370 636 83 q 427 652 636 652 q 218 368 218 652 q 424 83 218 83 m 376 870 l 353 1088 l 500 1088 l 477 870 l 376 870 z "},"ύ":{"ha":837,"x_min":125,"x_max":745,"o":"m 125 736 l 259 736 l 259 368 q 293 142 259 201 q 423 83 328 83 q 571 151 518 83 q 624 340 624 219 q 519 736 624 553 l 665 736 q 745 358 745 555 q 654 85 745 188 q 412 -17 563 -17 q 205 56 281 -17 q 142 160 159 100 q 125 340 125 221 l 125 736 m 360 870 l 337 1088 l 484 1088 l 460 870 l 360 870 z "},"ώ":{"ha":1246,"x_min":75,"x_max":1171,"o":"m 623 195 q 519 36 581 89 q 378 -17 458 -17 q 160 86 245 -17 q 75 349 75 189 q 107 551 75 444 q 191 736 140 659 l 330 736 q 240 552 275 659 q 204 362 204 446 q 253 169 204 245 q 377 92 302 92 q 494 153 444 92 q 562 316 544 213 q 530 486 530 399 q 562 665 530 581 l 685 665 q 716 486 716 581 q 685 316 716 399 q 752 153 703 213 q 869 92 802 92 q 994 169 944 92 q 1043 362 1043 246 q 1007 552 1043 446 q 917 736 971 659 l 1056 736 q 1139 551 1107 659 q 1171 349 1171 444 q 1086 85 1171 188 q 869 -17 1002 -17 q 727 36 789 -17 q 623 195 666 89 m 573 870 l 550 1088 l 696 1088 l 673 870 l 573 870 z "},"ϐ":{"ha":720,"x_min":75,"x_max":665,"o":"m 248 782 q 380 736 316 736 q 481 781 439 736 q 523 888 523 825 q 495 959 523 930 q 427 987 468 987 q 325 931 374 987 q 248 782 276 876 m 229 690 q 203 484 203 596 q 213 380 203 428 q 431 481 317 481 q 598 415 531 481 q 665 252 665 350 q 582 62 665 142 q 382 -17 498 -17 q 159 120 242 -17 q 75 488 75 258 q 182 916 75 743 q 447 1088 289 1088 q 593 1033 537 1088 q 648 891 648 979 q 570 712 648 787 q 385 636 492 636 q 229 690 302 636 m 229 279 q 297 138 247 192 q 408 83 347 83 q 498 130 460 83 q 536 239 536 176 q 498 340 536 299 q 405 381 460 381 q 229 279 300 381 z "},"ϑ":{"ha":866,"x_min":75,"x_max":824,"o":"m 87 301 l 210 301 q 235 235 223 273 l 248 190 q 291 110 263 136 q 359 83 319 83 q 490 189 441 83 q 540 465 540 294 l 540 494 l 423 494 q 160 554 244 494 q 75 743 75 614 q 165 984 75 881 q 374 1088 255 1088 q 584 968 507 1088 q 684 611 662 849 l 824 611 l 824 494 l 684 494 q 592 127 684 271 q 358 -17 500 -17 q 223 24 277 -17 q 142 146 170 64 l 123 208 l 113 240 q 87 301 102 271 m 540 611 l 540 631 q 491 889 540 790 q 365 987 443 987 q 244 916 296 987 q 193 749 193 844 q 243 638 193 666 q 446 611 293 611 l 540 611 z "},"ϒ":{"ha":884,"x_min":3,"x_max":878,"o":"m 362 0 l 362 325 q 313 593 359 478 l 283 665 l 227 767 q 3 1004 144 899 l 196 1004 q 335 845 273 939 q 444 627 397 751 q 595 913 495 823 q 862 1004 694 1004 l 878 1004 l 878 903 l 862 903 l 804 904 q 589 729 682 904 q 496 323 496 553 l 496 0 l 362 0 z "}}}
